<?xml version="1.0" encoding="utf-8"?>
<!-- Generator: Adobe Illustrator 28.1.0, SVG Export Plug-In . SVG Version: 6.00 Build 0)  -->
<svg version="1.1" id="Layer_1" xmlns="http://www.w3.org/2000/svg" xmlns:xlink="http://www.w3.org/1999/xlink" x="0px" y="0px"
	 viewBox="0 0 94 94" style="enable-background:new 0 0 94 94;" xml:space="preserve">
<style type="text/css">
	.st0{fill:#033B30;}
</style>
<path class="st0" d="M94,7.3v79.3c0,1.9-0.8,3.8-2.2,5.2c-1.4,1.4-3.2,2.2-5.2,2.2s-3.8-0.8-5.2-2.2c-1.4-1.4-2.2-3.2-2.2-5.2V25.1
	L12.5,91.8C11.2,93.2,9.3,94,7.3,94s-3.8-0.8-5.2-2.2C0.8,90.5,0,88.6,0,86.7s0.8-3.8,2.2-5.2L69,14.7H7.3c-1.9,0-3.8-0.8-5.2-2.2
	C0.8,11.2,0,9.3,0,7.3s0.8-3.8,2.2-5.2C3.5,0.8,5.4,0,7.3,0h79.3c1.9,0,3.8,0.8,5.2,2.2C93.2,3.5,94,5.4,94,7.3z"/>
</svg>
