<?xml version="1.0" encoding="utf-8"?>
<!-- Generator: Adobe Illustrator 28.1.0, SVG Export Plug-In . SVG Version: 6.00 Build 0)  -->
<svg version="1.1" id="Layer_1" xmlns="http://www.w3.org/2000/svg" xmlns:xlink="http://www.w3.org/1999/xlink" x="0px" y="0px"
	 viewBox="0 0 512 512" style="enable-background:new 0 0 512 512;" xml:space="preserve">
<path d="M473.5,137h-435C17.2,137,0,119.8,0,98.5v0C0,77.2,17.2,60,38.5,60h435c21.3,0,38.5,17.2,38.5,38.5v0
	C512,119.8,494.8,137,473.5,137z"/>
<path d="M473.5,294.5h-435C17.2,294.5,0,277.3,0,256v0c0-21.3,17.2-38.5,38.5-38.5h435c21.3,0,38.5,17.2,38.5,38.5v0
	C512,277.3,494.8,294.5,473.5,294.5z"/>
<path d="M473.5,452h-435C17.2,452,0,434.8,0,413.5v0C0,392.2,17.2,375,38.5,375h435c21.3,0,38.5,17.2,38.5,38.5v0
	C512,434.8,494.8,452,473.5,452z"/>
</svg>
