<?xml version="1.0" encoding="utf-8"?>
<!-- Generator: Adobe Illustrator 28.1.0, SVG Export Plug-In . SVG Version: 6.00 Build 0)  -->
<svg version="1.1" id="Layer_1" xmlns="http://www.w3.org/2000/svg" xmlns:xlink="http://www.w3.org/1999/xlink" x="0px" y="0px"
	 viewBox="0 0 517 649" style="enable-background:new 0 0 517 649;" xml:space="preserve">
<style type="text/css">
	.st0{fill-rule:evenodd;clip-rule:evenodd;fill:#F9F5E9;fill-opacity:0.4;}
</style>
<path class="st0" d="M68,0C30.4,0,0,30.4,0,68v513c0,37.6,30.4,68,68,68h380.9c14.2,0,27.4-4.4,38.3-11.8c1.1-0.2,2.1-0.9,2.7-1.9
	c16.4-12.4,27-32.1,27-54.2V68c0-37.6-30.4-68-68-68H68z M484.9,629c14.6-10.9,24-28.4,24-48V425.3c-0.6,0.7-1.2,1.4-1.8,2.1
	c-5.9,6.4-13.7,12.3-16,14l-0.2,0.1c-0.1,0.1-0.2,0.1-0.2,0.2c-25.7,19.3-54.8,38.3-84.6,51.2c-2,0.9-4,1.7-6,2.6h0
	c-34.6,15-70.3,30.5-106.9,40.5c-8.7,2.4-17.5,4.2-26.2,6c-1,0.2-2,0.4-3,0.6h0c-7.7,1.6-15.3,3.1-22.9,5
	c-9.1,2.2-17.9,4.8-26.8,7.4h0c-6.2,1.8-12.5,3.6-18.9,5.3c-13.8,3.7-27.4,8.4-41.1,13l0,0c-6,2-12,4.1-18.1,6.1
	c-13.3,4.4-26.7,10.2-39,17.1c-5.1,2.9-9.7,6.4-14.4,10.2c-1.3,1-2.5,2.1-3.8,3.1l0,0c-3.4,2.8-7,5.7-10.6,8.4
	c-0.6,0.4-1.2,1.1-1.6,1.7c-0.4,0.7-0.6,1.3-0.7,1.7c0,0.1,0,0.1,0,0.2c0.1,0.1,0.4,0.2,0.8,0.3c21.8,4,46.3,3.7,69,2.4
	c5.9-0.3,11.7-1,17.6-1.6l0,0c1-0.1,2.1-0.2,3.1-0.3c7-0.7,14.1-1.4,21.4-1.5c14.6-0.2,29.2-1.7,43.5-4.7c21.2-4.5,42-11.2,62.9-18
	c1.9-0.6,3.8-1.2,5.7-1.8c8.9-2.9,17.8-5.5,26.7-8.1h0c18-5.3,35.8-10.6,53-17.7c19.9-8.2,39.7-15.2,60-22c3.5-1.2,7.1-2.5,10.7-3.9
	l0.4-0.1c3.8-1.4,7.6-2.8,11.5-4.1c7.8-2.6,16.1-4.6,24.7-4.6c2.9,0,7,0.1,10.9,1.1c3.8,1,8.2,3.1,10.5,7.6c1.5,3.1,1,6.3,0.1,8.6
	c-0.9,2.4-2.4,4.5-3.8,5.9c-9.1,9.9-23,17.2-34.5,23.3c-1.6,0.9-3.2,1.7-4.7,2.5c-15.4,8.3-30.9,16.5-46.4,24.7
	c-2.5,1.3-5.1,2.6-7.8,3.8c-1.6,0.8-3.2,1.5-4.7,2.3c-1.8,0.9-3.5,1.8-5.2,2.7c3,0,6.3-0.2,8.9-0.5c1.4-0.1,2.6-0.2,3.4-0.3
	c0.4,0,0.8-0.1,1.1-0.1c0.2,0,0.3,0,0.3,0c0,0,0,0,0,0c15.9-2.8,32.5-6.6,47.4-12.2c2.2-0.8,4.5-1.8,6.9-2.8l0,0h0
	c6.7-2.8,13.9-5.8,21.3-7.1c0.4-0.1,1.2-0.2,2.1,0c1.1,0.2,2.6,1,3.2,2.9c0.4,1.4,0,2.6-0.2,3c-0.2,0.5-0.5,0.9-0.7,1.2
	c-0.8,1.1-2,2.3-3.1,3.3c-1.2,1.1-2.4,2.2-3.5,3c-0.2,0.2-0.4,0.4-0.6,0.5c-0.1,0.1-0.2,0.2-0.3,0.3c-0.1,0.1-0.2,0.2-0.3,0.3
	l-0.2,0.2c-0.1,0.1-0.1,0.1-0.2,0.2c-0.1,0-0.1,0.1-0.1,0.1c0,0,0,0,0,0c0,0,0,0,0,0c-0.9,0.8-1.9,1.6-2.7,2.3l0,0
	c-2,1.7-4,3.3-5.8,5.1c-2,2-3.6,4-4.7,6.2c0.1,0,0.1,0,0.2,0.1c1.8,0.8,4.6,1.6,7.9,2.3C476.8,627.8,482,628.6,484.9,629z
	 M508.9,403.9V139.3c-0.8,1.6-1.5,3.1-2.2,4.4l0,0c-0.2,0.3-0.3,0.6-0.4,0.9c-4.4,8.9-10.6,17.1-16.4,24.8c-1.2,1.7-2.5,3.3-3.7,4.9
	c-8.7,11.8-18.2,23.5-29,33.8c-16.9,15.9-35.1,30.7-53.1,45.2l0,0c-4.4,3.6-8.8,7.1-13.2,10.7c-16.6,13.6-34.5,26.8-53.3,37.6
	c-7.6,4.3-15.2,8.6-22.8,12.9c-2.7,1.5-5.4,3.1-8.1,4.6c-8.1,4.6-16.7,8.2-25.1,11.8c-3.6,1.5-7.1,3-10.6,4.6
	c-5.7,2.5-11.4,5.2-17.1,7.9l0,0l0,0c-9.3,4.4-18.8,8.8-28.3,12.8c-8,3.4-16.2,6.3-24.3,9.3l-1.6,0.6l0,0
	c-7.6,2.7-15.1,5.5-22.4,8.4C151.2,385,125,394.9,98.2,404c-20.8,7.1-40.8,15.5-60.7,24.9c-5.5,2.6-11.5,6.6-16,11.6
	c-4.6,4.9-7.4,10.4-7.4,15.8c0,2.9,0.9,4.1,1.7,4.7c1,0.7,2.9,1.3,6.1,1.1c6.5-0.4,15.7-3.5,25.7-7.9c9.9-4.4,20.2-9.9,28.6-14.6
	c2.7-1.5,5.3-2.9,7.5-4.2h0l0,0c1.2-0.7,2.4-1.3,3.4-1.9c2.9-1.6,5.4-3,6.8-3.6c14.8-6.4,30.9-9.8,46.3-13l0,0
	c3.6-0.8,7.2-1.5,10.7-2.3c11.5-2.6,22.6-6.2,34-9.9h0c3.8-1.2,7.6-2.5,11.4-3.7c8.7-2.7,17.4-5.2,26.1-7.7c1.3-0.4,2.7-0.8,4-1.2
	c10-2.9,20-5.8,29.8-9.1c16.1-5.4,32.1-11.2,48.2-17.1l0,0c6.4-2.3,12.9-4.7,19.3-7c16.3-5.8,31.6-13.5,45.6-23.5
	c14.2-10.1,28-20.4,41.2-31.6c1.4-1.2,2.8-2.4,4.2-3.6l0,0c5.3-4.5,10.7-9.2,16.6-13.3c4.4-3.1,8.9-6.3,13.3-9.5l0,0
	c8.5-6.1,17.2-12.3,25.9-18c0.9-0.6,1.9-1.3,3-2.1l0,0c0.4-0.3,0.8-0.6,1.2-0.9c1.6-1.1,3.4-2.4,5.3-3.5c3.7-2.1,8.5-4.1,13.6-2.8
	c9.6,2.4,13,11,13.7,18.7c0.6,7.8-1.3,16.4-3.8,21.8c-9.9,21.9-31.4,39.2-48.7,52.8c-20.6,16.1-41.2,30.3-64.5,42.4
	c-7.3,3.8-14.6,7.7-22,11.5l0,0l0,0c-22,11.6-44.1,23.2-66.4,34.2c-12.8,6.3-26.2,10.6-39.4,14.8l0,0c-4.4,1.4-8.8,2.8-13.1,4.3
	c-18.3,6.2-36.3,12.9-54.3,19.9c-14,5.4-28.3,9.2-42.4,12.8c-0.9,0.2-1.9,0.5-2.8,0.7c-13.2,3.4-26.3,6.7-39,11.2
	c-4.6,1.6-9.3,3.2-13.8,4.8l0,0c-12.4,4.2-24.6,8.4-36.4,13.7c-3.1,1.4-6.3,2.7-9.4,3.9l0,0c-1.3,0.5-2.7,1.1-3.9,1.6
	c-4.4,1.8-8.5,3.7-12.5,5.9c-1.4,0.8-2.9,1.7-4.3,2.5l0,0h0c-2.4,1.4-5,2.9-7.4,4.3c0,0-0.1,0.1-0.6,0.7l-0.1,0.1
	c-0.2,0.3-0.5,0.7-0.9,1c-0.3,0.4-0.8,0.8-1.4,1.2c-0.1,0.1-0.1,0.2-0.2,0.3c-0.3,0.5-0.7,1.2-1.2,2.2c-1,1.9-2.1,4.4-3,6.9
	c-1,2.5-1.8,5-2.3,6.9c-0.1,0.3-0.1,0.6-0.2,0.9c0,0,0,0,0.1,0c0.8,0.2,1.8,0.3,2.6,0.3c9.7,0.5,18.7-2.2,28.7-5.3
	c21.3-6.6,42.4-13.4,63.6-20.3l0,0c3.5-1.1,6.9-2.2,10.4-3.4c27.7-9,54.3-19,80.8-31c25.3-11.5,49.9-21.4,76.6-29.1
	c20.4-5.9,40.5-12.6,60.6-19.3l0,0c9-3,17.9-6,26.9-8.9c9-2.9,18.1-5.3,27.2-7.7c1.7-0.4,3.3-0.9,5-1.3c10.7-2.8,21.2-5.7,31.3-9.6
	c18.5-7.1,37.1-10.7,56.2-13.5c0.6-0.1,1.3-0.2,2-0.3l0,0l0,0c3-0.5,6.6-1,10.1-1.2C499.8,401.3,504.7,401.6,508.9,403.9z
	 M508.9,104.9V68c0-33.1-26.9-60-60-60h-38.2c1.5,0.6,3.2,1.7,3.8,4c5.9,22.1-0.4,39.4-9.9,57.2c-13.9,26-28.7,49.8-48.8,72.1
	c-31.8,35.2-68.3,63.4-108.5,88c-21.9,13.4-43.6,23.5-67.4,32.7c-25,9.7-49.2,20.7-73.2,32.8c-4.8,2.4-9.6,4.8-14.3,7.1
	c-12,5.9-23.9,11.8-35.4,18.5c-10.4,6.2-19.2,15.2-28,24.3c-3,3.2-6.5,7-9.4,11c-3,4.1-5.4,8.1-6.5,11.8c-0.3,1-1.3,4.9-1.8,8.4
	c-0.1,1-0.2,1.9-0.2,2.5c2.5-0.4,5.3-1.2,8.2-2.3c1.7-0.6,3.4-1.4,5.1-2.1l0.5-0.2c1.9-0.8,3.8-1.6,5.7-2.2
	c10.5-3.7,21.2-7.4,32.1-10.3c19.8-5.2,39.2-10.4,56.8-19.8c14.5-7.8,28.6-15.9,42.8-24c9.1-5.2,18.3-10.5,27.6-15.7
	c12.7-7.1,25.7-13.4,38.6-19.7c1.3-0.6,2.6-1.3,4-1.9c5.4-2.7,10.8-5.5,16.2-8.4c0.6-0.3,1.2-0.6,1.8-1c0.5-0.3,1-0.5,1.5-0.8
	c6.5-3.5,13.1-6.9,20-10c1.6-0.7,3.1-1.4,4.7-2.1l0,0c20-8.9,40.8-18.2,57-31.7c18-15,34.4-31.8,50.9-48.8l0,0
	c4.7-4.8,9.3-9.6,14.1-14.3c6-6.1,11.7-12.4,17.4-18.8l0,0c3.1-3.5,6.3-7.1,9.6-10.6c9.1-9.9,18.7-19.5,30-27.5
	c6.2-4.5,12.7-8.8,19.2-12.8c0.4-0.2,0.9-0.5,1.3-0.8l0,0c1.2-0.7,2.6-1.6,3.9-2.3c2-1.1,4.4-2.1,7-2.4c8.8-1,14.6,4.4,18.3,10
	C506.7,100.2,507.9,102.6,508.9,104.9z M403,8H290c1.3,0.6,2.4,1.5,3.3,2.9c1.3,2,1.5,4.4,1.1,6.7c-0.8,5.7-3.4,10.5-6.3,14.6
	c-1.9,2.7-4.1,5.4-6.1,7.9c-1,1.2-2,2.4-2.9,3.5c-2.9,3.7-5.6,7.5-8.4,11.3c-0.5,0.7-1.1,1.5-1.6,2.2c-3.3,4.6-6.8,9.3-10.5,13.7
	c-8.6,10.2-17.7,20.1-26.7,30l0,0l0,0c-5.1,5.6-10.2,11.2-15.1,16.8c-2.2,2.5-4.5,5-6.7,7.6l0,0c-13.7,15.6-28,31.8-44.3,45.2
	c-21.1,17.4-42.9,33.1-65.6,48.2c-24.6,16.4-48.5,33.2-71.3,51.5l-0.5,0.4l0,0c-2.6,2.1-5.8,4.6-8.5,7.4c-1.2,1.2-2.3,2.4-3.1,3.6
	c0.5-0.1,1-0.2,1.5-0.3c3.9-1,8-2.3,9.6-2.8l0,0c0.3-0.1,0.5-0.2,0.6-0.2c7.3-2.2,14.7-3.8,22-5.3h0h0c1.2-0.3,2.5-0.5,3.7-0.8
	c8.5-1.8,16.7-3.7,24.6-6.7c25-9.4,48.3-23.1,70.3-38.7c12.2-8.7,23.9-17.7,35.6-26.8l0,0c8-6.2,16.1-12.4,24.3-18.6
	c16.7-12.4,30-27.5,43.8-43.2l0,0l0,0c3.8-4.3,7.5-8.6,11.4-12.8c12.6-13.8,26.1-26.2,40.1-38.3c2.3-2,4.6-4,7-5.9v0
	c11.8-10,23.7-20.1,33-31.7c13.1-16.3,30.5-30.8,50.1-38.7c1.3-0.5,5-2,8.6-2.8C402.9,8,403,8,403,8z M278.1,8H68
	C34.9,8,8,34.9,8,68v5.5c0,0,0.1-0.1,0.1-0.1l0,0c0.2-0.2,0.4-0.4,0.7-0.6c0.5-0.5,1.2-1.1,1.9-1.5c4.2-2.8,8.3-6.3,12.1-10
	c3.9-3.8,7.5-7.9,11.3-12.2l0.6-0.6c3.5-4.1,7.2-8.3,11.1-12.2c1.9-1.8,3.8-3.6,5.6-5.2c0.3-0.2,0.5-0.5,0.8-0.7l0,0
	c1.6-1.4,3.1-2.8,4.6-4.2c2.7-2.6,5.8-4.4,8.5-5.9l0.5-0.3c2.6-1.5,4.7-2.7,6.6-4.3c1.6-1.4,3.6-2.9,5.8-4.1
	c2.2-1.2,4.9-2.2,7.8-2.2c1.1,0,2.4,0.3,3.6,1.2c1.2,0.9,1.8,2.1,2,3.1c0.5,1.9,0.1,3.9-0.3,5.4c-0.9,3.3-2.9,7.3-4.9,11.2
	c-4.2,7.7-9.6,15.8-10.7,17.2c-1.7,2.2-3.2,4.6-4.9,7.1c-0.3,0.5-0.6,0.9-0.9,1.4c-1.9,3-4.1,6.2-6.8,9.1
	c-5,5.4-10.3,10.6-15.6,15.6c-1.9,1.8-3.8,3.6-5.7,5.4c-6.8,6.4-13.5,12.7-19.8,19.6c-0.8,0.9-1.7,1.8-2.5,2.6h0
	c-0.2,0.2-0.3,0.3-0.4,0.4c-1,1-1.8,1.8-2.5,2.7c-1.4,1.7-2.1,3.2-2.2,4.8c0,0.5-0.1,1.2-0.1,1.7l0,0c0,0.2,0,0.5,0,0.7
	c0,0.8-0.1,1.6,0,2.2c0,0.5,0.1,0.8,0.1,1c1.2,0.5,2.8,0.7,5,0.5c2.4-0.2,5.1-0.9,8-1.9c5.7-1.9,11.4-4.9,14.9-6.8
	c13.6-7.5,26.6-18,39.2-28.1c1.3-1,2.5-2,3.7-3c10.2-8.1,20-16.8,29.9-25.5v0c1.1-0.9,2.1-1.8,3.2-2.8c4.7-4.2,9.6-8.3,14.4-12.3
	l0,0l0,0c2-1.7,4.1-3.4,6.1-5.2c1.8-1.5,3.4-3,5.2-4.6c1.2-1.1,2.3-2.1,3.6-3.3c3-2.7,6.3-5.4,9.8-7.7c10.3-6.6,21-10,32.3-12.8
	c1.9-0.5,4.1-0.6,6.1,0.5c2.1,1.2,2.9,3.1,3.3,4.6c0.3,1.4,0.3,3,0.3,4.1c0,0.6,0,1.2-0.1,1.7l0,0.1c0,0.6-0.1,1.1-0.1,1.6
	c-0.2,7.2-4.4,13.9-9,19.2c-4.7,5.4-10.4,10.1-14.5,13.4c-9.6,7.7-18.5,15.8-27.4,24c-6.2,5.6-12.4,11.3-19,16.9
	c-9.7,8.3-19.4,16.5-29.1,24.7l0,0c-13.6,11.5-27.2,23-40.7,34.8c-1.4,1.2-2.8,2.5-4.2,3.8h0c-2.7,2.5-5.6,5.1-8.5,7.4
	c-2.5,2-4.7,4.4-7,7c-0.4,0.4-0.8,0.9-1.2,1.4c-1.9,2.2-3.9,4.5-6.2,6.7c-3.9,3.8-6.2,7.4-8.8,11.6c-1.2,1.9-2.5,4-4.1,6.2
	c-1.1,1.5-2.1,3.1-3.2,4.7l0,0l0,0c-0.3,0.5-0.7,1-1,1.5c1.6-0.6,2.9-1.2,3.6-1.5c0.2-0.1,0.4-0.2,0.5-0.2c8-3.3,15.5-7.4,23.2-11.5
	l0,0c4.1-2.2,8.3-4.4,12.6-6.6c2.3-1.1,4.6-2.3,6.8-3.4h0c20.1-10.1,40-20,57.2-33.6c1.3-1,2.5-2,3.8-3c16.5-13,33-26,48.6-39.9
	C184.5,92.9,196,81,207.7,67.8c3.2-3.6,6.3-7.2,9.5-10.9v0c11.6-13.5,23.5-27.4,38.2-38.4c3.4-2.5,12.5-7.4,20.6-9.9
	C276.7,8.4,277.4,8.2,278.1,8z M8,82.9v26.3c0.6-1.1,1.4-2.2,2.1-3.1c1-1.2,2.1-2.3,3.1-3.3c0.2-0.2,0.3-0.3,0.5-0.5l0,0
	c0.8-0.8,1.5-1.5,2.2-2.2c6.5-7.2,13.4-13.7,20.3-20.2h0l0,0c1.8-1.7,3.7-3.5,5.5-5.2c5.2-5,10.4-10.1,15.3-15.3c2.1-2.3,4-5,5.9-8
	c0.3-0.4,0.6-0.9,0.8-1.3c1.6-2.5,3.4-5.3,5.4-7.8c0.7-0.9,5.9-8.6,10-16.1c1.7-3.2,3.1-6.1,3.9-8.4c-0.4,0.2-0.8,0.3-1.2,0.6
	c-1.5,0.8-3.1,2-4.4,3.1c-2.4,2.1-5.2,3.7-7.7,5.1c-0.2,0.1-0.4,0.2-0.6,0.3c-2.7,1.5-5,2.9-6.9,4.7c-1.6,1.5-3.3,3-4.8,4.4l0,0l0,0
	c-0.3,0.2-0.5,0.4-0.8,0.7c-1.8,1.6-3.6,3.2-5.3,4.9c-3.7,3.7-7.2,7.7-10.8,11.9l-0.5,0.6c-3.7,4.3-7.6,8.7-11.7,12.8
	c-4,3.9-8.4,7.7-13.2,10.9c-0.4,0.3-0.8,0.6-1.4,1.1v0c-0.4,0.3-0.8,0.7-1.3,1.2C11.5,81.1,9.9,82.3,8,82.9z M8,127v73.5
	c0.4-0.6,0.8-1.2,1.2-1.8h0c1.1-1.7,2.3-3.4,3.5-5.1c1.2-1.7,2.3-3.4,3.4-5.2c2.9-4.6,6-9.4,10.5-13.9c2-1.9,3.7-3.9,5.6-6.1l0,0
	c0.4-0.5,0.8-1,1.3-1.5c2.3-2.7,4.9-5.5,8-8c2.8-2.2,5.3-4.5,7.9-6.9l0,0c1.5-1.3,3-2.7,4.6-4.1c13.5-11.8,27.2-23.4,40.9-35h0
	c9.7-8.2,19.3-16.4,28.9-24.6c6.2-5.3,12.3-10.9,18.4-16.5v0c9.2-8.4,18.5-16.8,28.2-24.6c4.1-3.3,9.3-7.6,13.4-12.4
	c4.3-4.9,7-9.8,7.1-14.1c0-0.6,0-1.2,0.1-1.8l0-0.1c0-0.6,0.1-1.1,0.1-1.5c0-0.5,0-0.8,0-1.2c-10.9,2.7-20.5,5.9-29.7,11.7
	c-3,1.9-5.9,4.3-8.8,6.9c-1.1,1-2.2,2-3.4,3c-1.8,1.7-3.7,3.4-5.6,5c-2.1,1.8-4.1,3.5-6.2,5.2l0,0c-4.8,4.1-9.5,8.1-14.2,12.2
	c-1.1,0.9-2.1,1.8-3.2,2.8l0,0c-9.9,8.7-19.8,17.4-30.1,25.7c-1.3,1-2.5,2-3.8,3l0,0c-12.5,10-26,20.9-40.3,28.8
	c-3.6,2-9.8,5.2-16.2,7.4c-3.2,1.1-6.6,2-9.8,2.2c-3.2,0.3-6.7,0-9.7-1.5C9.3,128.2,8.6,127.6,8,127z M8,215.4v65.1
	c1.6-3,3.9-5.8,6.2-8.1c3.1-3.1,6.5-5.9,9.1-8h0c0.2-0.2,0.4-0.3,0.6-0.5c23.1-18.6,47.3-35.5,71.9-52c22.6-15,44.1-30.6,65-47.8
	c15.7-12.9,29.5-28.6,43.3-44.2v0c2.3-2.6,4.5-5.1,6.8-7.7c5.1-5.7,10.2-11.4,15.4-17c8.9-9.8,17.8-19.6,26.3-29.6
	c3.5-4.2,6.8-8.6,10.1-13.2c0.5-0.7,1-1.4,1.5-2.1l0,0v0c2.8-3.9,5.6-7.8,8.6-11.6c1.1-1.4,2.2-2.8,3.3-4.1c1.9-2.3,3.7-4.5,5.4-6.9
	c2.5-3.6,4.3-7.3,4.9-11.3c0.1-0.7,0.1-1.1,0-1.2c-0.1,0-0.2-0.1-0.3-0.1c-1.4-0.3-4.1,0-7.9,1.1c-7.3,2.2-15.6,6.7-18.1,8.6
	c-13.9,10.4-25.1,23.4-36.6,36.9c-3.3,3.8-6.5,7.6-9.9,11.4c-11.9,13.4-23.6,25.5-37,37.4c-15.7,14-32.5,27.2-48.9,40.1
	c-0.6,0.5-1.2,1-1.9,1.5c-0.6,0.5-1.3,1-1.9,1.5c-17.9,14.1-38.6,24.5-58.5,34.5h0c-2.3,1.2-4.6,2.3-6.9,3.4
	c-3.9,2-7.9,4.1-11.9,6.3c-7.9,4.3-16.1,8.7-24.4,12.1c-0.1,0-0.2,0.1-0.4,0.2c-1.3,0.6-5.2,2.2-8.7,3.5C11.3,214.4,9.5,215,8,215.4
	z M8,289.2v69.9c1.5-2.8,3.2-5.5,5.1-8c3.3-4.4,7-8.5,10.1-11.8c8.7-9,18.2-18.9,29.7-25.7c11.7-6.9,24-13,36.2-19
	c4.7-2.3,9.4-4.6,14-6.9c24.1-12.2,48.7-23.4,73.9-33.1c23.5-9.1,44.8-19,66.1-32.1c39.7-24.3,75.6-52,106.7-86.6
	c19.5-21.6,33.9-44.8,47.7-70.5c9-16.7,14.1-31.4,9.6-50c-0.6,0-1.5,0.1-2.5,0.4c-2.9,0.6-6.1,1.9-7.3,2.4
	c-18.1,7.3-34.4,20.8-46.8,36.3c-9.8,12.2-22.4,22.9-34.2,33c-2.3,1.9-4.5,3.9-6.8,5.8c-13.9,12-27.2,24.2-39.4,37.7
	c-3.7,4.1-7.4,8.3-11.1,12.4c-13.9,15.7-27.9,31.6-45.3,44.6c-8,5.9-16,12.1-24,18.3l0,0c-11.9,9.2-23.9,18.5-36.1,27.2
	c-22.3,15.9-46.2,29.9-72.1,39.6c-8.5,3.2-17.2,5.2-25.8,7.1c-1.3,0.3-2.5,0.5-3.8,0.8h0c-7.3,1.5-14.3,3-21.3,5.1
	c-0.1,0-0.2,0.1-0.4,0.1c-1.4,0.4-5.9,1.9-10.2,2.9c-2.4,0.6-5,1.1-7,1.3c-0.9,0.1-2.3,0.1-3.5-0.3C9.2,289.9,8.6,289.6,8,289.2z
	 M8,386.7v60.1c1.7-4.4,4.5-8.4,7.7-11.8c5.4-5.8,12.2-10.4,18.5-13.3c20.1-9.5,40.4-18,61.5-25.2c26.6-9,52.6-18.9,78.7-29.5
	c7.5-3,15.1-5.8,22.7-8.5l1.6-0.6c8.1-2.9,16.1-5.9,23.9-9.1c9.4-3.9,18.5-8.2,27.7-12.5v0c5.8-2.7,11.6-5.4,17.5-8.1
	c3.8-1.7,7.5-3.3,11.2-4.8c8.2-3.5,16.1-6.8,23.8-11.1c2.7-1.5,5.4-3.1,8.2-4.6l0,0c7.6-4.3,15.1-8.5,22.7-12.9
	c18.3-10.5,35.8-23.4,52.2-36.8c4.4-3.6,8.9-7.2,13.3-10.8c18-14.5,35.9-29,52.5-44.7c10.4-9.8,19.5-21,28.1-32.7
	c1.3-1.7,2.6-3.5,3.8-5.2v0c5.7-7.7,11.4-15.3,15.5-23.4c0.1-0.3,0.3-0.6,0.4-0.9l0,0c1.6-3.3,3.7-7.3,5.1-11.5
	c1.6-4.7,1.9-8.4,1-10.8c-0.5-1.1-0.9-2.2-1.4-3.4l0,0c-1.6-4-3.3-8.3-5.7-11.9c-3-4.6-6.3-7-10.7-6.5c-1.2,0.1-2.5,0.6-4.1,1.5
	c-1.1,0.6-2.1,1.2-3.1,1.9c-0.6,0.4-1.1,0.7-1.8,1.1c-6.4,3.9-12.7,8.1-18.8,12.4c-10.6,7.6-19.8,16.7-28.8,26.4
	c-3.1,3.3-6.2,6.8-9.3,10.3l0,0l0,0c-5.8,6.5-11.7,13.1-17.9,19.3c-4.6,4.7-9.2,9.4-13.8,14.1h0c-16.6,17-33.3,34.2-51.6,49.5
	c-17.1,14.3-38.9,24-58.7,32.8c-1.6,0.7-3.3,1.5-4.9,2.2c-6.6,2.9-13,6.3-19.5,9.7c-1.1,0.6-2.1,1.1-3.2,1.7
	c-5.4,2.9-10.9,5.8-16.5,8.5c-1.3,0.6-2.6,1.3-3.9,1.9c-12.9,6.3-25.8,12.6-38.2,19.5c-9.1,5.1-18.2,10.3-27.3,15.5h0l0,0
	c-14.3,8.2-28.7,16.4-43.2,24.2c-18.5,9.9-38.9,15.4-58.5,20.5c-10.6,2.8-21,6.3-31.5,10.1c-1.7,0.6-3.4,1.3-5.3,2.1l-0.5,0.2l0,0
	c-1.7,0.7-3.5,1.5-5.4,2.2c-4,1.5-8.5,2.9-13,3C8.7,386.8,8.3,386.7,8,386.7z M8,463.9v78.4c0.1-0.3,0.2-0.6,0.3-0.9
	c1-2.7,2.2-5.5,3.4-7.6c0.6-1.1,1.1-2.1,1.7-3c0.3-0.4,0.6-0.9,0.9-1.2c0.3-0.3,0.8-0.8,1.5-1.3c0,0,0,0,0,0c0,0,0,0,0,0
	c0.1-0.1,0.3-0.3,0.5-0.6l0.1-0.1c0.5-0.6,1.4-1.8,2.9-2.6c2.4-1.3,4.7-2.7,7.1-4.1l0,0c1.5-0.9,3-1.8,4.6-2.7
	c4.4-2.5,9-4.5,13.4-6.4c1.4-0.6,2.8-1.1,4.2-1.7c3-1.2,6-2.4,9-3.8c12.2-5.5,24.9-9.8,37.5-14.1l0,0c4.5-1.5,9-3.1,13.4-4.6
	c13.1-4.6,26.5-8.1,39.6-11.4c1-0.2,1.9-0.5,2.8-0.7c14.1-3.6,28-7.3,41.5-12.5c18.1-7,36.2-13.7,54.6-20c4.6-1.6,9.2-3,13.7-4.5
	c13-4.2,25.6-8.2,37.8-14.2c22.2-11,44.1-22.5,66.1-34.1c7.4-3.9,14.7-7.7,22.1-11.6c22.7-11.9,42.9-25.8,63.3-41.7
	c17.6-13.8,37.4-29.9,46.4-49.7c2-4.3,3.6-11.5,3.1-17.9c-0.5-6.4-2.9-10.4-7.6-11.6c-1.9-0.5-4.4,0.2-7.7,2c-1.5,0.9-3.1,1.9-4.6,3
	c-0.3,0.2-0.7,0.5-1.1,0.8c-1.2,0.8-2.3,1.7-3.4,2.4c-8.6,5.6-16.9,11.6-25.3,17.6l0,0c-4.5,3.3-9.1,6.5-13.7,9.7
	c-5.5,3.9-10.6,8.2-15.8,12.7h0l0,0c-1.5,1.2-2.9,2.5-4.4,3.8c-13.4,11.3-27.4,21.8-41.7,32c-14.7,10.5-30.6,18.4-47.5,24.5
	c-6.4,2.3-12.8,4.6-19.2,7c-16.1,5.8-32.2,11.7-48.4,17.2c-10,3.4-20.1,6.3-30.2,9.2c-1.3,0.4-2.7,0.8-4,1.1l-0.1,0l0,0
	c-8.7,2.5-17.3,4.9-25.9,7.7c-3.7,1.2-7.3,2.4-11,3.6h0c-11.4,3.7-23.1,7.5-35,10.2c-3.7,0.8-7.4,1.6-11.1,2.4
	c-15.3,3.2-30.4,6.4-44.4,12.5c-1,0.4-3,1.5-6.1,3.2c-1,0.6-2.2,1.2-3.4,1.9l0,0l0,0c-2.3,1.3-4.8,2.7-7.6,4.3
	c-8.5,4.7-19,10.3-29.3,14.9c-10.1,4.5-20.5,8.2-28.6,8.6c-4,0.2-8.1-0.3-11.3-2.7C9.8,466.4,8.8,465.2,8,463.9z M8,558.4V581
	c0,33.1,26.9,60,60,60h380.9c9.1,0,17.7-2,25.4-5.6c-1.3-0.3-2.7-0.5-4.1-0.8c-3.3-0.7-6.8-1.7-9.4-2.8c-1.2-0.6-2.7-1.3-3.7-2.4
	c-1.1-1.1-2.4-3.2-1.5-5.8c1.6-4.5,4.4-8.1,7.3-11.1c1.4-1.4,3-2.8,4.6-4.2c-1.3,0.5-2.5,1-3.8,1.6l0,0l0,0
	c-2.5,1.1-5.1,2.1-7.9,3.2c-15.6,5.9-32.7,9.7-48.9,12.6c-1,0.2-8.8,1-15.4,1c-3.2,0-6.7-0.1-9-0.8c-0.6-0.2-1.4-0.5-2.1-1
	c-0.7-0.5-1.8-1.5-2.1-3.1c-0.3-1.6,0.3-3,0.8-3.8c0.5-0.8,1.2-1.4,1.9-1.9c3.9-2.9,8.2-5.3,12.4-7.4c1.7-0.9,3.4-1.7,5.1-2.5h0
	c2.5-1.2,4.8-2.3,7.2-3.6c15.5-8.2,30.9-16.4,46.3-24.7c1.6-0.8,3.2-1.7,4.8-2.5l0,0c11.6-6.2,24.1-12.8,32.3-21.6
	c0.9-0.9,1.7-2.2,2.2-3.4c0.5-1.2,0.4-1.9,0.2-2.2c-0.7-1.5-2.4-2.7-5.3-3.4c-2.9-0.7-6.1-0.9-8.9-0.9c-7.3,0-14.7,1.8-22.2,4.2
	c-3.7,1.2-7.5,2.6-11.2,4l-0.4,0.2l0,0c-3.6,1.4-7.3,2.7-10.9,3.9c-20.2,6.7-39.9,13.7-59.5,21.8c-17.6,7.2-36.1,12.7-54.3,18.1l0,0
	h0c-8.8,2.6-17.5,5.2-26,7.9c-0.8,0.3-1.7,0.5-2.5,0.8c-1.1,0.4-2.2,0.7-3.3,1.1l0,0c-20.8,6.7-42,13.6-63.6,18.2
	c-14.8,3.1-30,4.7-45.1,4.9c-6.9,0.1-13.7,0.7-20.6,1.5c-0.5,0.1-1,0.1-1.5,0.2c-0.5,0.1-1.1,0.1-1.6,0.2c-5.9,0.6-11.9,1.3-18,1.6
	c-22.8,1.3-48.1,1.6-70.8-2.5c-2.3-0.4-4.4-1.5-5.8-3.3c-1.4-1.9-1.7-4-1.5-5.9c0.4-3.6,2.7-7,5.5-9c3.5-2.5,6.7-5.2,10.1-8
	c1.3-1.1,2.7-2.2,4-3.3c4.8-3.9,9.8-7.7,15.5-10.9c12.7-7.1,26.6-13.2,40.4-17.7c5.9-1.9,11.8-3.9,17.7-5.9l0,0
	c13.8-4.7,27.7-9.5,41.8-13.3c6.1-1.6,12.2-3.4,18.4-5.2l0,0c9.1-2.6,18.3-5.3,27.4-7.5c7.7-1.9,15.5-3.5,23.2-5.1h0
	c1-0.2,2-0.4,3-0.6c8.7-1.8,17.3-3.6,25.7-5.9c36.1-9.9,71.3-25.2,106-40.2l0,0c1.9-0.8,3.9-1.7,5.8-2.5c29-12.6,57.5-31.1,83-50.2
	c0.1-0.1,0.2-0.2,0.4-0.3h0c2.3-1.7,9.6-7.2,14.9-13c2.9-3.2,4.8-6,5.4-8.1c0.3-1,0.2-1.4,0.1-1.7c-0.1-0.2-0.3-0.7-1.4-1.3
	c-2.4-1.3-5.6-1.7-9.4-1.5c-3,0.1-6,0.6-9,1.1l0,0c-0.8,0.1-1.5,0.2-2.3,0.4c-18.9,2.8-36.8,6.3-54.5,13.1c-10.5,4-21.4,7-32.1,9.9
	c-1.7,0.4-3.4,0.9-5.1,1.3l0,0c-9,2.4-17.9,4.7-26.7,7.5c-8.9,2.9-17.8,5.9-26.7,8.8c-20.2,6.8-40.6,13.5-61.1,19.5
	c-26.3,7.6-50.5,17.3-75.5,28.7c-26.8,12.2-53.7,22.3-81.6,31.3c-3.5,1.1-6.9,2.2-10.4,3.4l0,0c-21.2,6.9-42.3,13.7-63.7,20.3
	c-9.9,3-20.1,6.2-31.4,5.6c-1-0.1-2.6-0.2-4.1-0.6C10.5,559.6,9.2,559.2,8,558.4z M286.6,15.3C286.6,15.3,286.6,15.3,286.6,15.3
	C286.6,15.3,286.6,15.3,286.6,15.3z M479.1,598.2C479.1,598.2,479.1,598.2,479.1,598.2L479.1,598.2z M66.1,621.7
	C66.1,621.7,66.1,621.7,66.1,621.7C66.1,621.7,66.1,621.7,66.1,621.7z M66.2,621.9C66.2,621.9,66.2,621.9,66.2,621.9
	C66.2,621.9,66.2,621.9,66.2,621.9z M20.4,534.8C20.4,534.9,20.4,534.9,20.4,534.8L20.4,534.8C20.4,534.9,20.4,534.8,20.4,534.8z
	 M11.1,380.1C11.1,380.1,11.1,380.1,11.1,380.1C11.1,380.1,11.1,380.1,11.1,380.1z"/>
</svg>
