<?xml version="1.0" encoding="utf-8"?>
<!-- Generator: Adobe Illustrator 28.1.0, SVG Export Plug-In . SVG Version: 6.00 Build 0)  -->
<svg version="1.1" id="Layer_1" xmlns="http://www.w3.org/2000/svg" xmlns:xlink="http://www.w3.org/1999/xlink" x="0px" y="0px"
	 viewBox="0 0 28 50" style="enable-background:new 0 0 28 50;" xml:space="preserve">
<style type="text/css">
	.st0{fill:#033B30;}
</style>
<path class="st0" d="M26.6,21.5L7.9,1.4C7,0.5,5.9,0,4.6,0C3.4,0,2.2,0.5,1.4,1.5C0.5,2.4,0,3.7,0,5c0,1.3,0.5,2.6,1.3,3.5L16.7,25
	L1.3,41.5C0.5,42.5,0,43.7,0,45c0,1.3,0.5,2.6,1.4,3.5c0.9,0.9,2,1.5,3.3,1.5c1.2,0,2.4-0.5,3.3-1.4l18.7-20
	c0.9-0.9,1.4-2.2,1.4-3.5C28,23.7,27.5,22.4,26.6,21.5z"/>
</svg>
