<?xml version="1.0" encoding="utf-8"?>
<!-- Generator: Adobe Illustrator 28.1.0, SVG Export Plug-In . SVG Version: 6.00 Build 0)  -->
<svg version="1.1" id="Layer_1" xmlns="http://www.w3.org/2000/svg" xmlns:xlink="http://www.w3.org/1999/xlink" x="0px" y="0px"
	 viewBox="0 0 331 143" style="enable-background:new 0 0 331 143;" xml:space="preserve">
<style type="text/css">
	.st0{fill:#033B30;}
</style>
<path class="st0" d="M294.6,142.4l-13.8-42.3c-0.7-2.1,0.5-4.4,2.6-5c2.1-0.7,4.4,0.5,5,2.6l9,27.5c11.9-54.7,5.9-90.6-17.8-106.7
	c-23.9-16.2-67.1-12.9-124.9,9.5c-44.9,17.4-99,46.6-148.4,80.3c-1.8,1.2-4.3,0.8-5.6-1.1c-1.2-1.8-0.8-4.3,1.1-5.6
	c49.9-34,104.5-63.5,150-81.1C213-3.3,257.5-6.1,284,11.9c26.5,18,33.7,56.3,21.4,113.9l19.5-12.9c1.8-1.2,4.3-0.7,5.5,1.1
	c1.2,1.8,0.7,4.3-1.1,5.5L294.6,142.4z"/>
</svg>
