<?xml version="1.0" encoding="utf-8"?>
<!-- Generator: Adobe Illustrator 28.1.0, SVG Export Plug-In . SVG Version: 6.00 Build 0)  -->
<svg version="1.1" id="Layer_1" xmlns="http://www.w3.org/2000/svg" xmlns:xlink="http://www.w3.org/1999/xlink" x="0px" y="0px"
	 viewBox="0 0 272 159" style="enable-background:new 0 0 272 159;" xml:space="preserve">
<style type="text/css">
	.st0{fill:#033B30;}
</style>
<path class="st0" d="M267.8,158.5c-0.1,0-0.3,0-0.4,0c-47.4-4.9-109.6-21.2-145.3-51.7c-7.7,2.8-16,4.2-24.8,4
	c-30.4-0.8-66.6-23-80.9-81.8L7.8,47.4c-0.9,2-3.3,2.9-5.3,1.9c-2-0.9-2.9-3.3-1.9-5.3L14.1,15c0,0,0,0,0,0c0.2-0.4,0.5-0.8,0.8-1.1
	c0,0,0,0,0,0c0,0,0,0,0,0c0,0,0.1-0.1,0.1-0.1c0.6-0.6,1.3-1,2.1-1.1c1.2-0.2,2.5,0.2,3.3,0.9l20.6,10.2c2,1,2.8,3.4,1.8,5.4
	c-1,2-3.4,2.8-5.4,1.8l-14.2-7c12.8,56.9,46.2,78.2,74.1,78.9c6.2,0.2,12.2-0.6,17.8-2.2c-3.1-3.1-5.9-6.4-8.4-9.8
	C94.5,74.1,90.2,55.2,94.2,34.7c4.5-23.2,17-30.6,24-32.9c10.1-3.3,21.3-0.5,30,7.5c13,12,17.7,32.4,12.4,54.8
	c-4.1,17.3-15.3,31.2-30.4,39.2c34.6,27.7,93.1,42.7,138,47.3c2.2,0.2,3.8,2.2,3.6,4.4C271.6,157,269.8,158.5,267.8,158.5z
	 M126.7,8.5c-2.1,0-4.1,0.3-6.1,1c-9.2,3-15.8,12.5-18.6,26.8c-3.5,18.2,0.3,35,11.3,49.9c3,4,6.4,7.8,10.3,11.5
	c14.5-6.7,25.4-19.4,29.2-35.3c4.6-19.5,0.8-37.1-10-47C138,10.8,132.3,8.5,126.7,8.5z"/>
</svg>
