<?xml version="1.0" encoding="utf-8"?>
<!-- Generator: Adobe Illustrator 28.1.0, SVG Export Plug-In . SVG Version: 6.00 Build 0)  -->
<svg version="1.1" id="Layer_1" xmlns="http://www.w3.org/2000/svg" xmlns:xlink="http://www.w3.org/1999/xlink" x="0px" y="0px"
	 viewBox="0 0 13.9 21" style="enable-background:new 0 0 13.9 21;" xml:space="preserve">
<style type="text/css">
	.st0{fill:#66003F;}
</style>
<path class="st0" d="M11.9,11.9c2.7-2.7,2.7-7.1,0-9.9C9.2-0.7,4.8-0.7,2,2c-2.7,2.7-2.7,7.1,0,9.9c1.2,1.2,2.6,1.8,4.1,2v2.3H4.5
	c-0.5,0-0.8,0.4-0.8,0.8c0,0.5,0.4,0.8,0.8,0.8h1.6v2.3C6.1,20.6,6.5,21,7,21c0.5,0,0.8-0.4,0.8-0.8v-2.3h1.6c0.5,0,0.8-0.4,0.8-0.8
	c0-0.5-0.4-0.8-0.8-0.8H7.8v-2.3C9.3,13.7,10.7,13.1,11.9,11.9z M3.2,10.7c-2.1-2.1-2.1-5.5,0-7.5c2.1-2.1,5.5-2.1,7.5,0
	c2.1,2.1,2.1,5.5,0,7.5C8.7,12.8,5.3,12.8,3.2,10.7z"/>
</svg>
