<?xml version="1.0" encoding="utf-8"?>
<!-- Generator: Adobe Illustrator 28.1.0, SVG Export Plug-In . SVG Version: 6.00 Build 0)  -->
<svg version="1.1" id="Layer_1" xmlns="http://www.w3.org/2000/svg" xmlns:xlink="http://www.w3.org/1999/xlink" x="0px" y="0px"
	 viewBox="0 0 512 512" style="enable-background:new 0 0 512 512;" xml:space="preserve">
<style type="text/css">
	.st0{fill:#314944;}
</style>
<g>
	<path class="st0" d="M141.5,226.9c0,0-0.5,1.7-1.4,4.4c4,2.4,10.1,5.2,17.6,5.2c11.2,0,20.1-6.2,20.9-6.8c8-6.4,17.9-9.9,28.1-9.9
		c6.7,0,11.8,1.5,14.6,2.5l-0.1-16.6c-0.1-6.5-4.2-12.2-10.4-14.2C182.3,182.3,151,197.5,141.5,226.9z"/>
	<path class="st0" d="M219.2,256.6c-2.3-3.5-6.1-5.9-10.3-6.6c-4.2-0.6-8.5,0.5-11.8,3.2c-0.3,0.3-33.1,26.6-71.6,4.3
		c-24.4-14.1-22-35.8-21.5-38.7c1.2-5.6-1-11.2-5.5-14.8c-4.5-3.5-10.8-4-15.9-1.4c-1.6,0.8-39.6,19.9-60.1,55.4
		c-9.4,16.3-14.9,31.6-18,43.4c-3.5,13.2-4.1,22-4.2,22.7c-0.3,5.7,2.5,11.1,7.5,13.9c0,0,3,1.7,8.4,4.8l-4.8,8.3
		c-4.1,7.2-1.7,16.4,5.5,20.5c8.2,4.7,17,0.5,20.5-5.5l4.8-8.3c6,3.5,12.6,7.3,19.7,11.4l199.9-53.7
		C248.4,298.5,234,279,219.2,256.6L219.2,256.6z"/>
	<path class="st0" d="M59,181.6c5.3-3.2,9.1-5.2,10.3-5.8c6.3-3.1,13.3-4.8,20.2-4.8c9.9,0,19.7,3.3,27.5,9.4c4,3.1,7.3,6.8,10,10.8
		c14.4-18.3,35.8-30.1,59.6-32.1L174.5,13.8C173.9,6,167.4,0,159.6,0H15C6.8,0,0,6.7,0,14.9c0,74.7,30.7,122.6,53.2,157.6
		C55.2,175.6,57.1,178.6,59,181.6L59,181.6z"/>
	<path class="st0" d="M326.3,388.5c-12-12.5-26.8-27.9-43.5-47.5L98.7,390.5c25.8,14.9,53.5,30.9,77.7,44.8l-4.8,8.3
		c-4.1,7.2-1.7,16.4,5.5,20.5c2.4,1.4,4.9,2,7.5,2c5.2,0,10.2-2.7,13-7.5l4.8-8.3c7,4.1,13.4,7.8,19,11c2.8,1.6,5.6,3.2,8.4,4.7
		l-4.9,8.5c-4.2,7.2-1.7,16.3,5.5,20.5c8.2,4.8,17,0.6,20.5-5.5l6.3-10.9c10.7,4.2,21.1,7.3,31.1,9.3l-0.9,1.6
		c-4.1,7.2-1.7,16.4,5.5,20.5c7.5,4.3,16.6,1.3,20.5-5.5l8.1-14.1c17.9-1.4,33.1-8,41-21.8c11.1-19.3,0.7-36-2.7-41.5
		C352.8,416.1,341.7,404.5,326.3,388.5L326.3,388.5z"/>
	<path class="st0" d="M509.6,101.7l-49.9,16.2l-19.4,59.8l30.8,42.4c25.2-23.3,41-56.6,41-93.5C512,118.1,511.2,109.8,509.6,101.7z"
		/>
	<path class="st0" d="M356.4,165.4h56.3l17.4-53.6l-45.6-33.1L339,111.8L356.4,165.4z"/>
	<path class="st0" d="M500.3,73.2C482,33.8,444.3,5.3,399.5,0v52.5l50.8,36.9L500.3,73.2z"/>
	<path class="st0" d="M369.5,52.5V0C324.8,5.3,287,33.8,268.8,73.2l49.9,16.2L369.5,52.5z"/>
	<path class="st0" d="M298,220.1l30.8-42.4l-19.4-59.8l-49.9-16.2c-1.6,8-2.4,16.4-2.4,24.9C257.1,163.5,272.9,196.8,298,220.1z"/>
	<path class="st0" d="M353.1,195.4l-30.8,42.4c18.4,10.4,39.7,16.3,62.3,16.3s43.8-5.9,62.3-16.3L416,195.4H353.1z"/>
</g>
</svg>
