<?xml version="1.0" encoding="utf-8"?>
<!-- Generator: Adobe Illustrator 28.1.0, SVG Export Plug-In . SVG Version: 6.00 Build 0)  -->
<svg version="1.1" id="Layer_1" xmlns="http://www.w3.org/2000/svg" xmlns:xlink="http://www.w3.org/1999/xlink" x="0px" y="0px"
	 viewBox="0 0 85 77" style="enable-background:new 0 0 85 77;" xml:space="preserve">
<style type="text/css">
	.st0{fill:#033B30;}
</style>
<path class="st0" d="M42.2,37c10.2,0,18.5-8.3,18.5-18.5C60.7,8.3,52.4,0,42.2,0C32,0,23.7,8.3,23.7,18.5C23.7,28.7,32,37,42.2,37z"
	/>
<path class="st0" d="M63.9,7c-0.3,0-0.5,0.1-0.7,0.1c1.8,3.4,2.9,7.3,2.9,11.4c0,6.6-2.7,12.6-7,16.9c1.5,0.5,3.1,0.9,4.8,0.9
	c8.1,0,14.6-6.5,14.6-14.6S72,7,63.9,7z"/>
<path class="st0" d="M42.2,37c10.2,0,18.5-8.3,18.5-18.5C60.7,8.3,52.4,0,42.2,0C32,0,23.7,8.3,23.7,18.5C23.7,28.7,32,37,42.2,37z"
	/>
<path class="st0" d="M10.9,57.6c0-6.1,2.2-11.8,5.8-16.3c-2.8-0.5-5.5-1.7-7.8-3.3c-5.3,2.7-9,8.2-9,14.6V55c0,1.7,1.2,3.2,2.9,3.6
	c2.4,0.5,5.1,0.9,8,1.2V57.6z"/>
<path class="st0" d="M18.3,18.5c0-4.1,1-8,2.9-11.4C21,7.1,20.7,7,20.5,7C12.4,7,5.8,13.6,5.8,21.6s6.5,14.6,14.6,14.6
	c1.7,0,3.3-0.3,4.8-0.9C21,31,18.3,25.1,18.3,18.5z"/>
<path class="st0" d="M71.1,44.9c5.1,0,9.8,2.1,13.2,5.4c-0.8-5.4-4.1-9.9-8.8-12.3c-2.3,1.6-4.9,2.7-7.8,3.3
	c0.9,1.2,1.8,2.4,2.5,3.7C70.5,45,70.8,44.9,71.1,44.9z"/>
<path class="st0" d="M52.3,63.7c0-8,5.1-14.9,12.2-17.6c-2.3-3.4-5.5-6.1-9.3-7.6c-3.7,2.4-8.2,3.9-13,3.9s-9.3-1.4-13-3.9
	C21.7,41.6,16.3,49,16.3,57.6v3c0,2.2,1.5,4.1,3.7,4.5c6.2,1.2,13.6,2.1,22.1,2.1c3.7,0,7.1-0.2,10.4-0.5
	C52.4,65.7,52.3,64.7,52.3,63.7z"/>
<path class="st0" d="M71.1,50.4c-7.4,0-13.3,6-13.3,13.3c0,7.4,6,13.3,13.3,13.3c7.4,0,13.3-6,13.3-13.3
	C84.4,56.3,78.4,50.4,71.1,50.4z M75.6,66.4h-1.9v1.8c0,1.5-1.2,2.7-2.7,2.7c-1.5,0-2.7-1.2-2.7-2.7v-1.8h-1.9
	c-1.5,0-2.7-1.2-2.7-2.7c0-1.5,1.2-2.7,2.7-2.7h1.9v-1.8c0-1.5,1.2-2.7,2.7-2.7c1.5,0,2.7,1.2,2.7,2.7V61h1.9c1.5,0,2.7,1.2,2.7,2.7
	C78.4,65.2,77.1,66.4,75.6,66.4z"/>
</svg>
