<?xml version="1.0" encoding="utf-8"?>
<!-- Generator: Adobe Illustrator 28.1.0, SVG Export Plug-In . SVG Version: 6.00 Build 0)  -->
<svg version="1.1" id="Layer_1" xmlns="http://www.w3.org/2000/svg" xmlns:xlink="http://www.w3.org/1999/xlink" x="0px" y="0px"
	 viewBox="0 0 82 82" style="enable-background:new 0 0 82 82;" xml:space="preserve">
<style type="text/css">
	.st0{fill-rule:evenodd;clip-rule:evenodd;fill:#033B30;}
</style>
<path class="st0" d="M78.5,27.8l-13.6,6c0.7,2.3,1,4.7,1,7.2c0,5.7-1.9,11-5.2,15.2c0.6,1,0.9,2.1,0.9,3.4c0,3.7-3,6.6-6.6,6.6
	c-1.9,0-3.5-0.8-4.8-2c-2.9,1.2-6,1.8-9.4,1.8c-10.7,0-19.9-6.8-23.4-16.3c-0.1,0-0.3,0-0.4,0c-0.9,0-1.8-0.4-2.4-1.1
	c0,0-2.1-2.5-3.4-4.8C10.5,42.4,10,40.9,10,40c0-3.9,3.2-7.1,7.1-7.1c0.1,0,0.2,0,0.2,0C20.7,23.1,30,16,41,16
	c1.2,0,2.4,0.1,3.6,0.3l4-14.3c-2.5-0.5-5-0.7-7.6-0.7C19,1.2,1.2,19,1.2,41C1.2,63,19,80.8,41,80.8C63,80.8,80.8,63,80.8,41
	C80.8,36.4,80,31.9,78.5,27.8z M55.1,56.1c1.9,0,3.5,1.6,3.5,3.5c0,1.9-1.6,3.5-3.5,3.5c-1.9,0-3.5-1.6-3.5-3.5
	C51.6,57.6,53.2,56.1,55.1,56.1z M62,35.1c0.5,1.9,0.8,3.8,0.8,5.9c0,4.8-1.6,9.3-4.2,12.9c-1-0.6-2.2-1-3.5-1c-3.7,0-6.6,3-6.6,6.6
	c0,0.6,0.1,1.3,0.3,1.9c-2.4,0.9-5,1.4-7.7,1.4c-9.7,0-17.9-6.3-20.8-15.1c0.7-0.9,1.9-2.5,2.7-3.9c0.8-1.4,1.3-2.9,1.3-3.9
	c0-2.7-1.5-5.1-3.8-6.3c3-8.5,11.1-14.5,20.6-14.5c0.9,0,1.9,0.1,2.8,0.2L39.1,36c-2,0.8-3.4,2.7-3.4,5c0,2.9,2.4,5.3,5.3,5.3
	c2.5,0,4.7-1.8,5.2-4.2L62,35.1z M17.1,46.5c0,0-3.9-4.6-3.9-6.6c0-2.2,1.8-3.9,3.9-3.9c2.2,0,3.9,1.8,3.9,3.9
	C21,41.9,17.1,46.5,17.1,46.5z M41,38.8c1.2,0,2.2,1,2.2,2.2c0,1.2-1,2.2-2.2,2.2c-1.2,0-2.2-1-2.2-2.2C38.8,39.8,39.8,38.8,41,38.8
	z M46.9,20c6.3,1.8,11.5,6.3,14.1,12.2l-15.1,6.7c-0.6-1.4-1.9-2.5-3.4-3L46.9,20z M51.7,2.7l-4,14.2c7.2,2,13.1,7.2,16.1,13.9
	l13.5-6C72.6,14.1,63.2,5.9,51.7,2.7z"/>
</svg>
