<?xml version="1.0" encoding="utf-8"?>
<!-- Generator: Adobe Illustrator 28.1.0, SVG Export Plug-In . SVG Version: 6.00 Build 0)  -->
<svg version="1.1" id="Layer_1" xmlns="http://www.w3.org/2000/svg" xmlns:xlink="http://www.w3.org/1999/xlink" x="0px" y="0px"
	 viewBox="0 0 17.6 20" style="enable-background:new 0 0 17.6 20;" xml:space="preserve">
<style type="text/css">
	.st0{fill:#C9C5BC;}
</style>
<g>
	<path class="st0" d="M8.8,0C5.3,0,2.3,2.8,2.3,6.4c0,1.4,0.4,2.6,1.2,3.8l4.7,7.4c0.2,0.4,0.8,0.4,1,0l4.8-7.4
		c0.8-1.1,1.2-2.4,1.2-3.7C15.2,2.9,12.3,0,8.8,0z M8.8,9.4c-1.6,0-2.9-1.3-2.9-2.9s1.3-2.9,2.9-2.9c1.6,0,2.9,1.3,2.9,2.9
		S10.4,9.4,8.8,9.4z"/>
	<path class="st0" d="M13.4,13.5l-3,4.6c-0.8,1.2-2.5,1.2-3.3,0l-3-4.6c-2.6,0.6-4.2,1.7-4.2,3C0,18.8,4.5,20,8.8,20
		c4.3,0,8.8-1.2,8.8-3.5C17.6,15.2,16,14.1,13.4,13.5z"/>
</g>
</svg>
