<?xml version="1.0" encoding="utf-8"?>
<!-- Generator: Adobe Illustrator 28.1.0, SVG Export Plug-In . SVG Version: 6.00 Build 0)  -->
<svg version="1.1" id="Layer_1" xmlns="http://www.w3.org/2000/svg" xmlns:xlink="http://www.w3.org/1999/xlink" x="0px" y="0px"
	 viewBox="0 0 20 17" style="enable-background:new 0 0 20 17;" xml:space="preserve">
<style type="text/css">
	.st0{fill:#A1A1A1;}
</style>
<path class="st0" d="M17.1,9.2h-1.5c0.2,0.4,0.2,0.9,0.2,1.4v5.8c0,0.2,0,0.4-0.1,0.6h2.6c1,0,1.7-0.8,1.7-1.7V12
	C20,10.5,18.7,9.2,17.1,9.2 M4.2,10.5c0-0.5,0.1-1,0.2-1.4H2.9C1.3,9.2,0,10.5,0,12v3.2c0,1,0.8,1.7,1.7,1.7h2.6
	c-0.1-0.2-0.1-0.4-0.1-0.6L4.2,10.5z M11.8,7.7H8.2c-1.6,0-2.9,1.3-2.9,2.9v5.8c0,0.3,0.3,0.6,0.6,0.6h8.2c0.3,0,0.6-0.3,0.6-0.6
	c0,0,0,0,0,0v-5.8C14.7,8.9,13.4,7.7,11.8,7.7 M10,0C8.1,0,6.5,1.6,6.5,3.5c0,1.9,1.6,3.5,3.5,3.5c0.6,0,1.2-0.2,1.7-0.4
	c1.1-0.6,1.8-1.8,1.8-3C13.5,1.6,11.9,0,10,0"/>
<path class="st0" d="M3.9,3.2c-1.4,0-2.6,1.2-2.6,2.6c0,1.4,1.2,2.6,2.6,2.6c0.3,0,0.7-0.1,1-0.2c0.5-0.2,1-0.6,1.3-1.2
	c0.7-1.3,0.2-2.8-1.1-3.5C4.7,3.3,4.3,3.2,3.9,3.2 M16.1,3.2c-1.4,0-2.6,1.2-2.6,2.6c0,0.4,0.1,0.8,0.3,1.2c0.3,0.5,0.7,0.9,1.3,1.2
	c1.3,0.6,2.8-0.1,3.4-1.4c0.1-0.3,0.2-0.7,0.2-1C18.7,4.4,17.5,3.2,16.1,3.2"/>
</svg>
