<?xml version="1.0" encoding="utf-8"?>
<!-- Generator: Adobe Illustrator 28.1.0, SVG Export Plug-In . SVG Version: 6.00 Build 0)  -->
<svg version="1.1" id="Layer_1" xmlns="http://www.w3.org/2000/svg" xmlns:xlink="http://www.w3.org/1999/xlink" x="0px" y="0px"
	 viewBox="0 0 29 21.1" style="enable-background:new 0 0 29 21.1;" xml:space="preserve">
<style type="text/css">
	.st0{fill:#033B30;}
</style>
<path class="st0" d="M28.6,9.6l-9.2-9.2C19.1,0.1,18.8,0,18.5,0c-0.3,0-0.7,0.1-0.9,0.4c-0.2,0.2-0.4,0.6-0.4,0.9
	c0,0.3,0.1,0.7,0.4,0.9l7,7H1.3C1,9.2,0.6,9.4,0.4,9.6C0.1,9.9,0,10.2,0,10.5c0,0.3,0.1,0.7,0.4,0.9c0.2,0.2,0.6,0.4,0.9,0.4h23.2
	l-7,7c-0.1,0.1-0.2,0.3-0.3,0.4c-0.1,0.2-0.1,0.3-0.1,0.5c0,0.2,0,0.3,0.1,0.5c0.1,0.2,0.2,0.3,0.3,0.4c0.1,0.1,0.3,0.2,0.4,0.3
	c0.2,0.1,0.3,0.1,0.5,0.1c0.2,0,0.3,0,0.5-0.1c0.2-0.1,0.3-0.2,0.4-0.3l9.2-9.2c0.2-0.2,0.4-0.6,0.4-0.9C29,10.2,28.9,9.9,28.6,9.6z
	"/>
</svg>
