<?xml version="1.0" encoding="utf-8"?>
<!-- Generator: Adobe Illustrator 28.1.0, SVG Export Plug-In . SVG Version: 6.00 Build 0)  -->
<svg version="1.1" id="Layer_1" xmlns="http://www.w3.org/2000/svg" xmlns:xlink="http://www.w3.org/1999/xlink" x="0px" y="0px"
	 viewBox="0 0 16 15.4" style="enable-background:new 0 0 16 15.4;" xml:space="preserve">
<style type="text/css">
	.st0{fill:#FFC107;}
</style>
<path class="st0" d="M16,5.8c-0.1-0.3-0.4-0.6-0.7-0.6l-4.6-0.4L8.8,0.6C8.6,0.2,8.3,0,8,0S7.4,0.2,7.2,0.5L5.4,4.8L0.8,5.3
	C0.4,5.3,0.1,5.5,0,5.8c-0.1,0.4,0,0.7,0.3,0.9l3.5,3.1l-1,4.5c-0.1,0.3,0.1,0.7,0.3,0.9c0.1,0.1,0.3,0.2,0.5,0.2
	c0.2,0,0.3,0,0.4-0.1l4-2.4l4,2.4c0.3,0.2,0.7,0.2,0.9,0c0.3-0.2,0.4-0.5,0.3-0.9l-1-4.5l3.5-3.2C16,6.5,16.1,6.2,16,5.8z"/>
</svg>
