<svg width="251" height="29" viewBox="0 0 251 29" fill="none" xmlns="http://www.w3.org/2000/svg">
<path d="M4 25L13.909 10.4348C17.6323 4.96182 25.9025 5.64265 28.6807 11.6508V11.6508C31.0695 16.8169 37.7561 18.231 42.0319 14.4744L47.5422 9.63323C52.325 5.43127 59.3411 4.9868 64.6159 8.55159L70.0333 12.2128C74.8146 15.4441 81.0258 15.646 86.0069 12.7318L93.2984 8.466C99.2805 4.96627 106.881 6.02045 111.685 11.0161L112.473 11.8357C117.966 17.548 126.955 18.0018 132.995 12.8719L134.946 11.2155C140.784 6.25734 149.42 6.49406 154.977 11.7646L157.824 14.4639C163.822 20.1519 173.48 19.4317 178.707 13.0284V13.0284C183.457 7.21023 192.042 6.10492 198.02 10.6516L203.192 14.5846C208.05 18.2793 215.096 16.2436 217.234 10.5273V10.5273C219.323 4.94622 226.12 2.84121 230.997 6.26517L247 17.5" stroke="#F5D31F" stroke-width="8" stroke-linecap="round"/>
</svg>
