<?xml version="1.0" encoding="utf-8"?>
<!-- Generator: Adobe Illustrator 28.1.0, SVG Export Plug-In . SVG Version: 6.00 Build 0)  -->
<svg version="1.1" id="Layer_1" xmlns="http://www.w3.org/2000/svg" xmlns:xlink="http://www.w3.org/1999/xlink" x="0px" y="0px"
	 viewBox="0 0 48 38.2" style="enable-background:new 0 0 48 38.2;" xml:space="preserve">
<style type="text/css">
	.st0{fill:#314944;}
</style>
<path class="st0" d="M33.8,25.5l-2.3-3.9c2.4,3.1,6.9,3.3,9.5,0.4c2.4-2.6,2.3-6.8-0.3-9.3c-2.5-2.5-6.6-2.4-8.9,0.3
	c-1.9,2.1-2.2,4.9-1.1,7.3L25.1,11l8.2-2.5c2.6-0.7,3.7-3.9,2.5-6.2c-0.9-1.8-2.9-2.6-4.8-2.1L18.6,3.9c-3.2,0.9-4.7,4.9-2.9,7.9
	l3.7,6.4l-6.7,4.3C20.8,22.5,26.6,25,33.8,25.5z"/>
<path class="st0" d="M1.7,29.7c18.1-5.4,25,5.5,45.1,0c0.7-0.2,1.2-1,1-1.8c-0.2-0.8-0.9-1.2-1.7-1c-19.3,5.2-26.1-5.6-45.1,0
	c-0.7,0.2-1.1,1-0.9,1.8C0.3,29.5,1,29.9,1.7,29.7z"/>
<path class="st0" d="M46.1,33.8c-19.4,5.3-26.1-5.6-45.1,0c-0.7,0.2-1.1,1-0.9,1.8c0.2,0.7,0.9,1.2,1.8,1c18.1-5.4,25,5.5,45.1,0
	c0.7-0.2,1.2-1,1-1.8C47.6,34,46.8,33.6,46.1,33.8z"/>
</svg>
