<?xml version="1.0" encoding="utf-8"?>
<!-- Generator: Adobe Illustrator 28.1.0, SVG Export Plug-In . SVG Version: 6.00 Build 0)  -->
<svg version="1.1" id="Layer_1" xmlns="http://www.w3.org/2000/svg" xmlns:xlink="http://www.w3.org/1999/xlink" x="0px" y="0px"
	 viewBox="0 0 46.5 46.4" style="enable-background:new 0 0 46.5 46.4;" xml:space="preserve">
<style type="text/css">
	.st0{fill:#314944;}
</style>
<path class="st0" d="M14.6,37.8c1.1-1.1,2.5-1.8,4-2.1l10.2-2c4.6-0.6,8.5-2.7,11.6-5.8c7.1-7.1,8-17.8,2-23.9c-6-6-16.7-5.1-23.9,2
	c-3.1,3.1-5.3,7.2-5.8,11.7l-2,10.2c-0.3,1.5-1,2.9-2.1,4L1,39.5c-1.4,1.4-1.4,3.7,0,5.2l0.8,0.8c1.4,1.4,3.7,1.4,5.2,0L14.6,37.8z
	 M30.6,19.9l-4,4l-4-4l4-4L30.6,19.9z M28.6,13.9l4-4l4,4l-4,4L28.6,13.9z M24.6,25.9l-3.7,3.7c-0.8-0.5-1.6-1-2.3-1.7
	c-0.7-0.7-1.2-1.4-1.7-2.3l3.7-3.7L24.6,25.9z M28.4,30.9c-1.6,0.2-3.2,0.1-4.6-0.2l2.8-2.8l2.9,2.9L28.4,30.9z M32.5,29.9l-4-4l4-4
	l4.9,4.9C36,28.1,34.3,29.1,32.5,29.9z M39.5,24.8l-4.9-4.9l4-4l4,4C41.8,21.6,40.8,23.3,39.5,24.8z M43.3,11.1
	c0.4,1.8,0.5,3.8,0.1,5.7l-2.9-2.9L43.3,11.1z M40.5,6c0.7,0.7,1.2,1.5,1.7,2.3L38.5,12l-4-4l3.7-3.7C39,4.7,39.8,5.3,40.5,6z
	 M35.4,3.2L32.5,6l-2.9-2.9C31.6,2.7,33.6,2.7,35.4,3.2z M26.6,4l4,4l-4,4l-5-5C23.2,5.7,24.8,4.7,26.6,4z M19.7,9l4.9,4.9l-4,4
	l-4-4C17.4,12.2,18.4,10.5,19.7,9z M15.6,18.1l0.2-1l2.9,2.9l-2.8,2.8C15.4,21.3,15.4,19.7,15.6,18.1z M13.6,28.4l0.4-2.3
	c0.7,1.4,1.5,2.7,2.6,3.8c1.1,1.1,2.4,2,3.8,2.6l-2.3,0.4c-1.6,0.3-3.1,1-4.4,2l-2.1-2.1C12.6,31.5,13.3,30,13.6,28.4z"/>
</svg>
