<?xml version="1.0" encoding="utf-8"?>
<svg xmlns="http://www.w3.org/2000/svg">
<symbol id="arrow-top-right" viewBox="0 0 94 94"><path d="M94 7.3v79.3c0 1.9-.8 3.8-2.2 5.2S88.6 94 86.6 94s-3.8-.8-5.2-2.2-2.2-3.2-2.2-5.2V25.1L12.5 91.8C11.2 93.2 9.3 94 7.3 94s-3.8-.8-5.2-2.2C.8 90.5 0 88.6 0 86.7s.8-3.8 2.2-5.2L69 14.7H7.3c-1.9 0-3.8-.8-5.2-2.2C.8 11.2 0 9.3 0 7.3s.8-3.8 2.2-5.2C3.5.8 5.4 0 7.3 0h79.3c1.9 0 3.8.8 5.2 2.2C93.2 3.5 94 5.4 94 7.3" style=""/>
</symbol>
<symbol id="burger" viewBox="0 0 512 512"><path d="M473.5 137h-435C17.2 137 0 119.8 0 98.5S17.2 60 38.5 60h435c21.3 0 38.5 17.2 38.5 38.5S494.8 137 473.5 137M473.5 294.5h-435C17.2 294.5 0 277.3 0 256s17.2-38.5 38.5-38.5h435c21.3 0 38.5 17.2 38.5 38.5s-17.2 38.5-38.5 38.5M473.5 452h-435C17.2 452 0 434.8 0 413.5S17.2 375 38.5 375h435c21.3 0 38.5 17.2 38.5 38.5S494.8 452 473.5 452"/>
</symbol>
<symbol id="card-doodles" viewBox="0 0 517 649"><path d="M68 0C30.4 0 0 30.4 0 68v513c0 37.6 30.4 68 68 68h380.9c14.2 0 27.4-4.4 38.3-11.8 1.1-.2 2.1-.9 2.7-1.9 16.4-12.4 27-32.1 27-54.2V68c0-37.6-30.4-68-68-68zm416.9 629c14.6-10.9 24-28.4 24-48V425.3l-1.8 2.1c-5.9 6.4-13.7 12.3-16 14l-.2.1c-.1.1-.2.1-.2.2-25.7 19.3-54.8 38.3-84.6 51.2-2 .9-4 1.7-6 2.6-34.6 15-70.3 30.5-106.9 40.5-8.7 2.4-17.5 4.2-26.2 6l-3 .6c-7.7 1.6-15.3 3.1-22.9 5-9.1 2.2-17.9 4.8-26.8 7.4-6.2 1.8-12.5 3.6-18.9 5.3-13.8 3.7-27.4 8.4-41.1 13-6 2-12 4.1-18.1 6.1-13.3 4.4-26.7 10.2-39 17.1-5.1 2.9-9.7 6.4-14.4 10.2-1.3 1-2.5 2.1-3.8 3.1-3.4 2.8-7 5.7-10.6 8.4-.6.4-1.2 1.1-1.6 1.7-.4.7-.6 1.3-.7 1.7v.2c.1.1.4.2.8.3 21.8 4 46.3 3.7 69 2.4 5.9-.3 11.7-1 17.6-1.6 1-.1 2.1-.2 3.1-.3 7-.7 14.1-1.4 21.4-1.5 14.6-.2 29.2-1.7 43.5-4.7 21.2-4.5 42-11.2 62.9-18l5.7-1.8c8.9-2.9 17.8-5.5 26.7-8.1 18-5.3 35.8-10.6 53-17.7 19.9-8.2 39.7-15.2 60-22 3.5-1.2 7.1-2.5 10.7-3.9l.4-.1c3.8-1.4 7.6-2.8 11.5-4.1 7.8-2.6 16.1-4.6 24.7-4.6 2.9 0 7 .1 10.9 1.1 3.8 1 8.2 3.1 10.5 7.6 1.5 3.1 1 6.3.1 8.6-.9 2.4-2.4 4.5-3.8 5.9-9.1 9.9-23 17.2-34.5 23.3-1.6.9-3.2 1.7-4.7 2.5-15.4 8.3-30.9 16.5-46.4 24.7-2.5 1.3-5.1 2.6-7.8 3.8-1.6.8-3.2 1.5-4.7 2.3-1.8.9-3.5 1.8-5.2 2.7 3 0 6.3-.2 8.9-.5 1.4-.1 2.6-.2 3.4-.3.4 0 .8-.1 1.1-.1h.3c15.9-2.8 32.5-6.6 47.4-12.2 2.2-.8 4.5-1.8 6.9-2.8 6.7-2.8 13.9-5.8 21.3-7.1.4-.1 1.2-.2 2.1 0 1.1.2 2.6 1 3.2 2.9.4 1.4 0 2.6-.2 3-.2.5-.5.9-.7 1.2-.8 1.1-2 2.3-3.1 3.3-1.2 1.1-2.4 2.2-3.5 3-.2.2-.4.4-.6.5l-.3.3-.3.3-.2.2-.2.2c-.1 0-.1.1-.1.1-.9.8-1.9 1.6-2.7 2.3-2 1.7-4 3.3-5.8 5.1-2 2-3.6 4-4.7 6.2.1 0 .1 0 .2.1 1.8.8 4.6 1.6 7.9 2.3 5 1.2 10.2 2 13.1 2.4m24-225.1V139.3c-.8 1.6-1.5 3.1-2.2 4.4-.2.3-.3.6-.4.9-4.4 8.9-10.6 17.1-16.4 24.8-1.2 1.7-2.5 3.3-3.7 4.9-8.7 11.8-18.2 23.5-29 33.8-16.9 15.9-35.1 30.7-53.1 45.2-4.4 3.6-8.8 7.1-13.2 10.7-16.6 13.6-34.5 26.8-53.3 37.6l-22.8 12.9c-2.7 1.5-5.4 3.1-8.1 4.6-8.1 4.6-16.7 8.2-25.1 11.8-3.6 1.5-7.1 3-10.6 4.6-5.7 2.5-11.4 5.2-17.1 7.9-9.3 4.4-18.8 8.8-28.3 12.8-8 3.4-16.2 6.3-24.3 9.3l-1.6.6c-7.6 2.7-15.1 5.5-22.4 8.4C151.2 385 125 394.9 98.2 404c-20.8 7.1-40.8 15.5-60.7 24.9-5.5 2.6-11.5 6.6-16 11.6-4.6 4.9-7.4 10.4-7.4 15.8 0 2.9.9 4.1 1.7 4.7 1 .7 2.9 1.3 6.1 1.1 6.5-.4 15.7-3.5 25.7-7.9 9.9-4.4 20.2-9.9 28.6-14.6 2.7-1.5 5.3-2.9 7.5-4.2 1.2-.7 2.4-1.3 3.4-1.9 2.9-1.6 5.4-3 6.8-3.6 14.8-6.4 30.9-9.8 46.3-13 3.6-.8 7.2-1.5 10.7-2.3 11.5-2.6 22.6-6.2 34-9.9 3.8-1.2 7.6-2.5 11.4-3.7 8.7-2.7 17.4-5.2 26.1-7.7 1.3-.4 2.7-.8 4-1.2 10-2.9 20-5.8 29.8-9.1 16.1-5.4 32.1-11.2 48.2-17.1 6.4-2.3 12.9-4.7 19.3-7 16.3-5.8 31.6-13.5 45.6-23.5 14.2-10.1 28-20.4 41.2-31.6l4.2-3.6c5.3-4.5 10.7-9.2 16.6-13.3 4.4-3.1 8.9-6.3 13.3-9.5 8.5-6.1 17.2-12.3 25.9-18q1.35-.9 3-2.1l1.2-.9c1.6-1.1 3.4-2.4 5.3-3.5 3.7-2.1 8.5-4.1 13.6-2.8 9.6 2.4 13 11 13.7 18.7.6 7.8-1.3 16.4-3.8 21.8-9.9 21.9-31.4 39.2-48.7 52.8-20.6 16.1-41.2 30.3-64.5 42.4-7.3 3.8-14.6 7.7-22 11.5-22 11.6-44.1 23.2-66.4 34.2-12.8 6.3-26.2 10.6-39.4 14.8-4.4 1.4-8.8 2.8-13.1 4.3-18.3 6.2-36.3 12.9-54.3 19.9-14 5.4-28.3 9.2-42.4 12.8-.9.2-1.9.5-2.8.7-13.2 3.4-26.3 6.7-39 11.2-4.6 1.6-9.3 3.2-13.8 4.8-12.4 4.2-24.6 8.4-36.4 13.7-3.1 1.4-6.3 2.7-9.4 3.9-1.3.5-2.7 1.1-3.9 1.6-4.4 1.8-8.5 3.7-12.5 5.9-1.4.8-2.9 1.7-4.3 2.5-2.4 1.4-5 2.9-7.4 4.3 0 0-.1.1-.6.7l-.1.1c-.2.3-.5.7-.9 1-.3.4-.8.8-1.4 1.2-.1.1-.1.2-.2.3-.3.5-.7 1.2-1.2 2.2-1 1.9-2.1 4.4-3 6.9-1 2.5-1.8 5-2.3 6.9-.1.3-.1.6-.2.9h.1c.8.2 1.8.3 2.6.3 9.7.5 18.7-2.2 28.7-5.3 21.3-6.6 42.4-13.4 63.6-20.3 3.5-1.1 6.9-2.2 10.4-3.4 27.7-9 54.3-19 80.8-31 25.3-11.5 49.9-21.4 76.6-29.1 20.4-5.9 40.5-12.6 60.6-19.3 9-3 17.9-6 26.9-8.9s18.1-5.3 27.2-7.7c1.7-.4 3.3-.9 5-1.3 10.7-2.8 21.2-5.7 31.3-9.6 18.5-7.1 37.1-10.7 56.2-13.5.6-.1 1.3-.2 2-.3 3-.5 6.6-1 10.1-1.2 4.4-.2 9.3.1 13.5 2.4m0-299V68c0-33.1-26.9-60-60-60h-38.2c1.5.6 3.2 1.7 3.8 4 5.9 22.1-.4 39.4-9.9 57.2-13.9 26-28.7 49.8-48.8 72.1-31.8 35.2-68.3 63.4-108.5 88-21.9 13.4-43.6 23.5-67.4 32.7-25 9.7-49.2 20.7-73.2 32.8-4.8 2.4-9.6 4.8-14.3 7.1-12 5.9-23.9 11.8-35.4 18.5-10.4 6.2-19.2 15.2-28 24.3-3 3.2-6.5 7-9.4 11-3 4.1-5.4 8.1-6.5 11.8-.3 1-1.3 4.9-1.8 8.4-.1 1-.2 1.9-.2 2.5 2.5-.4 5.3-1.2 8.2-2.3 1.7-.6 3.4-1.4 5.1-2.1l.5-.2c1.9-.8 3.8-1.6 5.7-2.2 10.5-3.7 21.2-7.4 32.1-10.3 19.8-5.2 39.2-10.4 56.8-19.8 14.5-7.8 28.6-15.9 42.8-24 9.1-5.2 18.3-10.5 27.6-15.7 12.7-7.1 25.7-13.4 38.6-19.7 1.3-.6 2.6-1.3 4-1.9q8.1-4.05 16.2-8.4c.6-.3 1.2-.6 1.8-1 .5-.3 1-.5 1.5-.8 6.5-3.5 13.1-6.9 20-10 1.6-.7 3.1-1.4 4.7-2.1 20-8.9 40.8-18.2 57-31.7 18-15 34.4-31.8 50.9-48.8 4.7-4.8 9.3-9.6 14.1-14.3 6-6.1 11.7-12.4 17.4-18.8 3.1-3.5 6.3-7.1 9.6-10.6 9.1-9.9 18.7-19.5 30-27.5 6.2-4.5 12.7-8.8 19.2-12.8.4-.2.9-.5 1.3-.8 1.2-.7 2.6-1.6 3.9-2.3 2-1.1 4.4-2.1 7-2.4 8.8-1 14.6 4.4 18.3 10 1.3 2.3 2.5 4.7 3.5 7M403 8H290c1.3.6 2.4 1.5 3.3 2.9 1.3 2 1.5 4.4 1.1 6.7-.8 5.7-3.4 10.5-6.3 14.6-1.9 2.7-4.1 5.4-6.1 7.9-1 1.2-2 2.4-2.9 3.5-2.9 3.7-5.6 7.5-8.4 11.3-.5.7-1.1 1.5-1.6 2.2-3.3 4.6-6.8 9.3-10.5 13.7-8.6 10.2-17.7 20.1-26.7 30-5.1 5.6-10.2 11.2-15.1 16.8-2.2 2.5-4.5 5-6.7 7.6-13.7 15.6-28 31.8-44.3 45.2-21.1 17.4-42.9 33.1-65.6 48.2-24.6 16.4-48.5 33.2-71.3 51.5l-.5.4c-2.6 2.1-5.8 4.6-8.5 7.4-1.2 1.2-2.3 2.4-3.1 3.6l1.5-.3c3.9-1 8-2.3 9.6-2.8.3-.1.5-.2.6-.2 7.3-2.2 14.7-3.8 22-5.3 1.2-.3 2.5-.5 3.7-.8 8.5-1.8 16.7-3.7 24.6-6.7 25-9.4 48.3-23.1 70.3-38.7 12.2-8.7 23.9-17.7 35.6-26.8q12-9.3 24.3-18.6c16.7-12.4 30-27.5 43.8-43.2 3.8-4.3 7.5-8.6 11.4-12.8 12.6-13.8 26.1-26.2 40.1-38.3 2.3-2 4.6-4 7-5.9 11.8-10 23.7-20.1 33-31.7 13.1-16.3 30.5-30.8 50.1-38.7 1.3-.5 5-2 8.6-2.8-.1.1 0 .1 0 .1M278.1 8H68C34.9 8 8 34.9 8 68v5.5l.1-.1c.2-.2.4-.4.7-.6.5-.5 1.2-1.1 1.9-1.5 4.2-2.8 8.3-6.3 12.1-10 3.9-3.8 7.5-7.9 11.3-12.2l.6-.6c3.5-4.1 7.2-8.3 11.1-12.2 1.9-1.8 3.8-3.6 5.6-5.2.3-.2.5-.5.8-.7 1.6-1.4 3.1-2.8 4.6-4.2 2.7-2.6 5.8-4.4 8.5-5.9l.5-.3c2.6-1.5 4.7-2.7 6.6-4.3 1.6-1.4 3.6-2.9 5.8-4.1s4.9-2.2 7.8-2.2c1.1 0 2.4.3 3.6 1.2s1.8 2.1 2 3.1c.5 1.9.1 3.9-.3 5.4-.9 3.3-2.9 7.3-4.9 11.2-4.2 7.7-9.6 15.8-10.7 17.2-1.7 2.2-3.2 4.6-4.9 7.1-.3.5-.6.9-.9 1.4-1.9 3-4.1 6.2-6.8 9.1-5 5.4-10.3 10.6-15.6 15.6l-5.7 5.4C35 92.5 28.3 98.8 22 105.7c-.8.9-1.7 1.8-2.5 2.6l-.4.4c-1 1-1.8 1.8-2.5 2.7-1.4 1.7-2.1 3.2-2.2 4.8 0 .5-.1 1.2-.1 1.7v.7c0 .8-.1 1.6 0 2.2 0 .5.1.8.1 1 1.2.5 2.8.7 5 .5 2.4-.2 5.1-.9 8-1.9 5.7-1.9 11.4-4.9 14.9-6.8 13.6-7.5 26.6-18 39.2-28.1 1.3-1 2.5-2 3.7-3 10.2-8.1 20-16.8 29.9-25.5 1.1-.9 2.1-1.8 3.2-2.8 4.7-4.2 9.6-8.3 14.4-12.3 2-1.7 4.1-3.4 6.1-5.2 1.8-1.5 3.4-3 5.2-4.6 1.2-1.1 2.3-2.1 3.6-3.3 3-2.7 6.3-5.4 9.8-7.7 10.3-6.6 21-10 32.3-12.8 1.9-.5 4.1-.6 6.1.5 2.1 1.2 2.9 3.1 3.3 4.6.3 1.4.3 3 .3 4.1 0 .6 0 1.2-.1 1.7v.1c0 .6-.1 1.1-.1 1.6-.2 7.2-4.4 13.9-9 19.2-4.7 5.4-10.4 10.1-14.5 13.4-9.6 7.7-18.5 15.8-27.4 24-6.2 5.6-12.4 11.3-19 16.9-9.7 8.3-19.4 16.5-29.1 24.7-13.6 11.5-27.2 23-40.7 34.8-1.4 1.2-2.8 2.5-4.2 3.8-2.7 2.5-5.6 5.1-8.5 7.4-2.5 2-4.7 4.4-7 7-.4.4-.8.9-1.2 1.4-1.9 2.2-3.9 4.5-6.2 6.7-3.9 3.8-6.2 7.4-8.8 11.6-1.2 1.9-2.5 4-4.1 6.2-1.1 1.5-2.1 3.1-3.2 4.7-.3.5-.7 1-1 1.5 1.6-.6 2.9-1.2 3.6-1.5.2-.1.4-.2.5-.2 8-3.3 15.5-7.4 23.2-11.5q6.15-3.3 12.6-6.6c2.3-1.1 4.6-2.3 6.8-3.4 20.1-10.1 40-20 57.2-33.6 1.3-1 2.5-2 3.8-3 16.5-13 33-26 48.6-39.9C184.5 92.9 196 81 207.7 67.8c3.2-3.6 6.3-7.2 9.5-10.9 11.6-13.5 23.5-27.4 38.2-38.4 3.4-2.5 12.5-7.4 20.6-9.9zM8 82.9v26.3c.6-1.1 1.4-2.2 2.1-3.1 1-1.2 2.1-2.3 3.1-3.3l.5-.5 2.2-2.2c6.5-7.2 13.4-13.7 20.3-20.2 1.8-1.7 3.7-3.5 5.5-5.2 5.2-5 10.4-10.1 15.3-15.3 2.1-2.3 4-5 5.9-8 .3-.4.6-.9.8-1.3 1.6-2.5 3.4-5.3 5.4-7.8.7-.9 5.9-8.6 10-16.1 1.7-3.2 3.1-6.1 3.9-8.4-.4.2-.8.3-1.2.6-1.5.8-3.1 2-4.4 3.1-2.4 2.1-5.2 3.7-7.7 5.1l-.6.3c-2.7 1.5-5 2.9-6.9 4.7-1.6 1.5-3.3 3-4.8 4.4-.3.2-.5.4-.8.7-1.8 1.6-3.6 3.2-5.3 4.9-3.7 3.7-7.2 7.7-10.8 11.9l-.5.6c-3.7 4.3-7.6 8.7-11.7 12.8-4 3.9-8.4 7.7-13.2 10.9-.4.3-.8.6-1.4 1.1-.4.3-.8.7-1.3 1.2-.9 1-2.5 2.2-4.4 2.8M8 127v73.5l1.2-1.8c1.1-1.7 2.3-3.4 3.5-5.1s2.3-3.4 3.4-5.2c2.9-4.6 6-9.4 10.5-13.9 2-1.9 3.7-3.9 5.6-6.1.4-.5.8-1 1.3-1.5 2.3-2.7 4.9-5.5 8-8 2.8-2.2 5.3-4.5 7.9-6.9 1.5-1.3 3-2.7 4.6-4.1 13.5-11.8 27.2-23.4 40.9-35 9.7-8.2 19.3-16.4 28.9-24.6 6.2-5.3 12.3-10.9 18.4-16.5 9.2-8.4 18.5-16.8 28.2-24.6 4.1-3.3 9.3-7.6 13.4-12.4 4.3-4.9 7-9.8 7.1-14.1 0-.6 0-1.2.1-1.8v-.1c0-.6.1-1.1.1-1.5v-1.2c-10.9 2.7-20.5 5.9-29.7 11.7-3 1.9-5.9 4.3-8.8 6.9-1.1 1-2.2 2-3.4 3-1.8 1.7-3.7 3.4-5.6 5-2.1 1.8-4.1 3.5-6.2 5.2-4.8 4.1-9.5 8.1-14.2 12.2-1.1.9-2.1 1.8-3.2 2.8-9.9 8.7-19.8 17.4-30.1 25.7-1.3 1-2.5 2-3.8 3-12.5 10-26 20.9-40.3 28.8-3.6 2-9.8 5.2-16.2 7.4-3.2 1.1-6.6 2-9.8 2.2-3.2.3-6.7 0-9.7-1.5-.8-.3-1.5-.9-2.1-1.5m0 88.4v65.1c1.6-3 3.9-5.8 6.2-8.1 3.1-3.1 6.5-5.9 9.1-8 .2-.2.4-.3.6-.5 23.1-18.6 47.3-35.5 71.9-52 22.6-15 44.1-30.6 65-47.8 15.7-12.9 29.5-28.6 43.3-44.2 2.3-2.6 4.5-5.1 6.8-7.7 5.1-5.7 10.2-11.4 15.4-17 8.9-9.8 17.8-19.6 26.3-29.6 3.5-4.2 6.8-8.6 10.1-13.2l1.5-2.1c2.8-3.9 5.6-7.8 8.6-11.6 1.1-1.4 2.2-2.8 3.3-4.1 1.9-2.3 3.7-4.5 5.4-6.9 2.5-3.6 4.3-7.3 4.9-11.3q.15-1.05 0-1.2c-.1 0-.2-.1-.3-.1-1.4-.3-4.1 0-7.9 1.1-7.3 2.2-15.6 6.7-18.1 8.6-13.9 10.4-25.1 23.4-36.6 36.9-3.3 3.8-6.5 7.6-9.9 11.4-11.9 13.4-23.6 25.5-37 37.4-15.7 14-32.5 27.2-48.9 40.1-.6.5-1.2 1-1.9 1.5-.6.5-1.3 1-1.9 1.5-17.9 14.1-38.6 24.5-58.5 34.5-2.3 1.2-4.6 2.3-6.9 3.4-3.9 2-7.9 4.1-11.9 6.3-7.9 4.3-16.1 8.7-24.4 12.1-.1 0-.2.1-.4.2-1.3.6-5.2 2.2-8.7 3.5-1.8.8-3.6 1.4-5.1 1.8m0 73.8v69.9c1.5-2.8 3.2-5.5 5.1-8 3.3-4.4 7-8.5 10.1-11.8 8.7-9 18.2-18.9 29.7-25.7 11.7-6.9 24-13 36.2-19 4.7-2.3 9.4-4.6 14-6.9 24.1-12.2 48.7-23.4 73.9-33.1 23.5-9.1 44.8-19 66.1-32.1 39.7-24.3 75.6-52 106.7-86.6 19.5-21.6 33.9-44.8 47.7-70.5 9-16.7 14.1-31.4 9.6-50-.6 0-1.5.1-2.5.4-2.9.6-6.1 1.9-7.3 2.4-18.1 7.3-34.4 20.8-46.8 36.3-9.8 12.2-22.4 22.9-34.2 33-2.3 1.9-4.5 3.9-6.8 5.8-13.9 12-27.2 24.2-39.4 37.7-3.7 4.1-7.4 8.3-11.1 12.4-13.9 15.7-27.9 31.6-45.3 44.6-8 5.9-16 12.1-24 18.3-11.9 9.2-23.9 18.5-36.1 27.2-22.3 15.9-46.2 29.9-72.1 39.6-8.5 3.2-17.2 5.2-25.8 7.1-1.3.3-2.5.5-3.8.8-7.3 1.5-14.3 3-21.3 5.1-.1 0-.2.1-.4.1-1.4.4-5.9 1.9-10.2 2.9-2.4.6-5 1.1-7 1.3-.9.1-2.3.1-3.5-.3-.3-.2-.9-.5-1.5-.9m0 97.5v60.1c1.7-4.4 4.5-8.4 7.7-11.8 5.4-5.8 12.2-10.4 18.5-13.3 20.1-9.5 40.4-18 61.5-25.2 26.6-9 52.6-18.9 78.7-29.5 7.5-3 15.1-5.8 22.7-8.5l1.6-.6c8.1-2.9 16.1-5.9 23.9-9.1 9.4-3.9 18.5-8.2 27.7-12.5 5.8-2.7 11.6-5.4 17.5-8.1 3.8-1.7 7.5-3.3 11.2-4.8 8.2-3.5 16.1-6.8 23.8-11.1 2.7-1.5 5.4-3.1 8.2-4.6 7.6-4.3 15.1-8.5 22.7-12.9 18.3-10.5 35.8-23.4 52.2-36.8 4.4-3.6 8.9-7.2 13.3-10.8 18-14.5 35.9-29 52.5-44.7 10.4-9.8 19.5-21 28.1-32.7 1.3-1.7 2.6-3.5 3.8-5.2 5.7-7.7 11.4-15.3 15.5-23.4.1-.3.3-.6.4-.9 1.6-3.3 3.7-7.3 5.1-11.5 1.6-4.7 1.9-8.4 1-10.8-.5-1.1-.9-2.2-1.4-3.4-1.6-4-3.3-8.3-5.7-11.9-3-4.6-6.3-7-10.7-6.5-1.2.1-2.5.6-4.1 1.5-1.1.6-2.1 1.2-3.1 1.9-.6.4-1.1.7-1.8 1.1-6.4 3.9-12.7 8.1-18.8 12.4-10.6 7.6-19.8 16.7-28.8 26.4-3.1 3.3-6.2 6.8-9.3 10.3-5.8 6.5-11.7 13.1-17.9 19.3l-13.8 14.1c-16.6 17-33.3 34.2-51.6 49.5-17.1 14.3-38.9 24-58.7 32.8-1.6.7-3.3 1.5-4.9 2.2-6.6 2.9-13 6.3-19.5 9.7-1.1.6-2.1 1.1-3.2 1.7-5.4 2.9-10.9 5.8-16.5 8.5-1.3.6-2.6 1.3-3.9 1.9-12.9 6.3-25.8 12.6-38.2 19.5-9.1 5.1-18.2 10.3-27.3 15.5-14.3 8.2-28.7 16.4-43.2 24.2-18.5 9.9-38.9 15.4-58.5 20.5-10.6 2.8-21 6.3-31.5 10.1-1.7.6-3.4 1.3-5.3 2.1l-.5.2c-1.7.7-3.5 1.5-5.4 2.2-4 1.5-8.5 2.9-13 3-.3 0-.7-.1-1-.1m0 77.2v78.4l.3-.9c1-2.7 2.2-5.5 3.4-7.6.6-1.1 1.1-2.1 1.7-3 .3-.4.6-.9.9-1.2s.8-.8 1.5-1.3c.1-.1.3-.3.5-.6l.1-.1c.5-.6 1.4-1.8 2.9-2.6 2.4-1.3 4.7-2.7 7.1-4.1 1.5-.9 3-1.8 4.6-2.7 4.4-2.5 9-4.5 13.4-6.4 1.4-.6 2.8-1.1 4.2-1.7 3-1.2 6-2.4 9-3.8 12.2-5.5 24.9-9.8 37.5-14.1 4.5-1.5 9-3.1 13.4-4.6 13.1-4.6 26.5-8.1 39.6-11.4 1-.2 1.9-.5 2.8-.7 14.1-3.6 28-7.3 41.5-12.5 18.1-7 36.2-13.7 54.6-20 4.6-1.6 9.2-3 13.7-4.5 13-4.2 25.6-8.2 37.8-14.2 22.2-11 44.1-22.5 66.1-34.1 7.4-3.9 14.7-7.7 22.1-11.6 22.7-11.9 42.9-25.8 63.3-41.7 17.6-13.8 37.4-29.9 46.4-49.7 2-4.3 3.6-11.5 3.1-17.9s-2.9-10.4-7.6-11.6c-1.9-.5-4.4.2-7.7 2-1.5.9-3.1 1.9-4.6 3-.3.2-.7.5-1.1.8-1.2.8-2.3 1.7-3.4 2.4-8.6 5.6-16.9 11.6-25.3 17.6-4.5 3.3-9.1 6.5-13.7 9.7-5.5 3.9-10.6 8.2-15.8 12.7-1.5 1.2-2.9 2.5-4.4 3.8-13.4 11.3-27.4 21.8-41.7 32-14.7 10.5-30.6 18.4-47.5 24.5-6.4 2.3-12.8 4.6-19.2 7-16.1 5.8-32.2 11.7-48.4 17.2-10 3.4-20.1 6.3-30.2 9.2-1.3.4-2.7.8-4 1.1h-.1c-8.7 2.5-17.3 4.9-25.9 7.7-3.7 1.2-7.3 2.4-11 3.6-11.4 3.7-23.1 7.5-35 10.2l-11.1 2.4c-15.3 3.2-30.4 6.4-44.4 12.5-1 .4-3 1.5-6.1 3.2-1 .6-2.2 1.2-3.4 1.9-2.3 1.3-4.8 2.7-7.6 4.3-8.5 4.7-19 10.3-29.3 14.9-10.1 4.5-20.5 8.2-28.6 8.6-4 .2-8.1-.3-11.3-2.7-1.3-.9-2.3-2.1-3.1-3.4m0 94.5V581c0 33.1 26.9 60 60 60h380.9c9.1 0 17.7-2 25.4-5.6-1.3-.3-2.7-.5-4.1-.8-3.3-.7-6.8-1.7-9.4-2.8-1.2-.6-2.7-1.3-3.7-2.4-1.1-1.1-2.4-3.2-1.5-5.8 1.6-4.5 4.4-8.1 7.3-11.1 1.4-1.4 3-2.8 4.6-4.2-1.3.5-2.5 1-3.8 1.6-2.5 1.1-5.1 2.1-7.9 3.2-15.6 5.9-32.7 9.7-48.9 12.6-1 .2-8.8 1-15.4 1-3.2 0-6.7-.1-9-.8-.6-.2-1.4-.5-2.1-1s-1.8-1.5-2.1-3.1.3-3 .8-3.8 1.2-1.4 1.9-1.9c3.9-2.9 8.2-5.3 12.4-7.4 1.7-.9 3.4-1.7 5.1-2.5 2.5-1.2 4.8-2.3 7.2-3.6 15.5-8.2 30.9-16.4 46.3-24.7 1.6-.8 3.2-1.7 4.8-2.5 11.6-6.2 24.1-12.8 32.3-21.6.9-.9 1.7-2.2 2.2-3.4s.4-1.9.2-2.2c-.7-1.5-2.4-2.7-5.3-3.4s-6.1-.9-8.9-.9c-7.3 0-14.7 1.8-22.2 4.2-3.7 1.2-7.5 2.6-11.2 4l-.4.2c-3.6 1.4-7.3 2.7-10.9 3.9-20.2 6.7-39.9 13.7-59.5 21.8-17.6 7.2-36.1 12.7-54.3 18.1-8.8 2.6-17.5 5.2-26 7.9-.8.3-1.7.5-2.5.8-1.1.4-2.2.7-3.3 1.1-20.8 6.7-42 13.6-63.6 18.2-14.8 3.1-30 4.7-45.1 4.9-6.9.1-13.7.7-20.6 1.5-.5.1-1 .1-1.5.2s-1.1.1-1.6.2c-5.9.6-11.9 1.3-18 1.6-22.8 1.3-48.1 1.6-70.8-2.5-2.3-.4-4.4-1.5-5.8-3.3-1.4-1.9-1.7-4-1.5-5.9.4-3.6 2.7-7 5.5-9 3.5-2.5 6.7-5.2 10.1-8 1.3-1.1 2.7-2.2 4-3.3 4.8-3.9 9.8-7.7 15.5-10.9 12.7-7.1 26.6-13.2 40.4-17.7 5.9-1.9 11.8-3.9 17.7-5.9 13.8-4.7 27.7-9.5 41.8-13.3 6.1-1.6 12.2-3.4 18.4-5.2 9.1-2.6 18.3-5.3 27.4-7.5 7.7-1.9 15.5-3.5 23.2-5.1l3-.6c8.7-1.8 17.3-3.6 25.7-5.9 36.1-9.9 71.3-25.2 106-40.2 1.9-.8 3.9-1.7 5.8-2.5 29-12.6 57.5-31.1 83-50.2.1-.1.2-.2.4-.3 2.3-1.7 9.6-7.2 14.9-13 2.9-3.2 4.8-6 5.4-8.1.3-1 .2-1.4.1-1.7-.1-.2-.3-.7-1.4-1.3-2.4-1.3-5.6-1.7-9.4-1.5-3 .1-6 .6-9 1.1-.8.1-1.5.2-2.3.4-18.9 2.8-36.8 6.3-54.5 13.1-10.5 4-21.4 7-32.1 9.9-1.7.4-3.4.9-5.1 1.3-9 2.4-17.9 4.7-26.7 7.5-8.9 2.9-17.8 5.9-26.7 8.8-20.2 6.8-40.6 13.5-61.1 19.5-26.3 7.6-50.5 17.3-75.5 28.7-26.8 12.2-53.7 22.3-81.6 31.3-3.5 1.1-6.9 2.2-10.4 3.4-21.2 6.9-42.3 13.7-63.7 20.3-9.9 3-20.1 6.2-31.4 5.6-1-.1-2.6-.2-4.1-.6-1.3-.3-2.6-.7-3.8-1.5m12.4-23.6q0 .15 0 0c0 .1 0 0 0 0m-9.3-154.7" style="fill-rule:evenodd;clip-rule:evenodd;;fill-opacity:.4"/>
</symbol>
<symbol id="chevron-left" viewBox="0 0 28 50"><path d="m1.4 28.5 18.7 20c.9.9 2.1 1.4 3.3 1.4s2.4-.5 3.3-1.5c.9-.9 1.4-2.2 1.4-3.5s-.5-2.6-1.3-3.5L11.3 25 26.7 8.5c.8-1 1.3-2.2 1.3-3.5s-.5-2.6-1.4-3.5-2-1.5-3.3-1.5c-1.2 0-2.4.5-3.3 1.4l-18.7 20C.5 22.4 0 23.7 0 25s.5 2.6 1.4 3.5" style=""/>
</symbol>
<symbol id="chevron-right" viewBox="0 0 28 50"><path d="M26.6 21.5 7.9 1.4C7 .5 5.9 0 4.6 0 3.4 0 2.2.5 1.4 1.5.5 2.4 0 3.7 0 5s.5 2.6 1.3 3.5L16.7 25 1.3 41.5C.5 42.5 0 43.7 0 45s.5 2.6 1.4 3.5 2 1.5 3.3 1.5c1.2 0 2.4-.5 3.3-1.4l18.7-20c.9-.9 1.4-2.2 1.4-3.5-.1-1.4-.6-2.7-1.5-3.6" style=""/>
</symbol>
<symbol id="distance" viewBox="0 0 20 20"><style>.st0{}</style><path d="M3.6 9.6c-2 0-3.6 1.6-3.6 3.6 0 1 .5 2.2 1.6 3.6.8 1 1.5 1.7 1.6 1.7l.4.5.4-.4s.8-.7 1.6-1.7c1.1-1.4 1.6-2.6 1.6-3.6 0-2-1.6-3.7-3.6-3.7m0 4.8c-.6 0-1.2-.5-1.2-1.2 0-.6.5-1.2 1.2-1.2s1.2.5 1.2 1.2-.6 1.2-1.2 1.2M16.4 1c-2 0-3.6 1.6-3.6 3.6 0 1 .5 2.2 1.6 3.6.8 1 1.6 1.8 1.6 1.8l.4.4.4-.4s.8-.7 1.6-1.7C19.5 6.9 20 5.7 20 4.6 20 2.7 18.4 1 16.4 1m0 4.8c-.6 0-1.2-.5-1.2-1.2 0-.6.5-1.2 1.2-1.2.6 0 1.2.5 1.2 1.2s-.6 1.2-1.2 1.2" class="st0"/><path d="M14.3 18.7H5.9v-1.2h8.3c.9 0 1.6-.7 1.6-1.6s-.7-1.6-1.6-1.6H11c-1.5 0-2.7-1.2-2.7-2.7C8.2 10.2 9.5 9 11 9h3.1v1.2H11c-.9 0-1.6.7-1.6 1.6s.7 1.6 1.6 1.6h3.3c1.5 0 2.7 1.2 2.7 2.7 0 1.4-1.2 2.6-2.7 2.6" class="st0"/>
</symbol>
<symbol id="doodle-arrow-bottom" viewBox="0 0 272 159"><path d="M267.8 158.5h-.4c-47.4-4.9-109.6-21.2-145.3-51.7-7.7 2.8-16 4.2-24.8 4-30.4-.8-66.6-23-80.9-81.8L7.8 47.4c-.9 2-3.3 2.9-5.3 1.9C.5 48.4-.4 46 .6 44l13.5-29c.2-.4.5-.8.8-1.1l.1-.1c.6-.6 1.3-1 2.1-1.1 1.2-.2 2.5.2 3.3.9L41 23.8c2 1 2.8 3.4 1.8 5.4S39.4 32 37.4 31l-14.2-7c12.8 56.9 46.2 78.2 74.1 78.9 6.2.2 12.2-.6 17.8-2.2-3.1-3.1-5.9-6.4-8.4-9.8-12.2-16.8-16.5-35.7-12.5-56.2 4.5-23.2 17-30.6 24-32.9 10.1-3.3 21.3-.5 30 7.5 13 12 17.7 32.4 12.4 54.8-4.1 17.3-15.3 31.2-30.4 39.2 34.6 27.7 93.1 42.7 138 47.3 2.2.2 3.8 2.2 3.6 4.4-.2 2-2 3.5-4 3.5M126.7 8.5c-2.1 0-4.1.3-6.1 1-9.2 3-15.8 12.5-18.6 26.8-3.5 18.2.3 35 11.3 49.9 3 4 6.4 7.8 10.3 11.5 14.5-6.7 25.4-19.4 29.2-35.3 4.6-19.5.8-37.1-10-47-4.8-4.6-10.5-6.9-16.1-6.9" style=""/>
</symbol>
<symbol id="doodle-arrow-top" viewBox="0 0 331 143"><path d="m294.6 142.4-13.8-42.3c-.7-2.1.5-4.4 2.6-5 2.1-.7 4.4.5 5 2.6l9 27.5c11.9-54.7 5.9-90.6-17.8-106.7C255.7 2.3 212.5 5.6 154.7 28c-44.9 17.4-99 46.6-148.4 80.3-1.8 1.2-4.3.8-5.6-1.1-1.2-1.8-.8-4.3 1.1-5.6 49.9-34 104.5-63.5 150-81.1C213-3.3 257.5-6.1 284 11.9s33.7 56.3 21.4 113.9l19.5-12.9c1.8-1.2 4.3-.7 5.5 1.1s.7 4.3-1.1 5.5z" style=""/>
</symbol>
<symbol id="female" viewBox="0 0 13.9 21"><path d="M11.9 11.9c2.7-2.7 2.7-7.1 0-9.9C9.2-.7 4.8-.7 2 2-.7 4.7-.7 9.1 2 11.9c1.2 1.2 2.6 1.8 4.1 2v2.3H4.5c-.5 0-.8.4-.8.8 0 .5.4.8.8.8h1.6v2.3c0 .5.4.9.9.9s.8-.4.8-.8v-2.3h1.6c.5 0 .8-.4.8-.8 0-.5-.4-.8-.8-.8H7.8V14c1.5-.3 2.9-.9 4.1-2.1m-8.7-1.2c-2.1-2.1-2.1-5.5 0-7.5 2.1-2.1 5.5-2.1 7.5 0 2.1 2.1 2.1 5.5 0 7.5-2 2.1-5.4 2.1-7.5 0" style=""/>
</symbol>
<symbol id="football" viewBox="0 0 512 512"><style>.st0{}</style><path d="M141.5 226.9s-.5 1.7-1.4 4.4c4 2.4 10.1 5.2 17.6 5.2 11.2 0 20.1-6.2 20.9-6.8 8-6.4 17.9-9.9 28.1-9.9 6.7 0 11.8 1.5 14.6 2.5l-.1-16.6c-.1-6.5-4.2-12.2-10.4-14.2-28.5-9.2-59.8 6-69.3 35.4" class="st0"/><path d="M219.2 256.6c-2.3-3.5-6.1-5.9-10.3-6.6-4.2-.6-8.5.5-11.8 3.2-.3.3-33.1 26.6-71.6 4.3-24.4-14.1-22-35.8-21.5-38.7 1.2-5.6-1-11.2-5.5-14.8-4.5-3.5-10.8-4-15.9-1.4-1.6.8-39.6 19.9-60.1 55.4-9.4 16.3-14.9 31.6-18 43.4C1 314.6.4 323.4.3 324.1c-.3 5.7 2.5 11.1 7.5 13.9 0 0 3 1.7 8.4 4.8l-4.8 8.3c-4.1 7.2-1.7 16.4 5.5 20.5 8.2 4.7 17 .5 20.5-5.5l4.8-8.3c6 3.5 12.6 7.3 19.7 11.4l199.9-53.7c-13.4-17-27.8-36.5-42.6-58.9M59 181.6c5.3-3.2 9.1-5.2 10.3-5.8 6.3-3.1 13.3-4.8 20.2-4.8 9.9 0 19.7 3.3 27.5 9.4 4 3.1 7.3 6.8 10 10.8 14.4-18.3 35.8-30.1 59.6-32.1L174.5 13.8C173.9 6 167.4 0 159.6 0H15C6.8 0 0 6.7 0 14.9c0 74.7 30.7 122.6 53.2 157.6 2 3.1 3.9 6.1 5.8 9.1M326.3 388.5c-12-12.5-26.8-27.9-43.5-47.5L98.7 390.5c25.8 14.9 53.5 30.9 77.7 44.8l-4.8 8.3c-4.1 7.2-1.7 16.4 5.5 20.5 2.4 1.4 4.9 2 7.5 2 5.2 0 10.2-2.7 13-7.5l4.8-8.3c7 4.1 13.4 7.8 19 11 2.8 1.6 5.6 3.2 8.4 4.7l-4.9 8.5c-4.2 7.2-1.7 16.3 5.5 20.5 8.2 4.8 17 .6 20.5-5.5l6.3-10.9c10.7 4.2 21.1 7.3 31.1 9.3l-.9 1.6c-4.1 7.2-1.7 16.4 5.5 20.5 7.5 4.3 16.6 1.3 20.5-5.5l8.1-14.1c17.9-1.4 33.1-8 41-21.8 11.1-19.3.7-36-2.7-41.5-7-11-18.1-22.6-33.5-38.6M509.6 101.7l-49.9 16.2-19.4 59.8 30.8 42.4c25.2-23.3 41-56.6 41-93.5-.1-8.5-.9-16.8-2.5-24.9M356.4 165.4h56.3l17.4-53.6-45.6-33.1-45.5 33.1zM500.3 73.2C482 33.8 444.3 5.3 399.5 0v52.5l50.8 36.9zM369.5 52.5V0C324.8 5.3 287 33.8 268.8 73.2l49.9 16.2zM298 220.1l30.8-42.4-19.4-59.8-49.9-16.2c-1.6 8-2.4 16.4-2.4 24.9 0 36.9 15.8 70.2 40.9 93.5M353.1 195.4l-30.8 42.4c18.4 10.4 39.7 16.3 62.3 16.3s43.8-5.9 62.3-16.3L416 195.4z" class="st0"/>
</symbol>
<symbol id="join-group" viewBox="0 0 85 77"><style>.st0{}</style><path d="M42.2 37c10.2 0 18.5-8.3 18.5-18.5S52.4 0 42.2 0 23.7 8.3 23.7 18.5 32 37 42.2 37M63.9 7c-.3 0-.5.1-.7.1 1.8 3.4 2.9 7.3 2.9 11.4 0 6.6-2.7 12.6-7 16.9 1.5.5 3.1.9 4.8.9 8.1 0 14.6-6.5 14.6-14.6S72 7 63.9 7" class="st0"/><path d="M42.2 37c10.2 0 18.5-8.3 18.5-18.5S52.4 0 42.2 0 23.7 8.3 23.7 18.5 32 37 42.2 37M10.9 57.6c0-6.1 2.2-11.8 5.8-16.3-2.8-.5-5.5-1.7-7.8-3.3-5.3 2.7-9 8.2-9 14.6V55c0 1.7 1.2 3.2 2.9 3.6 2.4.5 5.1.9 8 1.2v-2.2zM18.3 18.5c0-4.1 1-8 2.9-11.4-.2 0-.5-.1-.7-.1-8.1 0-14.7 6.6-14.7 14.6s6.5 14.6 14.6 14.6q2.55 0 4.8-.9C21 31 18.3 25.1 18.3 18.5M71.1 44.9c5.1 0 9.8 2.1 13.2 5.4-.8-5.4-4.1-9.9-8.8-12.3q-3.45 2.4-7.8 3.3c.9 1.2 1.8 2.4 2.5 3.7.3 0 .6-.1.9-.1M52.3 63.7c0-8 5.1-14.9 12.2-17.6-2.3-3.4-5.5-6.1-9.3-7.6-3.7 2.4-8.2 3.9-13 3.9s-9.3-1.4-13-3.9C21.7 41.6 16.3 49 16.3 57.6v3c0 2.2 1.5 4.1 3.7 4.5 6.2 1.2 13.6 2.1 22.1 2.1 3.7 0 7.1-.2 10.4-.5-.1-1-.2-2-.2-3M71.1 50.4c-7.4 0-13.3 6-13.3 13.3 0 7.4 6 13.3 13.3 13.3 7.4 0 13.3-6 13.3-13.3 0-7.4-6-13.3-13.3-13.3m4.5 16h-1.9v1.8c0 1.5-1.2 2.7-2.7 2.7s-2.7-1.2-2.7-2.7v-1.8h-1.9c-1.5 0-2.7-1.2-2.7-2.7s1.2-2.7 2.7-2.7h1.9v-1.8c0-1.5 1.2-2.7 2.7-2.7s2.7 1.2 2.7 2.7V61h1.9c1.5 0 2.7 1.2 2.7 2.7.1 1.5-1.2 2.7-2.7 2.7" class="st0"/>
</symbol>
<symbol id="location-detection" viewBox="0 0 82 82"><path d="m78.5 27.8-13.6 6c.7 2.3 1 4.7 1 7.2 0 5.7-1.9 11-5.2 15.2.6 1 .9 2.1.9 3.4 0 3.7-3 6.6-6.6 6.6-1.9 0-3.5-.8-4.8-2-2.9 1.2-6 1.8-9.4 1.8-10.7 0-19.9-6.8-23.4-16.3H17c-.9 0-1.8-.4-2.4-1.1 0 0-2.1-2.5-3.4-4.8-.7-1.4-1.2-2.9-1.2-3.8 0-3.9 3.2-7.1 7.1-7.1h.2C20.7 23.1 30 16 41 16q1.8 0 3.6.3l4-14.3c-2.5-.5-5-.7-7.6-.7C19 1.2 1.2 19 1.2 41S19 80.8 41 80.8 80.8 63 80.8 41c0-4.6-.8-9.1-2.3-13.2M55.1 56.1c1.9 0 3.5 1.6 3.5 3.5s-1.6 3.5-3.5 3.5-3.5-1.6-3.5-3.5c0-2 1.6-3.5 3.5-3.5m6.9-21c.5 1.9.8 3.8.8 5.9 0 4.8-1.6 9.3-4.2 12.9-1-.6-2.2-1-3.5-1-3.7 0-6.6 3-6.6 6.6 0 .6.1 1.3.3 1.9-2.4.9-5 1.4-7.7 1.4-9.7 0-17.9-6.3-20.8-15.1.7-.9 1.9-2.5 2.7-3.9s1.3-2.9 1.3-3.9c0-2.7-1.5-5.1-3.8-6.3 3-8.5 11.1-14.5 20.6-14.5.9 0 1.9.1 2.8.2L39.1 36c-2 .8-3.4 2.7-3.4 5 0 2.9 2.4 5.3 5.3 5.3 2.5 0 4.7-1.8 5.2-4.2zM17.1 46.5s-3.9-4.6-3.9-6.6c0-2.2 1.8-3.9 3.9-3.9 2.2 0 3.9 1.8 3.9 3.9 0 2-3.9 6.6-3.9 6.6M41 38.8c1.2 0 2.2 1 2.2 2.2s-1 2.2-2.2 2.2-2.2-1-2.2-2.2 1-2.2 2.2-2.2M46.9 20c6.3 1.8 11.5 6.3 14.1 12.2l-15.1 6.7c-.6-1.4-1.9-2.5-3.4-3zm4.8-17.3-4 14.2c7.2 2 13.1 7.2 16.1 13.9l13.5-6C72.6 14.1 63.2 5.9 51.7 2.7" style="fill-rule:evenodd;clip-rule:evenodd;"/>
</symbol>
<symbol id="location" viewBox="0 0 17.6 20"><style>.st0{}</style><path d="M8.8 0C5.3 0 2.3 2.8 2.3 6.4c0 1.4.4 2.6 1.2 3.8l4.7 7.4c.2.4.8.4 1 0l4.8-7.4c.8-1.1 1.2-2.4 1.2-3.7 0-3.6-2.9-6.5-6.4-6.5m0 9.4c-1.6 0-2.9-1.3-2.9-2.9s1.3-2.9 2.9-2.9 2.9 1.3 2.9 2.9-1.3 2.9-2.9 2.9" class="st0"/><path d="m13.4 13.5-3 4.6c-.8 1.2-2.5 1.2-3.3 0l-3-4.6c-2.6.6-4.2 1.7-4.2 3C0 18.8 4.5 20 8.8 20s8.8-1.2 8.8-3.5c0-1.3-1.6-2.4-4.2-3" class="st0"/>
</symbol>
<symbol id="logo" viewBox="0 0 2017.7 512"><path d="M1458.4 39.5c0-22.1 17.3-39.5 41.4-39.5 23.6 0 41.4 17.3 41.4 39.5S1523.4 79 1499.8 79c-24-.1-41.4-17.4-41.4-39.5m7.3 71.2h67.4v266.7h-67.4zM1606.7 166.1c-16.7 0-30.3-13.6-30.3-30.3v-25h30.3V97.2c0-65.5 37.1-95.8 112.2-93.9v40.1c0 8.7-6.4 16.2-15 17.3-21.2 2.7-28.8 14.2-28.8 38.9v11.1c25.8 0 46.7 20.9 46.7 46.7v8.7H1675v211.3h-68.4V166.1zM1953 110.7h58.9c4.2 0 7 4.2 5.4 8.1L1857 499.9c-.9 2.2-3 3.6-5.4 3.6h-58.9c-4.2 0-7-4.3-5.3-8.2l53.2-122.4c.6-1.4.6-3.1 0-4.5L1738 118.8c-1.6-3.8 1.2-8.1 5.4-8.1h62.8c2.4 0 4.6 1.5 5.5 3.8l62 167.8c1.9 5.1 9 5.1 10.9 0l62.9-167.8c.9-2.3 3-3.8 5.5-3.8M138.6 383.7C61 383.7 1.1 343.1 0 272.4h80.3c2.1 30 21.9 49.8 56.7 49.8 35.3 0 56.2-18.7 56.2-45.5 0-80.8-192.6-32.1-192.1-167.5C1.1 41.8 55.7 1.1 132.7 1.1c76.5 0 129 39.1 133.8 106.5h-82.4c-1.6-24.6-21.4-43.9-53.5-44.4-29.4-1.1-51.4 13.4-51.4 43.9 0 74.9 191.6 33.2 191.6 164.8 0 58.9-47.1 111.8-132.2 111.8M615.7 223.6c0-24.6 4-48.3 11.3-70.5-22.8-46.8-66.9-74.3-118.6-74.3-27.6 0-51 8.1-69.1 20-12.4 8.1-28.8-.3-28.8-15.1v-.1h-42.3c-7.9 106.9-21.7 198.6-40 270.1s-40.9 122.8-66.1 148.7c15 8.5 31.7 11.2 47.5 8.9 27.6-4.1 50-24.3 59.1-50.7L405 354.2c2.4-7 11.3-9.1 16.6-3.9 19.3 19 48.5 34.6 86.9 34.6 54.1 0 99.7-31.1 121.5-82.4-9.3-24.7-14.3-51.2-14.3-78.9M488.6 319c-40.2 0-78.1-31-78.1-87.2s38-87.2 78.1-87.2c40.6 0 78.6 30 78.6 86.2 0 56.1-38 88.2-78.6 88.2M1114.6 129.6v-46h-74.9v31.1c17.9 32.3 28 69.5 28 109s-10.2 76.6-28 109V380h74.9V232.3c0-57.2 26.8-74.4 71.2-74.4h19.8V79.2c-41.2 0-72.3 19.9-91 50.4M1267.6 145.1h-35.3V83.5h35.3V10.2h75.5v73.3h66.4V145h-66.4v143.4c0 19.8 8 28.4 31.6 28.4 19.2 0 34.8 15.6 34.8 34.8V380h-47.1c-56.7 0-94.7-24.1-94.7-92V145.1z"/><path d="M855 427.1c-122.9 7.9-224.7-93.9-216.8-216.8 6.5-101.6 88.6-183.7 190.2-190.2 122.9-7.9 224.7 93.9 216.8 216.8-6.5 101.6-88.6 183.7-190.2 190.2m1.3-362.6c-99.5-8.9-182.6 74.2-173.7 173.7 6.8 76.3 68.2 137.7 144.5 144.5 99.5 8.9 182.6-74.2 173.7-173.7-6.8-76.3-68.2-137.7-144.5-144.5"/><path d="M946.3 377.4c-29.9-45.7-45.8-98.9-45.8-153.8s15.8-108.1 45.8-153.8l22.2 14.5c-27.1 41.4-41.4 89.5-41.4 139.3 0 49.7 14.3 97.9 41.4 139.3zM737.1 377.4 715 362.9c27.1-41.4 41.4-89.5 41.4-139.3 0-49.7-14.3-97.9-41.4-139.3l22.2-14.5c29.9 45.7 45.8 98.9 45.8 153.8-.1 54.9-15.9 108.1-45.9 153.8"/>
</symbol>
<symbol id="participants" viewBox="0 0 20 17"><style>.st0{}</style><path d="M17.1 9.2h-1.5c.2.4.2.9.2 1.4v5.8c0 .2 0 .4-.1.6h2.6c1 0 1.7-.8 1.7-1.7V12c0-1.5-1.3-2.8-2.9-2.8M4.2 10.5c0-.5.1-1 .2-1.4H2.9C1.3 9.2 0 10.5 0 12v3.2c0 1 .8 1.7 1.7 1.7h2.6c-.1-.2-.1-.4-.1-.6zm7.6-2.8H8.2c-1.6 0-2.9 1.3-2.9 2.9v5.8c0 .3.3.6.6.6h8.2c.3 0 .6-.3.6-.6v-5.8c0-1.7-1.3-2.9-2.9-2.9M10 0C8.1 0 6.5 1.6 6.5 3.5S8.1 7 10 7c.6 0 1.2-.2 1.7-.4 1.1-.6 1.8-1.8 1.8-3 0-2-1.6-3.6-3.5-3.6M3.9 3.2c-1.4 0-2.6 1.2-2.6 2.6s1.2 2.6 2.6 2.6c.3 0 .7-.1 1-.2.5-.2 1-.6 1.3-1.2.7-1.3.2-2.8-1.1-3.5q-.6-.3-1.2-.3m12.2 0c-1.4 0-2.6 1.2-2.6 2.6q0 .6.3 1.2c.3.5.7.9 1.3 1.2 1.3.6 2.8-.1 3.4-1.4.1-.3.2-.7.2-1 0-1.4-1.2-2.6-2.6-2.6" class="st0"/>
</symbol>
<symbol id="right-arrow" viewBox="0 0 29 21.1"><path d="M28.6 9.6 19.4.4c-.3-.3-.6-.4-.9-.4s-.7.1-.9.4c-.2.2-.4.6-.4.9s.1.7.4.9l7 7H1.3c-.3 0-.7.2-.9.4-.3.3-.4.6-.4.9s.1.7.4.9c.2.2.6.4.9.4h23.2l-7 7c-.1.1-.2.3-.3.4-.1.2-.1.3-.1.5s0 .3.1.5.2.3.3.4.3.2.4.3c.2.1.3.1.5.1s.3 0 .5-.1.3-.2.4-.3l9.2-9.2c.2-.2.4-.6.4-.9q.15-.45-.3-.9" style=""/>
</symbol>
<symbol id="sports" viewBox="0 0 96 80"><style>.st0{}</style><path d="m20.4 21.9-9.8 4.6 1.2 9.9 10.7 1.8 5-8.8zM34.3 9.2l.9-1.4C32 6.6 28.5 6.1 25.1 6.3q-2.85.15-5.7.9l4.9 2.6zM38.8 26.8l2.9-7.8-7.2-7.6-9.4.6-3.1 8.2 7.3 7.8zM6.8 70.2l.9.6c.3-.7.5-1.5.7-2.2l-1.2-.3.5-2.2.9.2V66c0-.4 0-.9-.1-1.3l-.8.2-.5-2.2.9-.2c-.2-.6-.4-1.1-.6-1.7l-.7.5-1.3-1.9.8-.5c-.4-.6-.9-1.1-1.3-1.6-2.3 2.3-3.6 5.4-3.6 8.7s1.3 6.4 3.7 8.7c.6-.6 1.1-1.2 1.6-1.9l-1-.7zM13.5 51.6c1 0 1.9.1 2.9.3v-4.1c-1.4 1.2-2.6 2.5-3.5 3.9.1-.1.4-.1.6-.1M8.7 51l-2.2-6.5-3.6-1.7c1.4 3.1 3.3 5.9 5.8 8.2M9.2 37.4c.1-.2.2-.3.3-.4L8.3 26.5l-6.2-3.2C.6 27.5.1 32.1.9 36.7c.2 1 .4 2.1.7 3.1l5.2 2.4zM19.8 19.6l3.1-8.1-6.2-3.3c-4 1.7-7.6 4.3-10.4 7.8C5 17.7 3.9 19.4 3 21.3l6.4 3.3zM11.2 38.6l-2.6 5.2 2.3 6.6c1.5-2.1 3.5-4.1 5.9-6q2.7-2.1 5.7-3.6l-.2-.3zM74.1 32.1c5.3-6.1 12.7-9.9 20.7-10.5-1.4-5.7-4.5-10.9-8.9-14.7L69 28zM67.2 26.6 84.1 5.5C79.2 1.9 73.3 0 67.3 0c1 7.8-1 15.8-5.7 22.1z" class="st0"/><path d="m75.9 33.5 14.2 11.4c4.4-6.1 6.3-13.6 5.1-21-7.4.4-14.4 3.9-19.3 9.6M22.7 54.9c.3.3.6.5.8.7.6.5 1.1 1.1 1.5 1.7V42c-2.3 1.1-4.5 2.4-6.4 3.8v6.6c1.5.7 2.9 1.5 4.1 2.5M17.8 74.9 16.5 73l1-.7c-.5-1-.9-2.1-1.1-3.2l-1 .2-.5-2.2 1.2-.3v-.9c0-.7 0-1.3.1-1.9l-1.3-.3.5-2.2 1.3.3c.3-.9.6-1.8 1.1-2.6l-1.2-.8 1.3-1.9 1.1.8c.4-.5.8-1 1.3-1.5-2-1.3-4.3-2.1-6.8-2.1-2.4 0-4.8.7-6.8 2.1.5.5 1 1.1 1.5 1.7l1.5-1 1.3 1.9-1.6 1.1q.6 1.2.9 2.4l1.8-.4.5 2.2-1.8.4c.1.6.1 1.2.1 1.8v.8l1.7.4-.5 2.2-1.5-.4c-.2 1-.6 2-1 3l1.4.9-1.3 1.9-1.2-.8c-.5.7-1.1 1.4-1.7 2.1 2 1.3 4.4 2.1 6.7 2 2.5 0 4.8-.7 6.8-2.1q-.9-.9-1.5-1.8zM65.1.1C57.8.7 51 4.2 46.2 9.7l13.8 11c4.2-5.9 6.1-13.3 5.1-20.6M49.5 20.3c-1.7-3.2-4-6.1-6.9-8.4-1.6-1.3-3.3-2.3-5.2-3.2l-1 1.5 7.3 7.7zM70.8 56.7c.2-.2.4-.3.7-.5-.7-3.3-3.8-7.2-8.2-10.4v23.7c.8-.6 1.6-1.2 2.3-1.9.1-4.3 2-8.2 5.2-10.9M79.5 74c-2.3 0-4.6-1-6.1-2.6-1.2-1.3-1.7-2.9-1.6-4.6.1-.6.2-1.4.4-2.3.3-1.9.8-4.6.6-6.5-.2.2-.4.3-.6.5-2.8 2.3-4.4 5.7-4.4 9.4 0 3.6 1.6 7 4.4 9.4 2.2 1.8 5 2.8 7.8 2.8 3.2 0 6.2-1.2 8.5-3.4 2.4-2.3 3.7-5.4 3.7-8.7s-1.3-6.5-3.7-8.8c-.5-.4-.9-.8-1.5-1.2-.2 1.9.3 4.6.7 6.6.2.9.3 1.7.4 2.4.2 1.6-.3 3.2-1.5 4.5C85.3 73 83 74 80.7 74zM72.7 33.8l-5.1-4.1L59 40.5c1.3.7 2.5 1.4 3.7 2.1 1.7 1.1 3.2 2.2 4.5 3.5.9-4.4 2.8-8.6 5.5-12.3M54.6 74.1c2.3-.9 4.4-1.9 6.4-3.2V44.2c-2-1.2-4.2-2.3-6.4-3.2z" class="st0"/><path d="M25.1 62.2c-.6-1.8-1.6-3.5-3-4.8-.4.4-.8.9-1.2 1.3l1.2.8-1.3 1.9-1.1-.7c-.3.6-.5 1.2-.7 1.8l1.4.3-.5 2.2-1.4-.3c0 .5-.1.9-.1 1.4v.4l1.4-.3.5 2.2-1.7.4c.2.8.5 1.6.8 2.4l1.3-.9 1.3 1.9-1.4 1c.4.6.9 1.2 1.4 1.7 2.4-2.3 3.6-5.4 3.7-8.7 0-1.2-.2-2.4-.5-3.6-.1-.2-.1-.3-.1-.4M75 56.7c.5 2.3-.1 5.5-.5 8.1-.2.9-.3 1.6-.3 2.2-.1 1.2.5 2.2 1 2.8 1 1.1 2.7 1.9 4.3 1.9h1.2c1.7 0 3.4-.7 4.4-1.9.5-.6 1.1-1.5.9-2.7-.1-.6-.2-1.3-.4-2.2-.6-2.7-1.2-5.9-.6-8.3-1.5-.7-3.2-1-4.9-1-1.8 0-3.5.4-5.1 1.1M74.5 35.3c-2.8 3.8-4.6 8.2-5.2 12.8 2.1 2.3 3.5 4.6 4.2 6.8 2-1 4.3-1.6 6.6-1.6h.1c3.3-1.7 6.1-3.9 8.6-6.7zM65.8 28.4l-5.6-4.5c-1.7 2-3.7 3.7-5.8 5.2.2 1.5.2 3.1.1 4.6v.6c-.1 1.4-.3 2.7-.6 4q1.5.45 3 1.2zM43.7 36.3l-4.6-7.2-9.5 1.2-5.2 9.2.2.4c.4-.2.8-.3 1.2-.5 4.9-2 10.1-3.1 15.3-3.1.9-.1 1.7-.1 2.6 0M58.5 22.5l-10.3-8.2q2.85 3.45 4.5 7.5c0 .1.1.2.1.4.6 1.5 1 2.9 1.3 4.5 1.5-1.3 3-2.7 4.4-4.2M52.2 40.2c-3.6-1.1-7.4-1.7-11.1-1.7-4.7 0-9.3.9-13.8 2.6v20.6c.4 1.4.6 2.8.6 4.3 0 2.6-.7 5.1-2 7.3l.6.3c4.7 2 9.5 3 14.5 3 3.8 0 7.5-.6 11.2-1.7zq.15 0 0 0m-3.4 18.5h-1.9v2.1h-2.3v-2.1h-1.5v2.1h-2.3v-2.1h-2v2.1h-2.3v-2.1h-2v2.1h-2.3v-2.1h-1.7v-2.3h1.7v-2.2h2.3v2.2h2v-2.2h2.3v2.2h2v-2.2h2.3v2.2h1.5v-2.2h2.3v2.2h1.9zM49.3 37.1l2.4.6c.1-.6.2-1.1.3-1.7zM50.8 23.4l-7.1-3-2.8 7.4 5.3 8.2 6.1-2.5c.1-2 0-4.1-.4-6.1-.3-1.4-.7-2.8-1.1-4" class="st0"/>
</symbol>
<symbol id="star" viewBox="0 0 16 15.4"><path d="M16 5.8c-.1-.3-.4-.6-.7-.6l-4.6-.4L8.8.6C8.6.2 8.3 0 8 0s-.6.2-.8.5L5.4 4.8l-4.6.5c-.4 0-.7.2-.8.5q-.15.6.3.9l3.5 3.1-1 4.5c-.1.3.1.7.3.9.1.1.3.2.5.2s.3 0 .4-.1l4-2.4 4 2.4c.3.2.7.2.9 0q.45-.3.3-.9l-1-4.5 3.5-3.2q.45-.3.3-.9" style=""/>
</symbol>
<symbol id="stay-updated" viewBox="0 0 69 77"><style>.st0{}</style><path d="M68.8 54.5c0-4.8-3.4-8.7-7.9-9.7V26.5C60.9 11.9 49 0 34.4 0S7.9 11.9 7.9 26.5v18.4c-4.5.9-7.9 4.9-7.9 9.6 0 5.4 4.4 9.8 9.9 9.8h49c5.4.1 9.9-4.4 9.9-9.8M34.4 77c6 0 11.1-3.7 13.2-8.9H21.1c2.2 5.2 7.3 8.9 13.3 8.9" class="st0"/>
</symbol>
<symbol id="strong-line"><path stroke="#F5D31F" stroke-linecap="round" stroke-width="8" d="m4 25 9.909-14.565c3.723-5.473 11.994-4.792 14.772 1.216v0c2.389 5.166 9.075 6.58 13.35 2.823l5.511-4.84a13.995 13.995 0 0 1 17.074-1.082l5.417 3.66a15 15 0 0 0 15.974.52l7.291-4.266a15 15 0 0 1 18.387 2.55l.788.82c5.493 5.712 14.482 6.166 20.522 1.036l1.951-1.656c5.838-4.959 14.474-4.722 20.031.549l2.847 2.699c5.998 5.688 15.656 4.968 20.883-1.436v0c4.75-5.818 13.335-6.923 19.313-2.376l5.172 3.933c4.858 3.694 11.904 1.659 14.042-4.058v0c2.089-5.58 8.886-7.686 13.763-4.262L247 17.5"/>
</symbol>
<symbol id="swimming" viewBox="0 0 48 38.2"><style>.st0{}</style><path d="m33.8 25.5-2.3-3.9c2.4 3.1 6.9 3.3 9.5.4 2.4-2.6 2.3-6.8-.3-9.3-2.5-2.5-6.6-2.4-8.9.3-1.9 2.1-2.2 4.9-1.1 7.3L25.1 11l8.2-2.5c2.6-.7 3.7-3.9 2.5-6.2C34.9.5 32.9-.3 31 .2L18.6 3.9c-3.2.9-4.7 4.9-2.9 7.9l3.7 6.4-6.7 4.3c8.1 0 13.9 2.5 21.1 3M1.7 29.7c18.1-5.4 25 5.5 45.1 0 .7-.2 1.2-1 1-1.8s-.9-1.2-1.7-1C26.8 32.1 20 21.3 1 26.9c-.7.2-1.1 1-.9 1.8s.9 1.2 1.6 1M46.1 33.8C26.7 39.1 20 28.2 1 33.8c-.7.2-1.1 1-.9 1.8.2.7.9 1.2 1.8 1 18.1-5.4 25 5.5 45.1 0 .7-.2 1.2-1 1-1.8-.4-.8-1.2-1.2-1.9-1" class="st0"/>
</symbol>
<symbol id="tennis" viewBox="0 0 46.5 46.4"><path d="M14.6 37.8c1.1-1.1 2.5-1.8 4-2.1l10.2-2c4.6-.6 8.5-2.7 11.6-5.8 7.1-7.1 8-17.8 2-23.9-6-6-16.7-5.1-23.9 2-3.1 3.1-5.3 7.2-5.8 11.7l-2 10.2c-.3 1.5-1 2.9-2.1 4L1 39.5c-1.4 1.4-1.4 3.7 0 5.2l.8.8c1.4 1.4 3.7 1.4 5.2 0zm16-17.9-4 4-4-4 4-4zm-2-6 4-4 4 4-4 4zm-4 12-3.7 3.7c-.8-.5-1.6-1-2.3-1.7s-1.2-1.4-1.7-2.3l3.7-3.7zm3.8 5c-1.6.2-3.2.1-4.6-.2l2.8-2.8 2.9 2.9zm4.1-1-4-4 4-4 4.9 4.9c-1.4 1.3-3.1 2.3-4.9 3.1m7-5.1-4.9-4.9 4-4 4 4c-.8 1.7-1.8 3.4-3.1 4.9m3.8-13.7c.4 1.8.5 3.8.1 5.7l-2.9-2.9zM40.5 6c.7.7 1.2 1.5 1.7 2.3L38.5 12l-4-4 3.7-3.7c.8.4 1.6 1 2.3 1.7m-5.1-2.8L32.5 6l-2.9-2.9c2-.4 4-.4 5.8.1m-8.8.8 4 4-4 4-5-5c1.6-1.3 3.2-2.3 5-3m-6.9 5 4.9 4.9-4 4-4-4c.8-1.7 1.8-3.4 3.1-4.9m-4.1 9.1.2-1 2.9 2.9-2.8 2.8c-.5-1.5-.5-3.1-.3-4.7m-2 10.3.4-2.3c.7 1.4 1.5 2.7 2.6 3.8s2.4 2 3.8 2.6l-2.3.4c-1.6.3-3.1 1-4.4 2l-2.1-2.1c1-1.3 1.7-2.8 2-4.4" style=""/>
</symbol></svg>