<?xml version="1.0" encoding="utf-8"?>
<!-- Generator: Adobe Illustrator 28.1.0, SVG Export Plug-In . SVG Version: 6.00 Build 0)  -->
<svg version="1.1" id="Layer_1" xmlns="http://www.w3.org/2000/svg" xmlns:xlink="http://www.w3.org/1999/xlink" x="0px" y="0px"
	 viewBox="0 0 270.8 382.6" style="enable-background:new 0 0 270.8 382.6;" xml:space="preserve">
<style type="text/css">
	.st0{fill:#F9F5E9;}
</style>
<path class="st0" d="M138.6,382.6C61,382.6,1.1,341.9,0,271.3h80.3c2.1,30,21.9,49.8,56.7,49.8c35.3,0,56.2-18.7,56.2-45.5
	c0-80.8-192.6-32.1-192.1-167.5C1.1,40.7,55.7,0,132.7,0c76.5,0,129,39.1,133.8,106.5h-82.4c-1.6-24.6-21.4-43.9-53.5-44.4
	C101.1,61,79.2,75.5,79.2,106c0,74.9,191.6,33.2,191.6,164.8C270.8,329.6,223.7,382.6,138.6,382.6z"/>
</svg>
