<?xml version="1.0" standalone="no"?>
<!DOCTYPE svg PUBLIC "-//W3C//DTD SVG 20010904//EN"
 "http://www.w3.org/TR/2001/REC-SVG-20010904/DTD/svg10.dtd">
<svg version="1.0" xmlns="http://www.w3.org/2000/svg"
 width="256.000000pt" height="256.000000pt" viewBox="0 0 256.000000 256.000000"
 preserveAspectRatio="xMidYMid meet">
<metadata>
Created by potrace 1.14, written by Peter Selinger 2001-2017
</metadata>
<g transform="translate(0.000000,256.000000) scale(0.100000,-0.100000)"
fill="#000000" stroke="none">
<path d="M1067 2544 c-357 -58 -591 -253 -663 -555 -13 -54 -12 -256 2 -318
30 -140 115 -268 237 -358 78 -57 212 -118 372 -168 341 -106 394 -124 455
-154 139 -69 202 -154 203 -273 1 -188 -162 -312 -396 -302 -203 8 -335 129
-356 326 -1 4 -123 6 -271 6 l-270 -1 5 -51 c21 -191 80 -317 206 -445 101
-102 302 -201 459 -226 25 -4 54 -10 65 -12 49 -12 324 -10 396 3 337 60 572
251 657 536 24 80 30 287 11 364 -54 221 -204 368 -494 482 -28 11 -147 50
-265 87 -322 100 -428 158 -480 261 -45 90 -26 218 44 301 80 95 299 124 440
60 98 -45 155 -111 179 -208 l14 -54 275 0 276 0 -5 40 c-39 356 -290 596
-688 660 -101 16 -306 16 -408 -1z"/>
</g>
</svg>
