<svg xmlns="http://www.w3.org/2000/svg" xml:space="preserve" viewBox="0 0 517 649"><path d="M68 0C30.4 0 0 30.4 0 68v513c0 37.6 30.4 68 68 68h380.9c14.2 0 27.4-4.4 38.3-11.8 1.1-.2 2.1-.9 2.7-1.9 16.4-12.4 27-32.1 27-54.2V68c0-37.6-30.4-68-68-68zm416.9 629c14.6-10.9 24-28.4 24-48V425.3l-1.8 2.1c-5.9 6.4-13.7 12.3-16 14l-.2.1c-.1.1-.2.1-.2.2-25.7 19.3-54.8 38.3-84.6 51.2-2 .9-4 1.7-6 2.6-34.6 15-70.3 30.5-106.9 40.5-8.7 2.4-17.5 4.2-26.2 6l-3 .6c-7.7 1.6-15.3 3.1-22.9 5-9.1 2.2-17.9 4.8-26.8 7.4-6.2 1.8-12.5 3.6-18.9 5.3-13.8 3.7-27.4 8.4-41.1 13-6 2-12 4.1-18.1 6.1-13.3 4.4-26.7 10.2-39 17.1-5.1 2.9-9.7 6.4-14.4 10.2-1.3 1-2.5 2.1-3.8 3.1-3.4 2.8-7 5.7-10.6 8.4-.6.4-1.2 1.1-1.6 1.7-.4.7-.6 1.3-.7 1.7v.2c.1.1.4.2.8.3 21.8 4 46.3 3.7 69 2.4 5.9-.3 11.7-1 17.6-1.6 1-.1 2.1-.2 3.1-.3 7-.7 14.1-1.4 21.4-1.5 14.6-.2 29.2-1.7 43.5-4.7 21.2-4.5 42-11.2 62.9-18l5.7-1.8c8.9-2.9 17.8-5.5 26.7-8.1 18-5.3 35.8-10.6 53-17.7 19.9-8.2 39.7-15.2 60-22 3.5-1.2 7.1-2.5 10.7-3.9l.4-.1c3.8-1.4 7.6-2.8 11.5-4.1 7.8-2.6 16.1-4.6 24.7-4.6 2.9 0 7 .1 10.9 1.1 3.8 1 8.2 3.1 10.5 7.6 1.5 3.1 1 6.3.1 8.6-.9 2.4-2.4 4.5-3.8 5.9-9.1 9.9-23 17.2-34.5 23.3-1.6.9-3.2 1.7-4.7 2.5-15.4 8.3-30.9 16.5-46.4 24.7-2.5 1.3-5.1 2.6-7.8 3.8-1.6.8-3.2 1.5-4.7 2.3-1.8.9-3.5 1.8-5.2 2.7 3 0 6.3-.2 8.9-.5 1.4-.1 2.6-.2 3.4-.3.4 0 .8-.1 1.1-.1h.3c15.9-2.8 32.5-6.6 47.4-12.2 2.2-.8 4.5-1.8 6.9-2.8 6.7-2.8 13.9-5.8 21.3-7.1.4-.1 1.2-.2 2.1 0 1.1.2 2.6 1 3.2 2.9.4 1.4 0 2.6-.2 3-.2.5-.5.9-.7 1.2-.8 1.1-2 2.3-3.1 3.3-1.2 1.1-2.4 2.2-3.5 3-.2.2-.4.4-.6.5l-.3.3-.3.3-.2.2-.2.2c-.1 0-.1.1-.1.1-.9.8-1.9 1.6-2.7 2.3-2 1.7-4 3.3-5.8 5.1-2 2-3.6 4-4.7 6.2.1 0 .1 0 .2.1 1.8.8 4.6 1.6 7.9 2.3 5 1.2 10.2 2 13.1 2.4m24-225.1V139.3c-.8 1.6-1.5 3.1-2.2 4.4-.2.3-.3.6-.4.9-4.4 8.9-10.6 17.1-16.4 24.8-1.2 1.7-2.5 3.3-3.7 4.9-8.7 11.8-18.2 23.5-29 33.8-16.9 15.9-35.1 30.7-53.1 45.2-4.4 3.6-8.8 7.1-13.2 10.7-16.6 13.6-34.5 26.8-53.3 37.6l-22.8 12.9c-2.7 1.5-5.4 3.1-8.1 4.6-8.1 4.6-16.7 8.2-25.1 11.8-3.6 1.5-7.1 3-10.6 4.6-5.7 2.5-11.4 5.2-17.1 7.9-9.3 4.4-18.8 8.8-28.3 12.8-8 3.4-16.2 6.3-24.3 9.3l-1.6.6c-7.6 2.7-15.1 5.5-22.4 8.4C151.2 385 125 394.9 98.2 404c-20.8 7.1-40.8 15.5-60.7 24.9-5.5 2.6-11.5 6.6-16 11.6-4.6 4.9-7.4 10.4-7.4 15.8 0 2.9.9 4.1 1.7 4.7 1 .7 2.9 1.3 6.1 1.1 6.5-.4 15.7-3.5 25.7-7.9 9.9-4.4 20.2-9.9 28.6-14.6 2.7-1.5 5.3-2.9 7.5-4.2 1.2-.7 2.4-1.3 3.4-1.9 2.9-1.6 5.4-3 6.8-3.6 14.8-6.4 30.9-9.8 46.3-13 3.6-.8 7.2-1.5 10.7-2.3 11.5-2.6 22.6-6.2 34-9.9 3.8-1.2 7.6-2.5 11.4-3.7 8.7-2.7 17.4-5.2 26.1-7.7 1.3-.4 2.7-.8 4-1.2 10-2.9 20-5.8 29.8-9.1 16.1-5.4 32.1-11.2 48.2-17.1 6.4-2.3 12.9-4.7 19.3-7 16.3-5.8 31.6-13.5 45.6-23.5 14.2-10.1 28-20.4 41.2-31.6l4.2-3.6c5.3-4.5 10.7-9.2 16.6-13.3 4.4-3.1 8.9-6.3 13.3-9.5 8.5-6.1 17.2-12.3 25.9-18q1.35-.9 3-2.1l1.2-.9c1.6-1.1 3.4-2.4 5.3-3.5 3.7-2.1 8.5-4.1 13.6-2.8 9.6 2.4 13 11 13.7 18.7.6 7.8-1.3 16.4-3.8 21.8-9.9 21.9-31.4 39.2-48.7 52.8-20.6 16.1-41.2 30.3-64.5 42.4-7.3 3.8-14.6 7.7-22 11.5-22 11.6-44.1 23.2-66.4 34.2-12.8 6.3-26.2 10.6-39.4 14.8-4.4 1.4-8.8 2.8-13.1 4.3-18.3 6.2-36.3 12.9-54.3 19.9-14 5.4-28.3 9.2-42.4 12.8-.9.2-1.9.5-2.8.7-13.2 3.4-26.3 6.7-39 11.2-4.6 1.6-9.3 3.2-13.8 4.8-12.4 4.2-24.6 8.4-36.4 13.7-3.1 1.4-6.3 2.7-9.4 3.9-1.3.5-2.7 1.1-3.9 1.6-4.4 1.8-8.5 3.7-12.5 5.9-1.4.8-2.9 1.7-4.3 2.5-2.4 1.4-5 2.9-7.4 4.3 0 0-.1.1-.6.7l-.1.1c-.2.3-.5.7-.9 1-.3.4-.8.8-1.4 1.2-.1.1-.1.2-.2.3-.3.5-.7 1.2-1.2 2.2-1 1.9-2.1 4.4-3 6.9-1 2.5-1.8 5-2.3 6.9-.1.3-.1.6-.2.9h.1c.8.2 1.8.3 2.6.3 9.7.5 18.7-2.2 28.7-5.3 21.3-6.6 42.4-13.4 63.6-20.3 3.5-1.1 6.9-2.2 10.4-3.4 27.7-9 54.3-19 80.8-31 25.3-11.5 49.9-21.4 76.6-29.1 20.4-5.9 40.5-12.6 60.6-19.3 9-3 17.9-6 26.9-8.9s18.1-5.3 27.2-7.7c1.7-.4 3.3-.9 5-1.3 10.7-2.8 21.2-5.7 31.3-9.6 18.5-7.1 37.1-10.7 56.2-13.5.6-.1 1.3-.2 2-.3 3-.5 6.6-1 10.1-1.2 4.4-.2 9.3.1 13.5 2.4m0-299V68c0-33.1-26.9-60-60-60h-38.2c1.5.6 3.2 1.7 3.8 4 5.9 22.1-.4 39.4-9.9 57.2-13.9 26-28.7 49.8-48.8 72.1-31.8 35.2-68.3 63.4-108.5 88-21.9 13.4-43.6 23.5-67.4 32.7-25 9.7-49.2 20.7-73.2 32.8-4.8 2.4-9.6 4.8-14.3 7.1-12 5.9-23.9 11.8-35.4 18.5-10.4 6.2-19.2 15.2-28 24.3-3 3.2-6.5 7-9.4 11-3 4.1-5.4 8.1-6.5 11.8-.3 1-1.3 4.9-1.8 8.4-.1 1-.2 1.9-.2 2.5 2.5-.4 5.3-1.2 8.2-2.3 1.7-.6 3.4-1.4 5.1-2.1l.5-.2c1.9-.8 3.8-1.6 5.7-2.2 10.5-3.7 21.2-7.4 32.1-10.3 19.8-5.2 39.2-10.4 56.8-19.8 14.5-7.8 28.6-15.9 42.8-24 9.1-5.2 18.3-10.5 27.6-15.7 12.7-7.1 25.7-13.4 38.6-19.7 1.3-.6 2.6-1.3 4-1.9q8.1-4.05 16.2-8.4c.6-.3 1.2-.6 1.8-1 .5-.3 1-.5 1.5-.8 6.5-3.5 13.1-6.9 20-10 1.6-.7 3.1-1.4 4.7-2.1 20-8.9 40.8-18.2 57-31.7 18-15 34.4-31.8 50.9-48.8 4.7-4.8 9.3-9.6 14.1-14.3 6-6.1 11.7-12.4 17.4-18.8 3.1-3.5 6.3-7.1 9.6-10.6 9.1-9.9 18.7-19.5 30-27.5 6.2-4.5 12.7-8.8 19.2-12.8.4-.2.9-.5 1.3-.8 1.2-.7 2.6-1.6 3.9-2.3 2-1.1 4.4-2.1 7-2.4 8.8-1 14.6 4.4 18.3 10 1.3 2.3 2.5 4.7 3.5 7M403 8H290c1.3.6 2.4 1.5 3.3 2.9 1.3 2 1.5 4.4 1.1 6.7-.8 5.7-3.4 10.5-6.3 14.6-1.9 2.7-4.1 5.4-6.1 7.9-1 1.2-2 2.4-2.9 3.5-2.9 3.7-5.6 7.5-8.4 11.3-.5.7-1.1 1.5-1.6 2.2-3.3 4.6-6.8 9.3-10.5 13.7-8.6 10.2-17.7 20.1-26.7 30-5.1 5.6-10.2 11.2-15.1 16.8-2.2 2.5-4.5 5-6.7 7.6-13.7 15.6-28 31.8-44.3 45.2-21.1 17.4-42.9 33.1-65.6 48.2-24.6 16.4-48.5 33.2-71.3 51.5l-.5.4c-2.6 2.1-5.8 4.6-8.5 7.4-1.2 1.2-2.3 2.4-3.1 3.6l1.5-.3c3.9-1 8-2.3 9.6-2.8.3-.1.5-.2.6-.2 7.3-2.2 14.7-3.8 22-5.3 1.2-.3 2.5-.5 3.7-.8 8.5-1.8 16.7-3.7 24.6-6.7 25-9.4 48.3-23.1 70.3-38.7 12.2-8.7 23.9-17.7 35.6-26.8q12-9.3 24.3-18.6c16.7-12.4 30-27.5 43.8-43.2 3.8-4.3 7.5-8.6 11.4-12.8 12.6-13.8 26.1-26.2 40.1-38.3 2.3-2 4.6-4 7-5.9 11.8-10 23.7-20.1 33-31.7 13.1-16.3 30.5-30.8 50.1-38.7 1.3-.5 5-2 8.6-2.8-.1.1 0 .1 0 .1M278.1 8H68C34.9 8 8 34.9 8 68v5.5l.1-.1c.2-.2.4-.4.7-.6.5-.5 1.2-1.1 1.9-1.5 4.2-2.8 8.3-6.3 12.1-10 3.9-3.8 7.5-7.9 11.3-12.2l.6-.6c3.5-4.1 7.2-8.3 11.1-12.2 1.9-1.8 3.8-3.6 5.6-5.2.3-.2.5-.5.8-.7 1.6-1.4 3.1-2.8 4.6-4.2 2.7-2.6 5.8-4.4 8.5-5.9l.5-.3c2.6-1.5 4.7-2.7 6.6-4.3 1.6-1.4 3.6-2.9 5.8-4.1s4.9-2.2 7.8-2.2c1.1 0 2.4.3 3.6 1.2s1.8 2.1 2 3.1c.5 1.9.1 3.9-.3 5.4-.9 3.3-2.9 7.3-4.9 11.2-4.2 7.7-9.6 15.8-10.7 17.2-1.7 2.2-3.2 4.6-4.9 7.1-.3.5-.6.9-.9 1.4-1.9 3-4.1 6.2-6.8 9.1-5 5.4-10.3 10.6-15.6 15.6l-5.7 5.4C35 92.5 28.3 98.8 22 105.7c-.8.9-1.7 1.8-2.5 2.6l-.4.4c-1 1-1.8 1.8-2.5 2.7-1.4 1.7-2.1 3.2-2.2 4.8 0 .5-.1 1.2-.1 1.7v.7c0 .8-.1 1.6 0 2.2 0 .5.1.8.1 1 1.2.5 2.8.7 5 .5 2.4-.2 5.1-.9 8-1.9 5.7-1.9 11.4-4.9 14.9-6.8 13.6-7.5 26.6-18 39.2-28.1 1.3-1 2.5-2 3.7-3 10.2-8.1 20-16.8 29.9-25.5 1.1-.9 2.1-1.8 3.2-2.8 4.7-4.2 9.6-8.3 14.4-12.3 2-1.7 4.1-3.4 6.1-5.2 1.8-1.5 3.4-3 5.2-4.6 1.2-1.1 2.3-2.1 3.6-3.3 3-2.7 6.3-5.4 9.8-7.7 10.3-6.6 21-10 32.3-12.8 1.9-.5 4.1-.6 6.1.5 2.1 1.2 2.9 3.1 3.3 4.6.3 1.4.3 3 .3 4.1 0 .6 0 1.2-.1 1.7v.1c0 .6-.1 1.1-.1 1.6-.2 7.2-4.4 13.9-9 19.2-4.7 5.4-10.4 10.1-14.5 13.4-9.6 7.7-18.5 15.8-27.4 24-6.2 5.6-12.4 11.3-19 16.9-9.7 8.3-19.4 16.5-29.1 24.7-13.6 11.5-27.2 23-40.7 34.8-1.4 1.2-2.8 2.5-4.2 3.8-2.7 2.5-5.6 5.1-8.5 7.4-2.5 2-4.7 4.4-7 7-.4.4-.8.9-1.2 1.4-1.9 2.2-3.9 4.5-6.2 6.7-3.9 3.8-6.2 7.4-8.8 11.6-1.2 1.9-2.5 4-4.1 6.2-1.1 1.5-2.1 3.1-3.2 4.7-.3.5-.7 1-1 1.5 1.6-.6 2.9-1.2 3.6-1.5.2-.1.4-.2.5-.2 8-3.3 15.5-7.4 23.2-11.5q6.15-3.3 12.6-6.6c2.3-1.1 4.6-2.3 6.8-3.4 20.1-10.1 40-20 57.2-33.6 1.3-1 2.5-2 3.8-3 16.5-13 33-26 48.6-39.9C184.5 92.9 196 81 207.7 67.8c3.2-3.6 6.3-7.2 9.5-10.9 11.6-13.5 23.5-27.4 38.2-38.4 3.4-2.5 12.5-7.4 20.6-9.9zM8 82.9v26.3c.6-1.1 1.4-2.2 2.1-3.1 1-1.2 2.1-2.3 3.1-3.3l.5-.5 2.2-2.2c6.5-7.2 13.4-13.7 20.3-20.2 1.8-1.7 3.7-3.5 5.5-5.2 5.2-5 10.4-10.1 15.3-15.3 2.1-2.3 4-5 5.9-8 .3-.4.6-.9.8-1.3 1.6-2.5 3.4-5.3 5.4-7.8.7-.9 5.9-8.6 10-16.1 1.7-3.2 3.1-6.1 3.9-8.4-.4.2-.8.3-1.2.6-1.5.8-3.1 2-4.4 3.1-2.4 2.1-5.2 3.7-7.7 5.1l-.6.3c-2.7 1.5-5 2.9-6.9 4.7-1.6 1.5-3.3 3-4.8 4.4-.3.2-.5.4-.8.7-1.8 1.6-3.6 3.2-5.3 4.9-3.7 3.7-7.2 7.7-10.8 11.9l-.5.6c-3.7 4.3-7.6 8.7-11.7 12.8-4 3.9-8.4 7.7-13.2 10.9-.4.3-.8.6-1.4 1.1-.4.3-.8.7-1.3 1.2-.9 1-2.5 2.2-4.4 2.8M8 127v73.5l1.2-1.8c1.1-1.7 2.3-3.4 3.5-5.1s2.3-3.4 3.4-5.2c2.9-4.6 6-9.4 10.5-13.9 2-1.9 3.7-3.9 5.6-6.1.4-.5.8-1 1.3-1.5 2.3-2.7 4.9-5.5 8-8 2.8-2.2 5.3-4.5 7.9-6.9 1.5-1.3 3-2.7 4.6-4.1 13.5-11.8 27.2-23.4 40.9-35 9.7-8.2 19.3-16.4 28.9-24.6 6.2-5.3 12.3-10.9 18.4-16.5 9.2-8.4 18.5-16.8 28.2-24.6 4.1-3.3 9.3-7.6 13.4-12.4 4.3-4.9 7-9.8 7.1-14.1 0-.6 0-1.2.1-1.8v-.1c0-.6.1-1.1.1-1.5v-1.2c-10.9 2.7-20.5 5.9-29.7 11.7-3 1.9-5.9 4.3-8.8 6.9-1.1 1-2.2 2-3.4 3-1.8 1.7-3.7 3.4-5.6 5-2.1 1.8-4.1 3.5-6.2 5.2-4.8 4.1-9.5 8.1-14.2 12.2-1.1.9-2.1 1.8-3.2 2.8-9.9 8.7-19.8 17.4-30.1 25.7-1.3 1-2.5 2-3.8 3-12.5 10-26 20.9-40.3 28.8-3.6 2-9.8 5.2-16.2 7.4-3.2 1.1-6.6 2-9.8 2.2-3.2.3-6.7 0-9.7-1.5-.8-.3-1.5-.9-2.1-1.5m0 88.4v65.1c1.6-3 3.9-5.8 6.2-8.1 3.1-3.1 6.5-5.9 9.1-8 .2-.2.4-.3.6-.5 23.1-18.6 47.3-35.5 71.9-52 22.6-15 44.1-30.6 65-47.8 15.7-12.9 29.5-28.6 43.3-44.2 2.3-2.6 4.5-5.1 6.8-7.7 5.1-5.7 10.2-11.4 15.4-17 8.9-9.8 17.8-19.6 26.3-29.6 3.5-4.2 6.8-8.6 10.1-13.2l1.5-2.1c2.8-3.9 5.6-7.8 8.6-11.6 1.1-1.4 2.2-2.8 3.3-4.1 1.9-2.3 3.7-4.5 5.4-6.9 2.5-3.6 4.3-7.3 4.9-11.3q.15-1.05 0-1.2c-.1 0-.2-.1-.3-.1-1.4-.3-4.1 0-7.9 1.1-7.3 2.2-15.6 6.7-18.1 8.6-13.9 10.4-25.1 23.4-36.6 36.9-3.3 3.8-6.5 7.6-9.9 11.4-11.9 13.4-23.6 25.5-37 37.4-15.7 14-32.5 27.2-48.9 40.1-.6.5-1.2 1-1.9 1.5-.6.5-1.3 1-1.9 1.5-17.9 14.1-38.6 24.5-58.5 34.5-2.3 1.2-4.6 2.3-6.9 3.4-3.9 2-7.9 4.1-11.9 6.3-7.9 4.3-16.1 8.7-24.4 12.1-.1 0-.2.1-.4.2-1.3.6-5.2 2.2-8.7 3.5-1.8.8-3.6 1.4-5.1 1.8m0 73.8v69.9c1.5-2.8 3.2-5.5 5.1-8 3.3-4.4 7-8.5 10.1-11.8 8.7-9 18.2-18.9 29.7-25.7 11.7-6.9 24-13 36.2-19 4.7-2.3 9.4-4.6 14-6.9 24.1-12.2 48.7-23.4 73.9-33.1 23.5-9.1 44.8-19 66.1-32.1 39.7-24.3 75.6-52 106.7-86.6 19.5-21.6 33.9-44.8 47.7-70.5 9-16.7 14.1-31.4 9.6-50-.6 0-1.5.1-2.5.4-2.9.6-6.1 1.9-7.3 2.4-18.1 7.3-34.4 20.8-46.8 36.3-9.8 12.2-22.4 22.9-34.2 33-2.3 1.9-4.5 3.9-6.8 5.8-13.9 12-27.2 24.2-39.4 37.7-3.7 4.1-7.4 8.3-11.1 12.4-13.9 15.7-27.9 31.6-45.3 44.6-8 5.9-16 12.1-24 18.3-11.9 9.2-23.9 18.5-36.1 27.2-22.3 15.9-46.2 29.9-72.1 39.6-8.5 3.2-17.2 5.2-25.8 7.1-1.3.3-2.5.5-3.8.8-7.3 1.5-14.3 3-21.3 5.1-.1 0-.2.1-.4.1-1.4.4-5.9 1.9-10.2 2.9-2.4.6-5 1.1-7 1.3-.9.1-2.3.1-3.5-.3-.3-.2-.9-.5-1.5-.9m0 97.5v60.1c1.7-4.4 4.5-8.4 7.7-11.8 5.4-5.8 12.2-10.4 18.5-13.3 20.1-9.5 40.4-18 61.5-25.2 26.6-9 52.6-18.9 78.7-29.5 7.5-3 15.1-5.8 22.7-8.5l1.6-.6c8.1-2.9 16.1-5.9 23.9-9.1 9.4-3.9 18.5-8.2 27.7-12.5 5.8-2.7 11.6-5.4 17.5-8.1 3.8-1.7 7.5-3.3 11.2-4.8 8.2-3.5 16.1-6.8 23.8-11.1 2.7-1.5 5.4-3.1 8.2-4.6 7.6-4.3 15.1-8.5 22.7-12.9 18.3-10.5 35.8-23.4 52.2-36.8 4.4-3.6 8.9-7.2 13.3-10.8 18-14.5 35.9-29 52.5-44.7 10.4-9.8 19.5-21 28.1-32.7 1.3-1.7 2.6-3.5 3.8-5.2 5.7-7.7 11.4-15.3 15.5-23.4.1-.3.3-.6.4-.9 1.6-3.3 3.7-7.3 5.1-11.5 1.6-4.7 1.9-8.4 1-10.8-.5-1.1-.9-2.2-1.4-3.4-1.6-4-3.3-8.3-5.7-11.9-3-4.6-6.3-7-10.7-6.5-1.2.1-2.5.6-4.1 1.5-1.1.6-2.1 1.2-3.1 1.9-.6.4-1.1.7-1.8 1.1-6.4 3.9-12.7 8.1-18.8 12.4-10.6 7.6-19.8 16.7-28.8 26.4-3.1 3.3-6.2 6.8-9.3 10.3-5.8 6.5-11.7 13.1-17.9 19.3l-13.8 14.1c-16.6 17-33.3 34.2-51.6 49.5-17.1 14.3-38.9 24-58.7 32.8-1.6.7-3.3 1.5-4.9 2.2-6.6 2.9-13 6.3-19.5 9.7-1.1.6-2.1 1.1-3.2 1.7-5.4 2.9-10.9 5.8-16.5 8.5-1.3.6-2.6 1.3-3.9 1.9-12.9 6.3-25.8 12.6-38.2 19.5-9.1 5.1-18.2 10.3-27.3 15.5-14.3 8.2-28.7 16.4-43.2 24.2-18.5 9.9-38.9 15.4-58.5 20.5-10.6 2.8-21 6.3-31.5 10.1-1.7.6-3.4 1.3-5.3 2.1l-.5.2c-1.7.7-3.5 1.5-5.4 2.2-4 1.5-8.5 2.9-13 3-.3 0-.7-.1-1-.1m0 77.2v78.4l.3-.9c1-2.7 2.2-5.5 3.4-7.6.6-1.1 1.1-2.1 1.7-3 .3-.4.6-.9.9-1.2s.8-.8 1.5-1.3c.1-.1.3-.3.5-.6l.1-.1c.5-.6 1.4-1.8 2.9-2.6 2.4-1.3 4.7-2.7 7.1-4.1 1.5-.9 3-1.8 4.6-2.7 4.4-2.5 9-4.5 13.4-6.4 1.4-.6 2.8-1.1 4.2-1.7 3-1.2 6-2.4 9-3.8 12.2-5.5 24.9-9.8 37.5-14.1 4.5-1.5 9-3.1 13.4-4.6 13.1-4.6 26.5-8.1 39.6-11.4 1-.2 1.9-.5 2.8-.7 14.1-3.6 28-7.3 41.5-12.5 18.1-7 36.2-13.7 54.6-20 4.6-1.6 9.2-3 13.7-4.5 13-4.2 25.6-8.2 37.8-14.2 22.2-11 44.1-22.5 66.1-34.1 7.4-3.9 14.7-7.7 22.1-11.6 22.7-11.9 42.9-25.8 63.3-41.7 17.6-13.8 37.4-29.9 46.4-49.7 2-4.3 3.6-11.5 3.1-17.9s-2.9-10.4-7.6-11.6c-1.9-.5-4.4.2-7.7 2-1.5.9-3.1 1.9-4.6 3-.3.2-.7.5-1.1.8-1.2.8-2.3 1.7-3.4 2.4-8.6 5.6-16.9 11.6-25.3 17.6-4.5 3.3-9.1 6.5-13.7 9.7-5.5 3.9-10.6 8.2-15.8 12.7-1.5 1.2-2.9 2.5-4.4 3.8-13.4 11.3-27.4 21.8-41.7 32-14.7 10.5-30.6 18.4-47.5 24.5-6.4 2.3-12.8 4.6-19.2 7-16.1 5.8-32.2 11.7-48.4 17.2-10 3.4-20.1 6.3-30.2 9.2-1.3.4-2.7.8-4 1.1h-.1c-8.7 2.5-17.3 4.9-25.9 7.7-3.7 1.2-7.3 2.4-11 3.6-11.4 3.7-23.1 7.5-35 10.2l-11.1 2.4c-15.3 3.2-30.4 6.4-44.4 12.5-1 .4-3 1.5-6.1 3.2-1 .6-2.2 1.2-3.4 1.9-2.3 1.3-4.8 2.7-7.6 4.3-8.5 4.7-19 10.3-29.3 14.9-10.1 4.5-20.5 8.2-28.6 8.6-4 .2-8.1-.3-11.3-2.7-1.3-.9-2.3-2.1-3.1-3.4m0 94.5V581c0 33.1 26.9 60 60 60h380.9c9.1 0 17.7-2 25.4-5.6-1.3-.3-2.7-.5-4.1-.8-3.3-.7-6.8-1.7-9.4-2.8-1.2-.6-2.7-1.3-3.7-2.4-1.1-1.1-2.4-3.2-1.5-5.8 1.6-4.5 4.4-8.1 7.3-11.1 1.4-1.4 3-2.8 4.6-4.2-1.3.5-2.5 1-3.8 1.6-2.5 1.1-5.1 2.1-7.9 3.2-15.6 5.9-32.7 9.7-48.9 12.6-1 .2-8.8 1-15.4 1-3.2 0-6.7-.1-9-.8-.6-.2-1.4-.5-2.1-1s-1.8-1.5-2.1-3.1.3-3 .8-3.8 1.2-1.4 1.9-1.9c3.9-2.9 8.2-5.3 12.4-7.4 1.7-.9 3.4-1.7 5.1-2.5 2.5-1.2 4.8-2.3 7.2-3.6 15.5-8.2 30.9-16.4 46.3-24.7 1.6-.8 3.2-1.7 4.8-2.5 11.6-6.2 24.1-12.8 32.3-21.6.9-.9 1.7-2.2 2.2-3.4s.4-1.9.2-2.2c-.7-1.5-2.4-2.7-5.3-3.4s-6.1-.9-8.9-.9c-7.3 0-14.7 1.8-22.2 4.2-3.7 1.2-7.5 2.6-11.2 4l-.4.2c-3.6 1.4-7.3 2.7-10.9 3.9-20.2 6.7-39.9 13.7-59.5 21.8-17.6 7.2-36.1 12.7-54.3 18.1-8.8 2.6-17.5 5.2-26 7.9-.8.3-1.7.5-2.5.8-1.1.4-2.2.7-3.3 1.1-20.8 6.7-42 13.6-63.6 18.2-14.8 3.1-30 4.7-45.1 4.9-6.9.1-13.7.7-20.6 1.5-.5.1-1 .1-1.5.2s-1.1.1-1.6.2c-5.9.6-11.9 1.3-18 1.6-22.8 1.3-48.1 1.6-70.8-2.5-2.3-.4-4.4-1.5-5.8-3.3-1.4-1.9-1.7-4-1.5-5.9.4-3.6 2.7-7 5.5-9 3.5-2.5 6.7-5.2 10.1-8 1.3-1.1 2.7-2.2 4-3.3 4.8-3.9 9.8-7.7 15.5-10.9 12.7-7.1 26.6-13.2 40.4-17.7 5.9-1.9 11.8-3.9 17.7-5.9 13.8-4.7 27.7-9.5 41.8-13.3 6.1-1.6 12.2-3.4 18.4-5.2 9.1-2.6 18.3-5.3 27.4-7.5 7.7-1.9 15.5-3.5 23.2-5.1l3-.6c8.7-1.8 17.3-3.6 25.7-5.9 36.1-9.9 71.3-25.2 106-40.2 1.9-.8 3.9-1.7 5.8-2.5 29-12.6 57.5-31.1 83-50.2.1-.1.2-.2.4-.3 2.3-1.7 9.6-7.2 14.9-13 2.9-3.2 4.8-6 5.4-8.1.3-1 .2-1.4.1-1.7-.1-.2-.3-.7-1.4-1.3-2.4-1.3-5.6-1.7-9.4-1.5-3 .1-6 .6-9 1.1-.8.1-1.5.2-2.3.4-18.9 2.8-36.8 6.3-54.5 13.1-10.5 4-21.4 7-32.1 9.9-1.7.4-3.4.9-5.1 1.3-9 2.4-17.9 4.7-26.7 7.5-8.9 2.9-17.8 5.9-26.7 8.8-20.2 6.8-40.6 13.5-61.1 19.5-26.3 7.6-50.5 17.3-75.5 28.7-26.8 12.2-53.7 22.3-81.6 31.3-3.5 1.1-6.9 2.2-10.4 3.4-21.2 6.9-42.3 13.7-63.7 20.3-9.9 3-20.1 6.2-31.4 5.6-1-.1-2.6-.2-4.1-.6-1.3-.3-2.6-.7-3.8-1.5m12.4-23.6q0 .15 0 0c0 .1 0 0 0 0m-9.3-154.7" style="fill-rule:evenodd;clip-rule:evenodd;fill:#f9f5e9;fill-opacity:.4"/></svg>