<svg xmlns="http://www.w3.org/2000/svg" xml:space="preserve" id="Layer_1" x="0" y="0" version="1.1" viewBox="0 0 20 20"><style>.st0{fill:#a1a1a1}</style><path d="M3.6 9.6c-2 0-3.6 1.6-3.6 3.6 0 1 .5 2.2 1.6 3.6.8 1 1.5 1.7 1.6 1.7l.4.5.4-.4s.8-.7 1.6-1.7c1.1-1.4 1.6-2.6 1.6-3.6 0-2-1.6-3.7-3.6-3.7m0 4.8c-.6 0-1.2-.5-1.2-1.2 0-.6.5-1.2 1.2-1.2s1.2.5 1.2 1.2-.6 1.2-1.2 1.2M16.4 1c-2 0-3.6 1.6-3.6 3.6 0 1 .5 2.2 1.6 3.6.8 1 1.6 1.8 1.6 1.8l.4.4.4-.4s.8-.7 1.6-1.7C19.5 6.9 20 5.7 20 4.6 20 2.7 18.4 1 16.4 1m0 4.8c-.6 0-1.2-.5-1.2-1.2 0-.6.5-1.2 1.2-1.2.6 0 1.2.5 1.2 1.2s-.6 1.2-1.2 1.2" class="st0"/><path d="M14.3 18.7H5.9v-1.2h8.3c.9 0 1.6-.7 1.6-1.6s-.7-1.6-1.6-1.6H11c-1.5 0-2.7-1.2-2.7-2.7C8.2 10.2 9.5 9 11 9h3.1v1.2H11c-.9 0-1.6.7-1.6 1.6s.7 1.6 1.6 1.6h3.3c1.5 0 2.7 1.2 2.7 2.7 0 1.4-1.2 2.6-2.7 2.6" class="st0"/></svg>