<svg xmlns="http://www.w3.org/2000/svg" xml:space="preserve" viewBox="0 0 272 159"><path d="M267.8 158.5h-.4c-47.4-4.9-109.6-21.2-145.3-51.7-7.7 2.8-16 4.2-24.8 4-30.4-.8-66.6-23-80.9-81.8L7.8 47.4c-.9 2-3.3 2.9-5.3 1.9C.5 48.4-.4 46 .6 44l13.5-29c.2-.4.5-.8.8-1.1l.1-.1c.6-.6 1.3-1 2.1-1.1 1.2-.2 2.5.2 3.3.9L41 23.8c2 1 2.8 3.4 1.8 5.4S39.4 32 37.4 31l-14.2-7c12.8 56.9 46.2 78.2 74.1 78.9 6.2.2 12.2-.6 17.8-2.2-3.1-3.1-5.9-6.4-8.4-9.8-12.2-16.8-16.5-35.7-12.5-56.2 4.5-23.2 17-30.6 24-32.9 10.1-3.3 21.3-.5 30 7.5 13 12 17.7 32.4 12.4 54.8-4.1 17.3-15.3 31.2-30.4 39.2 34.6 27.7 93.1 42.7 138 47.3 2.2.2 3.8 2.2 3.6 4.4-.2 2-2 3.5-4 3.5M126.7 8.5c-2.1 0-4.1.3-6.1 1-9.2 3-15.8 12.5-18.6 26.8-3.5 18.2.3 35 11.3 49.9 3 4 6.4 7.8 10.3 11.5 14.5-6.7 25.4-19.4 29.2-35.3 4.6-19.5.8-37.1-10-47-4.8-4.6-10.5-6.9-16.1-6.9" style="fill:#033b30"/></svg>