<svg xmlns="http://www.w3.org/2000/svg" xml:space="preserve" id="Layer_1" x="0" y="0" version="1.1" viewBox="0 0 85 77"><style>.st0{fill:#033b30}</style><path d="M42.2 37c10.2 0 18.5-8.3 18.5-18.5S52.4 0 42.2 0 23.7 8.3 23.7 18.5 32 37 42.2 37M63.9 7c-.3 0-.5.1-.7.1 1.8 3.4 2.9 7.3 2.9 11.4 0 6.6-2.7 12.6-7 16.9 1.5.5 3.1.9 4.8.9 8.1 0 14.6-6.5 14.6-14.6S72 7 63.9 7" class="st0"/><path d="M42.2 37c10.2 0 18.5-8.3 18.5-18.5S52.4 0 42.2 0 23.7 8.3 23.7 18.5 32 37 42.2 37M10.9 57.6c0-6.1 2.2-11.8 5.8-16.3-2.8-.5-5.5-1.7-7.8-3.3-5.3 2.7-9 8.2-9 14.6V55c0 1.7 1.2 3.2 2.9 3.6 2.4.5 5.1.9 8 1.2v-2.2zM18.3 18.5c0-4.1 1-8 2.9-11.4-.2 0-.5-.1-.7-.1-8.1 0-14.7 6.6-14.7 14.6s6.5 14.6 14.6 14.6q2.55 0 4.8-.9C21 31 18.3 25.1 18.3 18.5M71.1 44.9c5.1 0 9.8 2.1 13.2 5.4-.8-5.4-4.1-9.9-8.8-12.3q-3.45 2.4-7.8 3.3c.9 1.2 1.8 2.4 2.5 3.7.3 0 .6-.1.9-.1M52.3 63.7c0-8 5.1-14.9 12.2-17.6-2.3-3.4-5.5-6.1-9.3-7.6-3.7 2.4-8.2 3.9-13 3.9s-9.3-1.4-13-3.9C21.7 41.6 16.3 49 16.3 57.6v3c0 2.2 1.5 4.1 3.7 4.5 6.2 1.2 13.6 2.1 22.1 2.1 3.7 0 7.1-.2 10.4-.5-.1-1-.2-2-.2-3M71.1 50.4c-7.4 0-13.3 6-13.3 13.3 0 7.4 6 13.3 13.3 13.3 7.4 0 13.3-6 13.3-13.3 0-7.4-6-13.3-13.3-13.3m4.5 16h-1.9v1.8c0 1.5-1.2 2.7-2.7 2.7s-2.7-1.2-2.7-2.7v-1.8h-1.9c-1.5 0-2.7-1.2-2.7-2.7s1.2-2.7 2.7-2.7h1.9v-1.8c0-1.5 1.2-2.7 2.7-2.7s2.7 1.2 2.7 2.7V61h1.9c1.5 0 2.7 1.2 2.7 2.7.1 1.5-1.2 2.7-2.7 2.7" class="st0"/></svg>