<svg xmlns="http://www.w3.org/2000/svg" xml:space="preserve" id="Layer_1" x="0" y="0" version="1.1" viewBox="0 0 17.6 20"><style>.st0{fill:#c9c5bc}</style><path d="M8.8 0C5.3 0 2.3 2.8 2.3 6.4c0 1.4.4 2.6 1.2 3.8l4.7 7.4c.2.4.8.4 1 0l4.8-7.4c.8-1.1 1.2-2.4 1.2-3.7 0-3.6-2.9-6.5-6.4-6.5m0 9.4c-1.6 0-2.9-1.3-2.9-2.9s1.3-2.9 2.9-2.9 2.9 1.3 2.9 2.9-1.3 2.9-2.9 2.9" class="st0"/><path d="m13.4 13.5-3 4.6c-.8 1.2-2.5 1.2-3.3 0l-3-4.6c-2.6.6-4.2 1.7-4.2 3C0 18.8 4.5 20 8.8 20s8.8-1.2 8.8-3.5c0-1.3-1.6-2.4-4.2-3" class="st0"/></svg>