<svg xmlns="http://www.w3.org/2000/svg" xml:space="preserve" viewBox="0 0 82 82"><path d="m78.5 27.8-13.6 6c.7 2.3 1 4.7 1 7.2 0 5.7-1.9 11-5.2 15.2.6 1 .9 2.1.9 3.4 0 3.7-3 6.6-6.6 6.6-1.9 0-3.5-.8-4.8-2-2.9 1.2-6 1.8-9.4 1.8-10.7 0-19.9-6.8-23.4-16.3H17c-.9 0-1.8-.4-2.4-1.1 0 0-2.1-2.5-3.4-4.8-.7-1.4-1.2-2.9-1.2-3.8 0-3.9 3.2-7.1 7.1-7.1h.2C20.7 23.1 30 16 41 16q1.8 0 3.6.3l4-14.3c-2.5-.5-5-.7-7.6-.7C19 1.2 1.2 19 1.2 41S19 80.8 41 80.8 80.8 63 80.8 41c0-4.6-.8-9.1-2.3-13.2M55.1 56.1c1.9 0 3.5 1.6 3.5 3.5s-1.6 3.5-3.5 3.5-3.5-1.6-3.5-3.5c0-2 1.6-3.5 3.5-3.5m6.9-21c.5 1.9.8 3.8.8 5.9 0 4.8-1.6 9.3-4.2 12.9-1-.6-2.2-1-3.5-1-3.7 0-6.6 3-6.6 6.6 0 .6.1 1.3.3 1.9-2.4.9-5 1.4-7.7 1.4-9.7 0-17.9-6.3-20.8-15.1.7-.9 1.9-2.5 2.7-3.9s1.3-2.9 1.3-3.9c0-2.7-1.5-5.1-3.8-6.3 3-8.5 11.1-14.5 20.6-14.5.9 0 1.9.1 2.8.2L39.1 36c-2 .8-3.4 2.7-3.4 5 0 2.9 2.4 5.3 5.3 5.3 2.5 0 4.7-1.8 5.2-4.2zM17.1 46.5s-3.9-4.6-3.9-6.6c0-2.2 1.8-3.9 3.9-3.9 2.2 0 3.9 1.8 3.9 3.9 0 2-3.9 6.6-3.9 6.6M41 38.8c1.2 0 2.2 1 2.2 2.2s-1 2.2-2.2 2.2-2.2-1-2.2-2.2 1-2.2 2.2-2.2M46.9 20c6.3 1.8 11.5 6.3 14.1 12.2l-15.1 6.7c-.6-1.4-1.9-2.5-3.4-3zm4.8-17.3-4 14.2c7.2 2 13.1 7.2 16.1 13.9l13.5-6C72.6 14.1 63.2 5.9 51.7 2.7" style="fill-rule:evenodd;clip-rule:evenodd;fill:#033b30"/></svg>