<svg xmlns="http://www.w3.org/2000/svg" xml:space="preserve" viewBox="0 0 2017.7 512"><path d="M1458.4 39.5c0-22.1 17.3-39.5 41.4-39.5 23.6 0 41.4 17.3 41.4 39.5S1523.4 79 1499.8 79c-24-.1-41.4-17.4-41.4-39.5m7.3 71.2h67.4v266.7h-67.4zM1606.7 166.1c-16.7 0-30.3-13.6-30.3-30.3v-25h30.3V97.2c0-65.5 37.1-95.8 112.2-93.9v40.1c0 8.7-6.4 16.2-15 17.3-21.2 2.7-28.8 14.2-28.8 38.9v11.1c25.8 0 46.7 20.9 46.7 46.7v8.7H1675v211.3h-68.4V166.1zM1953 110.7h58.9c4.2 0 7 4.2 5.4 8.1L1857 499.9c-.9 2.2-3 3.6-5.4 3.6h-58.9c-4.2 0-7-4.3-5.3-8.2l53.2-122.4c.6-1.4.6-3.1 0-4.5L1738 118.8c-1.6-3.8 1.2-8.1 5.4-8.1h62.8c2.4 0 4.6 1.5 5.5 3.8l62 167.8c1.9 5.1 9 5.1 10.9 0l62.9-167.8c.9-2.3 3-3.8 5.5-3.8M138.6 383.7C61 383.7 1.1 343.1 0 272.4h80.3c2.1 30 21.9 49.8 56.7 49.8 35.3 0 56.2-18.7 56.2-45.5 0-80.8-192.6-32.1-192.1-167.5C1.1 41.8 55.7 1.1 132.7 1.1c76.5 0 129 39.1 133.8 106.5h-82.4c-1.6-24.6-21.4-43.9-53.5-44.4-29.4-1.1-51.4 13.4-51.4 43.9 0 74.9 191.6 33.2 191.6 164.8 0 58.9-47.1 111.8-132.2 111.8M615.7 223.6c0-24.6 4-48.3 11.3-70.5-22.8-46.8-66.9-74.3-118.6-74.3-27.6 0-51 8.1-69.1 20-12.4 8.1-28.8-.3-28.8-15.1v-.1h-42.3c-7.9 106.9-21.7 198.6-40 270.1s-40.9 122.8-66.1 148.7c15 8.5 31.7 11.2 47.5 8.9 27.6-4.1 50-24.3 59.1-50.7L405 354.2c2.4-7 11.3-9.1 16.6-3.9 19.3 19 48.5 34.6 86.9 34.6 54.1 0 99.7-31.1 121.5-82.4-9.3-24.7-14.3-51.2-14.3-78.9M488.6 319c-40.2 0-78.1-31-78.1-87.2s38-87.2 78.1-87.2c40.6 0 78.6 30 78.6 86.2 0 56.1-38 88.2-78.6 88.2M1114.6 129.6v-46h-74.9v31.1c17.9 32.3 28 69.5 28 109s-10.2 76.6-28 109V380h74.9V232.3c0-57.2 26.8-74.4 71.2-74.4h19.8V79.2c-41.2 0-72.3 19.9-91 50.4M1267.6 145.1h-35.3V83.5h35.3V10.2h75.5v73.3h66.4V145h-66.4v143.4c0 19.8 8 28.4 31.6 28.4 19.2 0 34.8 15.6 34.8 34.8V380h-47.1c-56.7 0-94.7-24.1-94.7-92V145.1z"/><path d="M855 427.1c-122.9 7.9-224.7-93.9-216.8-216.8 6.5-101.6 88.6-183.7 190.2-190.2 122.9-7.9 224.7 93.9 216.8 216.8-6.5 101.6-88.6 183.7-190.2 190.2m1.3-362.6c-99.5-8.9-182.6 74.2-173.7 173.7 6.8 76.3 68.2 137.7 144.5 144.5 99.5 8.9 182.6-74.2 173.7-173.7-6.8-76.3-68.2-137.7-144.5-144.5"/><path d="M946.3 377.4c-29.9-45.7-45.8-98.9-45.8-153.8s15.8-108.1 45.8-153.8l22.2 14.5c-27.1 41.4-41.4 89.5-41.4 139.3 0 49.7 14.3 97.9 41.4 139.3zM737.1 377.4 715 362.9c27.1-41.4 41.4-89.5 41.4-139.3 0-49.7-14.3-97.9-41.4-139.3l22.2-14.5c29.9 45.7 45.8 98.9 45.8 153.8-.1 54.9-15.9 108.1-45.9 153.8"/></svg>