<svg xmlns="http://www.w3.org/2000/svg" xml:space="preserve" id="Layer_1" x="0" y="0" version="1.1" viewBox="0 0 20 17"><style>.st0{fill:#a1a1a1}</style><path d="M17.1 9.2h-1.5c.2.4.2.9.2 1.4v5.8c0 .2 0 .4-.1.6h2.6c1 0 1.7-.8 1.7-1.7V12c0-1.5-1.3-2.8-2.9-2.8M4.2 10.5c0-.5.1-1 .2-1.4H2.9C1.3 9.2 0 10.5 0 12v3.2c0 1 .8 1.7 1.7 1.7h2.6c-.1-.2-.1-.4-.1-.6zm7.6-2.8H8.2c-1.6 0-2.9 1.3-2.9 2.9v5.8c0 .3.3.6.6.6h8.2c.3 0 .6-.3.6-.6v-5.8c0-1.7-1.3-2.9-2.9-2.9M10 0C8.1 0 6.5 1.6 6.5 3.5S8.1 7 10 7c.6 0 1.2-.2 1.7-.4 1.1-.6 1.8-1.8 1.8-3 0-2-1.6-3.6-3.5-3.6M3.9 3.2c-1.4 0-2.6 1.2-2.6 2.6s1.2 2.6 2.6 2.6c.3 0 .7-.1 1-.2.5-.2 1-.6 1.3-1.2.7-1.3.2-2.8-1.1-3.5q-.6-.3-1.2-.3m12.2 0c-1.4 0-2.6 1.2-2.6 2.6q0 .6.3 1.2c.3.5.7.9 1.3 1.2 1.3.6 2.8-.1 3.4-1.4.1-.3.2-.7.2-1 0-1.4-1.2-2.6-2.6-2.6" class="st0"/></svg>