<svg xmlns="http://www.w3.org/2000/svg" xml:space="preserve" id="Layer_1" x="0" y="0" version="1.1" viewBox="0 0 96 80"><style>.st0{fill:#033b30}</style><path d="m20.4 21.9-9.8 4.6 1.2 9.9 10.7 1.8 5-8.8zM34.3 9.2l.9-1.4C32 6.6 28.5 6.1 25.1 6.3q-2.85.15-5.7.9l4.9 2.6zM38.8 26.8l2.9-7.8-7.2-7.6-9.4.6-3.1 8.2 7.3 7.8zM6.8 70.2l.9.6c.3-.7.5-1.5.7-2.2l-1.2-.3.5-2.2.9.2V66c0-.4 0-.9-.1-1.3l-.8.2-.5-2.2.9-.2c-.2-.6-.4-1.1-.6-1.7l-.7.5-1.3-1.9.8-.5c-.4-.6-.9-1.1-1.3-1.6-2.3 2.3-3.6 5.4-3.6 8.7s1.3 6.4 3.7 8.7c.6-.6 1.1-1.2 1.6-1.9l-1-.7zM13.5 51.6c1 0 1.9.1 2.9.3v-4.1c-1.4 1.2-2.6 2.5-3.5 3.9.1-.1.4-.1.6-.1M8.7 51l-2.2-6.5-3.6-1.7c1.4 3.1 3.3 5.9 5.8 8.2M9.2 37.4c.1-.2.2-.3.3-.4L8.3 26.5l-6.2-3.2C.6 27.5.1 32.1.9 36.7c.2 1 .4 2.1.7 3.1l5.2 2.4zM19.8 19.6l3.1-8.1-6.2-3.3c-4 1.7-7.6 4.3-10.4 7.8C5 17.7 3.9 19.4 3 21.3l6.4 3.3zM11.2 38.6l-2.6 5.2 2.3 6.6c1.5-2.1 3.5-4.1 5.9-6q2.7-2.1 5.7-3.6l-.2-.3zM74.1 32.1c5.3-6.1 12.7-9.9 20.7-10.5-1.4-5.7-4.5-10.9-8.9-14.7L69 28zM67.2 26.6 84.1 5.5C79.2 1.9 73.3 0 67.3 0c1 7.8-1 15.8-5.7 22.1z" class="st0"/><path d="m75.9 33.5 14.2 11.4c4.4-6.1 6.3-13.6 5.1-21-7.4.4-14.4 3.9-19.3 9.6M22.7 54.9c.3.3.6.5.8.7.6.5 1.1 1.1 1.5 1.7V42c-2.3 1.1-4.5 2.4-6.4 3.8v6.6c1.5.7 2.9 1.5 4.1 2.5M17.8 74.9 16.5 73l1-.7c-.5-1-.9-2.1-1.1-3.2l-1 .2-.5-2.2 1.2-.3v-.9c0-.7 0-1.3.1-1.9l-1.3-.3.5-2.2 1.3.3c.3-.9.6-1.8 1.1-2.6l-1.2-.8 1.3-1.9 1.1.8c.4-.5.8-1 1.3-1.5-2-1.3-4.3-2.1-6.8-2.1-2.4 0-4.8.7-6.8 2.1.5.5 1 1.1 1.5 1.7l1.5-1 1.3 1.9-1.6 1.1q.6 1.2.9 2.4l1.8-.4.5 2.2-1.8.4c.1.6.1 1.2.1 1.8v.8l1.7.4-.5 2.2-1.5-.4c-.2 1-.6 2-1 3l1.4.9-1.3 1.9-1.2-.8c-.5.7-1.1 1.4-1.7 2.1 2 1.3 4.4 2.1 6.7 2 2.5 0 4.8-.7 6.8-2.1q-.9-.9-1.5-1.8zM65.1.1C57.8.7 51 4.2 46.2 9.7l13.8 11c4.2-5.9 6.1-13.3 5.1-20.6M49.5 20.3c-1.7-3.2-4-6.1-6.9-8.4-1.6-1.3-3.3-2.3-5.2-3.2l-1 1.5 7.3 7.7zM70.8 56.7c.2-.2.4-.3.7-.5-.7-3.3-3.8-7.2-8.2-10.4v23.7c.8-.6 1.6-1.2 2.3-1.9.1-4.3 2-8.2 5.2-10.9M79.5 74c-2.3 0-4.6-1-6.1-2.6-1.2-1.3-1.7-2.9-1.6-4.6.1-.6.2-1.4.4-2.3.3-1.9.8-4.6.6-6.5-.2.2-.4.3-.6.5-2.8 2.3-4.4 5.7-4.4 9.4 0 3.6 1.6 7 4.4 9.4 2.2 1.8 5 2.8 7.8 2.8 3.2 0 6.2-1.2 8.5-3.4 2.4-2.3 3.7-5.4 3.7-8.7s-1.3-6.5-3.7-8.8c-.5-.4-.9-.8-1.5-1.2-.2 1.9.3 4.6.7 6.6.2.9.3 1.7.4 2.4.2 1.6-.3 3.2-1.5 4.5C85.3 73 83 74 80.7 74zM72.7 33.8l-5.1-4.1L59 40.5c1.3.7 2.5 1.4 3.7 2.1 1.7 1.1 3.2 2.2 4.5 3.5.9-4.4 2.8-8.6 5.5-12.3M54.6 74.1c2.3-.9 4.4-1.9 6.4-3.2V44.2c-2-1.2-4.2-2.3-6.4-3.2z" class="st0"/><path d="M25.1 62.2c-.6-1.8-1.6-3.5-3-4.8-.4.4-.8.9-1.2 1.3l1.2.8-1.3 1.9-1.1-.7c-.3.6-.5 1.2-.7 1.8l1.4.3-.5 2.2-1.4-.3c0 .5-.1.9-.1 1.4v.4l1.4-.3.5 2.2-1.7.4c.2.8.5 1.6.8 2.4l1.3-.9 1.3 1.9-1.4 1c.4.6.9 1.2 1.4 1.7 2.4-2.3 3.6-5.4 3.7-8.7 0-1.2-.2-2.4-.5-3.6-.1-.2-.1-.3-.1-.4M75 56.7c.5 2.3-.1 5.5-.5 8.1-.2.9-.3 1.6-.3 2.2-.1 1.2.5 2.2 1 2.8 1 1.1 2.7 1.9 4.3 1.9h1.2c1.7 0 3.4-.7 4.4-1.9.5-.6 1.1-1.5.9-2.7-.1-.6-.2-1.3-.4-2.2-.6-2.7-1.2-5.9-.6-8.3-1.5-.7-3.2-1-4.9-1-1.8 0-3.5.4-5.1 1.1M74.5 35.3c-2.8 3.8-4.6 8.2-5.2 12.8 2.1 2.3 3.5 4.6 4.2 6.8 2-1 4.3-1.6 6.6-1.6h.1c3.3-1.7 6.1-3.9 8.6-6.7zM65.8 28.4l-5.6-4.5c-1.7 2-3.7 3.7-5.8 5.2.2 1.5.2 3.1.1 4.6v.6c-.1 1.4-.3 2.7-.6 4q1.5.45 3 1.2zM43.7 36.3l-4.6-7.2-9.5 1.2-5.2 9.2.2.4c.4-.2.8-.3 1.2-.5 4.9-2 10.1-3.1 15.3-3.1.9-.1 1.7-.1 2.6 0M58.5 22.5l-10.3-8.2q2.85 3.45 4.5 7.5c0 .1.1.2.1.4.6 1.5 1 2.9 1.3 4.5 1.5-1.3 3-2.7 4.4-4.2M52.2 40.2c-3.6-1.1-7.4-1.7-11.1-1.7-4.7 0-9.3.9-13.8 2.6v20.6c.4 1.4.6 2.8.6 4.3 0 2.6-.7 5.1-2 7.3l.6.3c4.7 2 9.5 3 14.5 3 3.8 0 7.5-.6 11.2-1.7zq.15 0 0 0m-3.4 18.5h-1.9v2.1h-2.3v-2.1h-1.5v2.1h-2.3v-2.1h-2v2.1h-2.3v-2.1h-2v2.1h-2.3v-2.1h-1.7v-2.3h1.7v-2.2h2.3v2.2h2v-2.2h2.3v2.2h2v-2.2h2.3v2.2h1.5v-2.2h2.3v2.2h1.9zM49.3 37.1l2.4.6c.1-.6.2-1.1.3-1.7zM50.8 23.4l-7.1-3-2.8 7.4 5.3 8.2 6.1-2.5c.1-2 0-4.1-.4-6.1-.3-1.4-.7-2.8-1.1-4" class="st0"/></svg>