<svg xmlns="http://www.w3.org/2000/svg" width="251" height="29" fill="none"><path stroke="#F5D31F" stroke-linecap="round" stroke-width="8" d="m4 25 9.909-14.565c3.723-5.473 11.994-4.792 14.772 1.216v0c2.389 5.166 9.075 6.58 13.35 2.823l5.511-4.84a13.995 13.995 0 0 1 17.074-1.082l5.417 3.66a15 15 0 0 0 15.974.52l7.291-4.266a15 15 0 0 1 18.387 2.55l.788.82c5.493 5.712 14.482 6.166 20.522 1.036l1.951-1.656c5.838-4.959 14.474-4.722 20.031.549l2.847 2.699c5.998 5.688 15.656 4.968 20.883-1.436v0c4.75-5.818 13.335-6.923 19.313-2.376l5.172 3.933c4.858 3.694 11.904 1.659 14.042-4.058v0c2.089-5.58 8.886-7.686 13.763-4.262L247 17.5"/></svg>