<svg xmlns="http://www.w3.org/2000/svg" xml:space="preserve" id="Layer_1" x="0" y="0" version="1.1" viewBox="0 0 48 38.2"><style>.st0{fill:#314944}</style><path d="m33.8 25.5-2.3-3.9c2.4 3.1 6.9 3.3 9.5.4 2.4-2.6 2.3-6.8-.3-9.3-2.5-2.5-6.6-2.4-8.9.3-1.9 2.1-2.2 4.9-1.1 7.3L25.1 11l8.2-2.5c2.6-.7 3.7-3.9 2.5-6.2C34.9.5 32.9-.3 31 .2L18.6 3.9c-3.2.9-4.7 4.9-2.9 7.9l3.7 6.4-6.7 4.3c8.1 0 13.9 2.5 21.1 3M1.7 29.7c18.1-5.4 25 5.5 45.1 0 .7-.2 1.2-1 1-1.8s-.9-1.2-1.7-1C26.8 32.1 20 21.3 1 26.9c-.7.2-1.1 1-.9 1.8s.9 1.2 1.6 1M46.1 33.8C26.7 39.1 20 28.2 1 33.8c-.7.2-1.1 1-.9 1.8.2.7.9 1.2 1.8 1 18.1-5.4 25 5.5 45.1 0 .7-.2 1.2-1 1-1.8-.4-.8-1.2-1.2-1.9-1" class="st0"/></svg>