<svg xmlns="http://www.w3.org/2000/svg" xml:space="preserve" viewBox="0 0 46.5 46.4"><path d="M14.6 37.8c1.1-1.1 2.5-1.8 4-2.1l10.2-2c4.6-.6 8.5-2.7 11.6-5.8 7.1-7.1 8-17.8 2-23.9-6-6-16.7-5.1-23.9 2-3.1 3.1-5.3 7.2-5.8 11.7l-2 10.2c-.3 1.5-1 2.9-2.1 4L1 39.5c-1.4 1.4-1.4 3.7 0 5.2l.8.8c1.4 1.4 3.7 1.4 5.2 0zm16-17.9-4 4-4-4 4-4zm-2-6 4-4 4 4-4 4zm-4 12-3.7 3.7c-.8-.5-1.6-1-2.3-1.7s-1.2-1.4-1.7-2.3l3.7-3.7zm3.8 5c-1.6.2-3.2.1-4.6-.2l2.8-2.8 2.9 2.9zm4.1-1-4-4 4-4 4.9 4.9c-1.4 1.3-3.1 2.3-4.9 3.1m7-5.1-4.9-4.9 4-4 4 4c-.8 1.7-1.8 3.4-3.1 4.9m3.8-13.7c.4 1.8.5 3.8.1 5.7l-2.9-2.9zM40.5 6c.7.7 1.2 1.5 1.7 2.3L38.5 12l-4-4 3.7-3.7c.8.4 1.6 1 2.3 1.7m-5.1-2.8L32.5 6l-2.9-2.9c2-.4 4-.4 5.8.1m-8.8.8 4 4-4 4-5-5c1.6-1.3 3.2-2.3 5-3m-6.9 5 4.9 4.9-4 4-4-4c.8-1.7 1.8-3.4 3.1-4.9m-4.1 9.1.2-1 2.9 2.9-2.8 2.8c-.5-1.5-.5-3.1-.3-4.7m-2 10.3.4-2.3c.7 1.4 1.5 2.7 2.6 3.8s2.4 2 3.8 2.6l-2.3.4c-1.6.3-3.1 1-4.4 2l-2.1-2.1c1-1.3 1.7-2.8 2-4.4" style="fill:#314944"/></svg>